<svg width="28" height="28" viewBox="0 0 28 28" fill="none" xmlns="http://www.w3.org/2000/svg">
<path d="M13.75 6.5V13" stroke="#6A53A7" stroke-width="2" stroke-linecap="round"/>
<path d="M4 20.3V4.7C4 4.58954 4.08954 4.5 4.2 4.5H8C9.31313 4.5 10.6061 4.82323 11.7647 5.44118L13.6488 6.44601C13.7115 6.47945 13.7872 6.47711 13.8477 6.43987L15.0716 5.68673C16.3324 4.91082 17.7839 4.5 19.2643 4.5H23.3C23.4105 4.5 23.5 4.58954 23.5 4.7V20.3C23.5 20.4105 23.4105 20.5 23.3 20.5H19.1245C17.7323 20.5 16.3642 20.8633 15.1554 21.5541L13.5992 22.4433C13.5377 22.4784 13.4623 22.4784 13.4008 22.4433L11.8446 21.5541C10.6358 20.8633 9.2677 20.5 7.87548 20.5H4.2C4.08954 20.5 4 20.4105 4 20.3Z" stroke="#6A53A7" stroke-width="2" stroke-linecap="round"/>
</svg>
