<svg width="24" height="24" viewBox="0 0 24 24" fill="none" xmlns="http://www.w3.org/2000/svg">
<path d="M8.24983 10.5333L6.59888 12.1843C5.98229 12.8009 5.62771 13.6399 5.63419 14.5216C5.64067 15.4034 5.98749 16.2475 6.63333 16.8734C7.2592 17.5192 8.10345 17.866 8.98503 17.8725C9.88672 17.8791 10.7058 17.5445 11.3224 16.9279L12.9734 15.2769M15.0822 13.2085L16.7331 11.5575C17.3497 10.9409 17.7043 10.1019 17.6978 9.22018C17.6913 8.33845 17.3445 7.49436 16.6987 6.86845C16.073 6.24272 15.2289 5.89588 14.3471 5.8894C13.4654 5.88292 12.6263 6.21737 12.0097 6.83399L10.3588 8.48497M9.16244 14.3304L14.1153 9.37742M6.67176 6.78849L5.85399 5.9707M9.51138 5.34796L9.64517 4M4 9.64501L5.39756 9.5063M16.7282 16.6115L17.546 17.4293M13.8886 18.052L13.7548 19.4M19.4 13.755L18.0024 13.8937" stroke="#6A53A7" stroke-linecap="round" stroke-linejoin="round"/>
</svg>
