<svg width="28" height="28" viewBox="0 0 28 28" fill="none" xmlns="http://www.w3.org/2000/svg">
<path d="M19.6471 8.1C19.6471 7.54305 19.424 7.0089 19.0268 6.61508C18.6297 6.22125 18.091 6 17.5294 6C16.9678 6 7.11765 6 7.11765 6C6.55601 6 6.01738 6.22125 5.62024 6.61508C5.22311 7.0089 5 7.54305 5 8.1V20.7C5 21.257 5.22311 21.7911 5.62024 22.1849C6.01738 22.5787 6.55601 22.8 7.11765 22.8H17.5294C18.091 22.8 18.6297 22.5787 19.0268 22.1849C19.424 21.7911 19.6471 21.257 19.6471 20.7M10.2941 15.4H23L19.8235 12.25" stroke="#6A53A7" stroke-width="2" stroke-linecap="round" stroke-linejoin="round"/>
</svg>
