<svg width="42" height="42" viewBox="0 0 42 42" fill="none" xmlns="http://www.w3.org/2000/svg">
<circle cx="21" cy="21" r="20" stroke="url(#paint0_linear_488_19778)" stroke-width="2"/>
<path d="M41 21.0002C41 23.8842 40.3762 26.7342 39.1715 29.3545C37.9668 31.9749 36.2096 34.3038 34.0204 36.1814C31.8312 38.0589 29.2619 39.4408 26.4886 40.2323C23.7152 41.0238 20.8035 41.2061 17.9531 40.7667C15.1027 40.3273 12.3811 39.2767 9.97481 37.6868C7.56854 36.097 5.53459 34.0055 4.01243 31.5558C2.49027 29.1062 1.51591 26.3563 1.15619 23.4948C0.796459 20.6332 1.05987 17.7277 1.92835 14.9775" stroke="white" stroke-width="2" stroke-linecap="round"/>
<path d="M27.25 20.567C27.5833 20.7594 27.5833 21.2406 27.25 21.433L18.25 26.6292C17.9167 26.8216 17.5 26.5811 17.5 26.1962L17.5 15.8038C17.5 15.4189 17.9167 15.1784 18.25 15.3708L27.25 20.567Z" fill="white"/>
<defs>
<linearGradient id="paint0_linear_488_19778" x1="-7.5" y1="18" x2="48" y2="21" gradientUnits="userSpaceOnUse">
<stop stop-color="#5F47A0"/>
<stop offset="1" stop-color="#998AC5"/>
</linearGradient>
</defs>
</svg>
