<svg width="24" height="24" viewBox="0 0 24 24" fill="none" xmlns="http://www.w3.org/2000/svg">
<path d="M19.0001 18.8835H10.4417C6.33177 18.8835 3 15.5517 3 11.4417C3 7.33178 6.33177 4 10.4417 4H14.1906C18.0566 4 21.1906 7.13401 21.1906 11" stroke="#797979" stroke-width="2" stroke-linecap="round"/>
<path d="M21.4068 18.589C21.6938 18.7878 21.6938 19.2122 21.4068 19.411L19.0347 21.0544C18.7031 21.2841 18.25 21.0468 18.25 20.6434L18.25 17.3566C18.25 16.9532 18.7031 16.7159 19.0347 16.9456L21.4068 18.589Z" fill="#797979"/>
<path d="M13.1535 15H11.6775V10.167L10.3095 11.355V9.78L11.6775 8.592H13.1535V15Z" fill="#797979"/>
</svg>
