<svg width="24" height="24" viewBox="0 0 24 24" fill="none" xmlns="http://www.w3.org/2000/svg">
<path d="M2.99951 19.269C2.99951 19.269 10.1275 19.269 11.1254 11.9985C12.1234 4.72791 19.2514 4.72791 19.2514 4.72791" stroke="#797979" stroke-width="2" stroke-linecap="round"/>
<path d="M2.99951 4.7278C2.99951 4.7278 6.77218 4.7278 9.21244 7.52736M19.2514 19.2689C19.2514 19.2689 15.4166 19.2689 12.9787 16.3999" stroke="#797979" stroke-width="2" stroke-linecap="round"/>
<path d="M21.6302 4.48544C21.9057 4.67633 21.9057 5.08367 21.6302 5.27456L19.3531 6.85221C19.0347 7.07276 18.5997 6.84493 18.5997 6.45765L18.5997 3.30234C18.5997 2.91507 19.0347 2.68724 19.3531 2.90779L21.6302 4.48544Z" fill="#797979"/>
<path d="M21.6302 18.8853C21.9057 19.0762 21.9057 19.4836 21.6302 19.6745L19.3531 21.2521C19.0347 21.4727 18.5997 21.2448 18.5997 20.8576L18.5997 17.7022C18.5997 17.315 19.0347 17.0871 19.3531 17.3077L21.6302 18.8853Z" fill="#797979"/>
</svg>
