<svg width="24" height="24" viewBox="0 0 24 24" fill="none" xmlns="http://www.w3.org/2000/svg">
<g clip-path="url(#clip0_538_10095)">
<path d="M19.5 12C19.5 11.5858 19.1642 11.25 18.75 11.25C18.3358 11.25 18 11.5858 18 12H19.5ZM12 6C12.4142 6 12.75 5.66421 12.75 5.25C12.75 4.83579 12.4142 4.5 12 4.5V6ZM17.625 18H6.375V19.5H17.625V18ZM6 17.625V6.375H4.5V17.625H6ZM18 12V17.625H19.5V12H18ZM6.375 6H12V4.5H6.375V6ZM6.375 18C6.16789 18 6 17.8321 6 17.625H4.5C4.5 18.6605 5.33946 19.5 6.375 19.5V18ZM17.625 19.5C18.6605 19.5 19.5 18.6605 19.5 17.625H18C18 17.8321 17.8321 18 17.625 18V19.5ZM6 6.375C6 6.16789 6.16789 6 6.375 6V4.5C5.33947 4.5 4.5 5.33946 4.5 6.375H6Z" fill="white"/>
<path d="M5.25 16.1251L9.25991 12.4493C9.53959 12.1929 9.96671 12.1858 10.2548 12.4328L15 16.5001" stroke="white" stroke-width="1.5" stroke-linecap="round" stroke-linejoin="round"/>
<path d="M13.5 14.6249L15.2901 12.8349C15.5539 12.571 15.9718 12.5413 16.2704 12.7652L18.75 14.6249" stroke="white" stroke-width="1.5" stroke-linecap="round" stroke-linejoin="round"/>
<path d="M16.875 9.75V5.25" stroke="white" stroke-width="1.5" stroke-linecap="round" stroke-linejoin="round"/>
<path d="M15 7.125L16.875 5.25L18.75 7.125" stroke="white" stroke-width="1.5" stroke-linecap="round" stroke-linejoin="round"/>
</g>
<defs>
<clipPath id="clip0_538_10095">
<rect width="24" height="24" fill="white"/>
</clipPath>
</defs>
</svg>
