<svg width="28" height="28" viewBox="0 0 28 28" fill="none" xmlns="http://www.w3.org/2000/svg">
<path d="M7.79089 11.7161C5.50469 11.7161 3.65137 13.5694 3.65137 15.8556C3.65137 17.5003 4.61053 18.9209 6 19.5887" stroke="#6A53A7" stroke-width="2" stroke-linecap="round"/>
<path d="M20.2095 11.7161C22.4957 11.7161 24.349 13.5694 24.349 15.8556C24.349 17.5004 23.3897 18.9212 22 19.5889" stroke="#6A53A7" stroke-width="2" stroke-linecap="round"/>
<path d="M7.79053 12.751C7.79053 12.3984 7.81992 12.0526 7.87638 11.7161C8.36906 8.77939 10.3777 6.54169 13.9998 6.54169C17.6219 6.54169 20.2091 9.64633 20.2091 12.751" stroke="#6A53A7" stroke-width="2"/>
<path d="M14 14.2092V22.4882" stroke="#6A53A7" stroke-width="2" stroke-linecap="round"/>
<path d="M17.1048 20.6537L14.7319 23.0265C14.3278 23.4307 13.6725 23.4307 13.2684 23.0265L10.8955 20.6537" stroke="#6A53A7" stroke-width="2" stroke-linecap="round"/>
</svg>
