<svg width="23" height="12" viewBox="0 0 23 12" fill="none" xmlns="http://www.w3.org/2000/svg">
<path d="M10.8239 8.13602C10.7039 8.68802 10.5599 9.23202 10.3919 9.76802C10.2399 10.264 10.0519 10.612 9.8279 10.812C9.6119 11.02 9.3399 11.124 9.0119 11.124C8.6919 11.124 8.3959 11.024 8.1239 10.824C7.8519 10.632 7.5879 10.328 7.3319 9.91202C7.1559 9.62402 6.9999 9.29202 6.8639 8.91602C6.1519 9.42802 5.3599 9.90002 4.4879 10.332L3.9239 9.28802C4.8919 8.84802 5.7559 8.35602 6.5159 7.81202C6.2999 6.94802 6.1199 5.87202 5.9759 4.58402H3.4079V6.15602C3.9839 6.04402 4.4999 5.93602 4.9559 5.83202L5.2919 5.76002L5.4239 6.85202C5.3759 6.86002 5.0199 6.93202 4.3559 7.06802L3.4079 7.26002V9.54002C3.4079 10.06 3.2999 10.428 3.0839 10.644C2.8679 10.868 2.5039 10.984 1.9919 10.992C1.5359 10.992 1.1439 10.972 0.815902 10.932L0.599902 9.86402C0.983902 9.92002 1.3839 9.94802 1.7999 9.94802C1.9759 9.94802 2.0999 9.88802 2.1719 9.76802C2.2519 9.64802 2.2919 9.46402 2.2919 9.21602V7.48802L0.467902 7.86002L0.179902 7.92002L-9.76473e-05 6.80402C0.287902 6.77202 1.0519 6.63202 2.2919 6.38402V4.58402H0.0239024V3.52802H2.2919V2.08802C1.8759 2.14402 1.2439 2.21202 0.395902 2.29202L0.311902 1.27202C1.8959 1.13602 3.4279 0.892022 4.9079 0.540023L5.0759 1.57202C4.4839 1.71602 3.9279 1.82802 3.4079 1.90802V3.52802H5.8919C5.8599 3.15202 5.8399 2.85202 5.8319 2.62802L5.7959 1.83602C5.7719 0.996022 5.7479 0.448022 5.7239 0.192023H6.8279C6.8279 0.616023 6.8599 1.41202 6.9239 2.58002L6.9839 3.52802H10.6679V4.58402H7.0679C7.1559 5.61602 7.2719 6.45602 7.4159 7.10402C8.1839 6.42402 8.8199 5.68402 9.3239 4.88402L10.2359 5.44802C9.5559 6.48002 8.7199 7.41202 7.7279 8.24402C7.8959 8.70802 8.0759 9.08002 8.2679 9.36002C8.4119 9.56802 8.5359 9.71202 8.6399 9.79202C8.7439 9.87202 8.8559 9.91202 8.9759 9.91202C9.0879 9.91202 9.1879 9.85602 9.2759 9.74402C9.3719 9.62402 9.4599 9.39602 9.5399 9.06002C9.6519 8.65202 9.7599 8.18802 9.8639 7.66802L10.8239 8.13602ZM9.4079 3.12002C8.8879 2.52002 8.2399 1.86802 7.4639 1.16402L8.1719 0.456022C8.4919 0.728023 8.8399 1.04402 9.2159 1.40402C9.5999 1.75602 9.9239 2.07602 10.1879 2.36402L9.4079 3.12002ZM22.5239 1.90802C22.5319 2.93202 22.5079 4.17202 22.4519 5.62802C22.3959 7.08402 22.3279 8.33202 22.2479 9.37202C22.2159 9.81202 22.1319 10.144 21.9959 10.368C21.8599 10.592 21.6599 10.744 21.3959 10.824C21.1319 10.904 20.7679 10.944 20.3039 10.944C20.0879 10.944 19.7959 10.928 19.4279 10.896C19.3399 10.896 19.1999 10.888 19.0079 10.872L18.8039 9.72002C19.3639 9.79202 19.8159 9.82802 20.1599 9.82802C20.4079 9.82802 20.5959 9.80802 20.7239 9.76802C20.8519 9.72002 20.9519 9.62402 21.0239 9.48002C21.0959 9.32802 21.1479 9.10002 21.1799 8.79602C21.2999 7.28402 21.3599 5.62002 21.3599 3.80402V3.00002H18.6119C18.3799 3.56802 18.1199 4.13602 17.8319 4.70402L16.8599 4.09202C17.1879 3.50002 17.4879 2.83202 17.7599 2.08802C18.0399 1.34402 18.2599 0.648023 18.4199 2.24113e-05L19.5239 0.228022C19.3879 0.780022 19.2199 1.34002 19.0199 1.90802H22.5239ZM15.3839 0.288022C15.2879 0.728022 15.1439 1.30402 14.9519 2.01602H16.6199V10.692H12.4199V2.01602H13.7159C13.8839 1.51202 14.0479 0.868023 14.2079 0.0840228L15.3839 0.288022ZM13.5119 5.38802H15.5279V3.10802H13.5119V5.38802ZM19.5719 8.01602C19.3079 7.59202 18.9999 7.14002 18.6479 6.66002C18.2959 6.17202 17.9919 5.78402 17.7359 5.49602L18.5759 4.83602C19.1119 5.46802 19.7319 6.28402 20.4359 7.28402L19.5719 8.01602ZM13.5119 6.46802V9.58802H15.5279V6.46802H13.5119Z" fill="white"/>
</svg>
