<svg width="28" height="28" viewBox="0 0 28 28" fill="none" xmlns="http://www.w3.org/2000/svg">
<path d="M15.3471 7.04456H13.4156C13.0477 7.04456 12.7495 7.33658 12.7495 7.6968V17.5909C12.7495 17.9511 13.0477 18.2431 13.4156 18.2431H15.3471C15.715 18.2431 16.0132 17.9511 16.0132 17.5909V7.6968C16.0132 7.33658 15.715 7.04456 15.3471 7.04456Z" fill="#E8EAFF"/>
<path d="M10.9237 7.97691L9.55792 6.63955C9.29779 6.38483 8.87604 6.38483 8.61591 6.63955L1.47112 13.6357C1.21099 13.8904 1.21099 14.3034 1.47112 14.5581L2.83688 15.8955C3.09701 16.1502 3.51876 16.1502 3.77889 15.8955L10.9237 8.89932C11.1838 8.6446 11.1838 8.23163 10.9237 7.97691Z" fill="#E8EAFF"/>
<path d="M25.9259 15.7171L27.2917 14.3798C27.5518 14.1251 27.5518 13.7121 27.2917 13.4574L20.1469 6.46119C19.8868 6.20648 19.465 6.20648 19.2049 6.46119L17.8391 7.79855C17.579 8.05327 17.579 8.46625 17.8391 8.72096L24.9839 15.7171C25.244 15.9719 25.6658 15.9719 25.9259 15.7171Z" fill="#E8EAFF"/>
<path d="M7.19727 18.0942C8.47935 20.7175 11.2147 22.5291 14.3803 22.5291C17.5458 22.5291 20.2833 20.7175 21.5633 18.0942" stroke="#E8EAFF" stroke-opacity="0.4" stroke-width="2" stroke-miterlimit="10" stroke-linecap="round"/>
</svg>
