<svg width="24" height="24" viewBox="0 0 24 24" fill="none" xmlns="http://www.w3.org/2000/svg">
<path d="M14.3836 14.7487C14.9075 14.9234 15.4738 14.6402 15.6485 14.1163C15.8231 13.5923 15.54 13.026 15.016 12.8514L14.6998 13.8L14.3836 14.7487ZM11.9998 12.9H10.9998C10.9998 13.3305 11.2752 13.7126 11.6836 13.8487L11.9998 12.9ZM12.9998 9.13674C12.9998 8.58446 12.5521 8.13674 11.9998 8.13674C11.4475 8.13674 10.9998 8.58446 10.9998 9.13674H11.9998H12.9998ZM18.1998 12C18.1998 12.5523 18.6475 13 19.1998 13C19.7521 13 20.1998 12.5523 20.1998 12H19.1998H18.1998ZM11.9998 20.2C12.5521 20.2 12.9998 19.7523 12.9998 19.2C12.9998 18.6478 12.5521 18.2 11.9998 18.2V19.2V20.2ZM14.6998 13.8L15.016 12.8514L12.316 11.9514L11.9998 12.9L11.6836 13.8487L14.3836 14.7487L14.6998 13.8ZM11.9998 12.9H12.9998V9.13674H11.9998H10.9998V12.9H11.9998ZM11.9998 19.2V18.2C8.57564 18.2 5.7998 15.4242 5.7998 12H4.7998H3.7998C3.7998 16.5288 7.47107 20.2 11.9998 20.2V19.2ZM4.7998 12H5.7998C5.7998 8.57588 8.57564 5.80005 11.9998 5.80005V4.80005V3.80005C7.47107 3.80005 3.7998 7.47131 3.7998 12H4.7998ZM11.9998 4.80005V5.80005C15.424 5.80005 18.1998 8.57588 18.1998 12H19.1998H20.1998C20.1998 7.47131 16.5285 3.80005 11.9998 3.80005V4.80005Z" fill="#797979"/>
</svg>
