<svg width="15" height="11" viewBox="0 0 15 11" fill="none" xmlns="http://www.w3.org/2000/svg">
<g opacity="0.6">
<path d="M12.6024 0.5H1.2119C0.81873 0.5 0.5 0.924814 0.5 1.44888V9.03994C0.5 9.564 0.81873 9.98882 1.2119 9.98882H12.6024C12.9956 9.98882 13.3143 9.564 13.3143 9.03994V1.44888C13.3143 0.924814 12.9956 0.5 12.6024 0.5Z" stroke="white" stroke-linecap="round" stroke-linejoin="round"/>
<path d="M7.61906 2.08142H1.92382C1.72724 2.08142 1.56787 2.36463 1.56787 2.71401V7.77471C1.56787 8.12409 1.72724 8.4073 1.92382 8.4073H7.61906C7.81565 8.4073 7.97501 8.12409 7.97501 7.77471V2.71401C7.97501 2.36463 7.81565 2.08142 7.61906 2.08142Z" fill="white"/>
<path d="M13.3145 3.34668H13.9552C14.309 3.34668 14.5959 3.77149 14.5959 4.29556V6.19333C14.5959 6.71739 14.309 7.14221 13.9552 7.14221H13.3145V3.34668Z" fill="white"/>
</g>
</svg>
