<svg width="20" height="20" viewBox="0 0 20 20" fill="none" xmlns="http://www.w3.org/2000/svg">
<path opacity="0.2" d="M5.8335 7.49998C5.8335 6.5795 6.57969 5.83331 7.50016 5.83331H16.6668C17.5873 5.83331 18.3335 6.57951 18.3335 7.49998V11.4292C18.3335 12.412 17.6135 13.2309 16.6311 13.2048C16.4669 13.2004 16.2921 13.1931 16.107 13.1821C14.616 13.0937 13.1043 14.9034 13.2023 16.3939C13.2375 16.9305 13.2308 17.422 13.2065 17.8373C13.1608 18.6188 12.4873 19.1666 11.7045 19.1666H7.50016C6.57969 19.1666 5.8335 18.4205 5.8335 17.5V7.49998Z" fill="#6A53A7"/>
<path d="M6.6665 6.8335H12.6298" stroke="#6A53A7" stroke-width="1.66667" stroke-linecap="round" stroke-linejoin="round"/>
<path d="M6.6665 11.0002H8.33317" stroke="#6A53A7" stroke-width="1.66667" stroke-linecap="round" stroke-linejoin="round"/>
<path d="M5.5 17.0835H5C3.89543 17.0835 3 16.1881 3 15.0835V5.0835C3 3.97893 3.89543 3.0835 5 3.0835H14.5C15.6046 3.0835 16.5 3.97893 16.5 5.0835V13.0835C16.5 15.2926 14.7091 17.0835 12.5 17.0835H10.4167C11.6667 16.0002 11.6667 14.3335 10.8333 12.6668C12.5 12.6668 12.9167 12.6668 13.75 11.4168" stroke="#6A53A7" stroke-width="1.66667" stroke-linecap="round" stroke-linejoin="round"/>
</svg>
