<svg preserveAspectRatio="none" width="100%" height="100%" overflow="visible" style="display: block;" viewBox="0 0 15.2 16.4" fill="none" xmlns="http://www.w3.org/2000/svg">
<g id="_&#229;&#155;&#190;&#229;&#177;&#130;_1" clip-path="url(#clip0_0_154)">
<path id="Vector" d="M10.1996 12.8002C10.1996 12.0282 10.8276 11.4002 11.5996 11.4002H14.5996V12.7602C14.5996 13.5562 13.9556 14.2002 13.1596 14.2002H11.5996C10.8276 14.2002 10.1996 13.5722 10.1996 12.8002Z" fill="var(--fill-0, #D8C5DF)" stroke="var(--stroke-0, #D8C5DF)" stroke-width="1.2" stroke-linejoin="round"/>
<path id="Vector_2" d="M0.599609 14.4002C0.599609 13.6282 1.22761 13.0002 1.99961 13.0002H4.59961V14.3602C4.59961 15.1562 3.95561 15.8002 3.15961 15.8002H1.99961C1.22761 15.8002 0.599609 15.1722 0.599609 14.4002Z" fill="var(--fill-0, #D8C5DF)" stroke="var(--stroke-0, #D8C5DF)" stroke-width="1.2" stroke-linejoin="round"/>
<path id="Vector_3" d="M4.59961 6.21624L14.5996 3.84824" stroke="var(--stroke-0, #D8C5DF)" stroke-width="1.8" stroke-linecap="round" stroke-linejoin="round"/>
<path id="Vector_4" d="M4.59961 14.2002V3.0002L14.5996 0.600195V12.4762" stroke="var(--stroke-0, #D8C5DF)" stroke-width="1.8" stroke-linecap="round" stroke-linejoin="round"/>
</g>
<defs>
<clipPath id="clip0_0_154">
<rect width="15.2" height="16.4" fill="white"/>
</clipPath>
</defs>
</svg>
