<svg preserveAspectRatio="none" width="100%" height="100%" overflow="visible" style="display: block;" viewBox="0 0 10.1155 10.1155" fill="none" xmlns="http://www.w3.org/2000/svg">
<path id="Vector" d="M3.98884 1.84616L4.53793 0.3624C4.71608 -0.1208 5.39939 -0.1208 5.57754 0.3624L6.12663 1.84616C6.49391 2.83941 7.27728 3.62156 8.2693 3.98884L9.75307 4.53793C10.2363 4.71608 10.2363 5.39939 9.75307 5.57754L8.2693 6.12663C7.27606 6.49391 6.49391 7.27728 6.12663 8.2693L5.57754 9.75307C5.39939 10.2363 4.71608 10.2363 4.53793 9.75307L3.98884 8.2693C3.62156 7.27606 2.83819 6.49391 1.84616 6.12663L0.3624 5.57754C-0.1208 5.39939 -0.1208 4.71608 0.3624 4.53793L1.84616 3.98884C2.83941 3.62156 3.62156 2.83819 3.98884 1.84616Z" fill="#D8C5DF"/>
</svg>
