<svg preserveAspectRatio="none" width="100%" height="100%" overflow="visible" style="display: block;" viewBox="0 0 74 47.9693" fill="none" xmlns="http://www.w3.org/2000/svg">
<g id="_&#229;&#155;&#190;&#229;&#177;&#130;_1" clip-path="url(#clip0_0_134)">
<g id="Vector" filter="url(#filter0_n_0_134)">
<path d="M72.2322 -0.000176106H65.1408C63.744 -0.000176106 62.2039 1.13035 61.696 2.52711L61.2272 3.81152C61.0832 4.20613 60.7079 4.46866 60.2878 4.46866H28.6509C27.9564 4.46866 27.4734 3.77818 27.7115 3.1258L27.93 2.52711C28.4379 1.13035 27.717 -0.000176106 26.3243 -0.000176106H19.2329C17.8361 -0.000176106 16.296 1.13035 15.7881 2.52711L0.165588 45.446C-0.342327 46.8427 0.378585 47.9733 1.77126 47.9733H8.8627C10.2595 47.9733 11.7996 46.8427 12.3075 45.446C12.487 44.9494 12.9583 44.6186 13.4863 44.6186H45.4968C45.9248 44.6186 46.2231 45.0434 46.0776 45.446C45.5697 46.8427 46.2906 47.9733 47.6832 47.9733H54.7747C56.1715 47.9733 57.7116 46.8427 58.2195 45.446L58.5185 44.6186L73.1334 4.46866L73.842 2.52711C74.3499 1.13035 73.629 -0.000176106 72.2363 -0.000176106H72.2322Z" fill="url(#paint0_radial_0_134)"/>
</g>
<g id="Vector_2" filter="url(#filter1_n_0_134)">
<path d="M46.2006 38.2543H19.4796C17.3892 38.2543 16.3155 36.56 17.0732 34.4735L24.5854 13.8368C25.3469 11.7465 27.6543 10.056 29.7446 10.056H54.1811C56.2715 10.056 57.3452 11.7503 56.5875 13.8368L49.0753 34.4735C48.3138 36.5638 48.2909 38.2543 46.2006 38.2543Z" fill="url(#paint1_radial_0_134)"/>
</g>
<g id="Vector_3" filter="url(#filter2_n_0_134)">
<path d="M17.3358 16.122C15.8653 16.122 15.1075 14.93 15.6441 13.4636L16.4551 11.2394C16.9917 9.76892 18.6138 8.58105 20.0843 8.58105C21.5548 8.58105 22.3125 9.77302 21.7759 11.2394L20.9649 13.4636C20.4283 14.9341 18.8063 16.122 17.3358 16.122Z" fill="url(#paint2_radial_0_134)"/>
</g>
<g id="Vector_4" filter="url(#filter3_n_0_134)">
<path d="M13.1922 27.5175C11.7217 27.5175 10.964 26.3255 11.5005 24.8591L12.3116 22.6349C12.8482 21.1644 14.4702 19.9766 15.9407 19.9766C17.4112 19.9766 18.169 21.1685 17.6324 22.6349L16.8214 24.8591C16.2848 26.3296 14.6627 27.5175 13.1922 27.5175Z" fill="url(#paint3_radial_0_134)"/>
</g>
<g id="Vector_5" filter="url(#filter4_n_0_134)">
<path d="M9.04086 38.913C7.57036 38.913 6.81258 37.721 7.34917 36.2546L8.1602 34.0304C8.69679 32.5599 10.3188 31.3721 11.7893 31.3721C13.2598 31.3721 14.0176 32.564 13.481 34.0304L12.67 36.2546C12.1334 37.7251 10.5114 38.913 9.04086 38.913Z" fill="url(#paint4_radial_0_134)"/>
</g>
<g id="Vector_6" filter="url(#filter5_n_0_134)">
<path d="M62.8495 16.122C61.379 16.122 60.6212 14.93 61.1578 13.4636L61.9688 11.2394C62.5054 9.76892 64.1274 8.58105 65.5979 8.58105C67.0684 8.58105 67.8262 9.77302 67.2896 11.2394L66.4786 13.4636C65.942 14.9341 64.32 16.122 62.8495 16.122Z" fill="url(#paint5_radial_0_134)"/>
</g>
<g id="Vector_7" filter="url(#filter6_n_0_134)">
<path d="M58.7069 27.5175C57.2364 27.5175 56.4786 26.3255 57.0152 24.8591L57.8262 22.6349C58.3628 21.1644 59.9849 19.9766 61.4554 19.9766C62.9258 19.9766 63.6836 21.1685 63.147 22.6349L62.336 24.8591C61.7994 26.3296 60.1774 27.5175 58.7069 27.5175Z" fill="url(#paint6_radial_0_134)"/>
</g>
<g id="Vector_8" filter="url(#filter7_n_0_134)">
<path d="M54.5565 38.913C53.086 38.913 52.3282 37.721 52.8648 36.2546L53.6758 34.0304C54.2124 32.5599 55.8345 31.3721 57.305 31.3721C58.7755 31.3721 59.5332 32.564 58.9966 34.0304L58.1856 36.2546C57.649 37.7251 56.027 38.913 54.5565 38.913Z" fill="url(#paint7_radial_0_134)"/>
</g>
<path id="Vector_9" d="M44.1778 21.7665L37.2349 16.6915C35.9365 15.7412 34.0891 16.3023 33.5402 17.8138L29.8456 27.9598C29.1042 29.9915 31.2055 31.8962 33.1552 30.9663L43.7887 25.8913C45.4394 25.1048 45.6483 22.8397 44.1737 21.7624L44.1778 21.7665Z" fill="url(#paint8_linear_0_134)"/>
</g>
<defs>
<filter id="filter0_n_0_134" x="0.00283527" y="-0.000176106" width="74.0019" height="47.9734" filterUnits="userSpaceOnUse" color-interpolation-filters="sRGB">
<feFlood flood-opacity="0" result="BackgroundImageFix"/>
<feBlend mode="normal" in="SourceGraphic" in2="BackgroundImageFix" result="shape"/>
<feTurbulence type="fractalNoise" baseFrequency="15.624999046325684 15.624999046325684" stitchTiles="stitch" numOctaves="3" result="noise" seed="2629" />
<feColorMatrix in="noise" type="luminanceToAlpha" result="alphaNoise" />
<feComponentTransfer in="alphaNoise" result="coloredNoise1">
<feFuncA type="discrete" tableValues="0 0 0 0 0 0 0 0 0 0 0 0 1 1 1 1 1 1 1 1 1 1 1 1 1 1 1 1 1 1 1 1 1 1 1 1 1 1 0 0 0 0 0 0 0 0 0 0 0 0 0 0 0 0 0 0 0 0 0 0 0 0 0 0 0 0 0 0 0 0 0 0 0 0 0 0 0 0 0 0 0 0 0 0 0 0 0 0 0 0 0 0 0 0 0 0 0 0 0 0 "/>
</feComponentTransfer>
<feComposite operator="in" in2="shape" in="coloredNoise1" result="noise1Clipped" />
<feFlood flood-color="rgba(255, 255, 255, 0.44)" result="color1Flood" />
<feComposite operator="in" in2="noise1Clipped" in="color1Flood" result="color1" />
<feMerge result="effect1_noise_0_134">
<feMergeNode in="shape" />
<feMergeNode in="color1" />
</feMerge>
</filter>
<filter id="filter1_n_0_134" x="16.8304" y="10.056" width="40" height="28.1984" filterUnits="userSpaceOnUse" color-interpolation-filters="sRGB">
<feFlood flood-opacity="0" result="BackgroundImageFix"/>
<feBlend mode="normal" in="SourceGraphic" in2="BackgroundImageFix" result="shape"/>
<feTurbulence type="fractalNoise" baseFrequency="15.624999046325684 15.624999046325684" stitchTiles="stitch" numOctaves="3" result="noise" seed="2629" />
<feColorMatrix in="noise" type="luminanceToAlpha" result="alphaNoise" />
<feComponentTransfer in="alphaNoise" result="coloredNoise1">
<feFuncA type="discrete" tableValues="0 0 0 0 0 0 0 0 0 0 0 0 1 1 1 1 1 1 1 1 1 1 1 1 1 1 1 1 1 1 1 1 1 1 1 1 1 1 0 0 0 0 0 0 0 0 0 0 0 0 0 0 0 0 0 0 0 0 0 0 0 0 0 0 0 0 0 0 0 0 0 0 0 0 0 0 0 0 0 0 0 0 0 0 0 0 0 0 0 0 0 0 0 0 0 0 0 0 0 0 "/>
</feComponentTransfer>
<feComposite operator="in" in2="shape" in="coloredNoise1" result="noise1Clipped" />
<feFlood flood-color="rgba(255, 255, 255, 0.44)" result="color1Flood" />
<feComposite operator="in" in2="noise1Clipped" in="color1Flood" result="color1" />
<feMerge result="effect1_noise_0_134">
<feMergeNode in="shape" />
<feMergeNode in="color1" />
</feMerge>
</filter>
<filter id="filter2_n_0_134" x="15.4717" y="8.58105" width="6.47668" height="7.5409" filterUnits="userSpaceOnUse" color-interpolation-filters="sRGB">
<feFlood flood-opacity="0" result="BackgroundImageFix"/>
<feBlend mode="normal" in="SourceGraphic" in2="BackgroundImageFix" result="shape"/>
<feTurbulence type="fractalNoise" baseFrequency="15.624999046325684 15.624999046325684" stitchTiles="stitch" numOctaves="3" result="noise" seed="2629" />
<feColorMatrix in="noise" type="luminanceToAlpha" result="alphaNoise" />
<feComponentTransfer in="alphaNoise" result="coloredNoise1">
<feFuncA type="discrete" tableValues="0 0 0 0 0 0 0 0 0 0 0 0 1 1 1 1 1 1 1 1 1 1 1 1 1 1 1 1 1 1 1 1 1 1 1 1 1 1 0 0 0 0 0 0 0 0 0 0 0 0 0 0 0 0 0 0 0 0 0 0 0 0 0 0 0 0 0 0 0 0 0 0 0 0 0 0 0 0 0 0 0 0 0 0 0 0 0 0 0 0 0 0 0 0 0 0 0 0 0 0 "/>
</feComponentTransfer>
<feComposite operator="in" in2="shape" in="coloredNoise1" result="noise1Clipped" />
<feFlood flood-color="rgba(255, 255, 255, 0.44)" result="color1Flood" />
<feComposite operator="in" in2="noise1Clipped" in="color1Flood" result="color1" />
<feMerge result="effect1_noise_0_134">
<feMergeNode in="shape" />
<feMergeNode in="color1" />
</feMerge>
</filter>
<filter id="filter3_n_0_134" x="11.3281" y="19.9766" width="6.47668" height="7.5409" filterUnits="userSpaceOnUse" color-interpolation-filters="sRGB">
<feFlood flood-opacity="0" result="BackgroundImageFix"/>
<feBlend mode="normal" in="SourceGraphic" in2="BackgroundImageFix" result="shape"/>
<feTurbulence type="fractalNoise" baseFrequency="15.624999046325684 15.624999046325684" stitchTiles="stitch" numOctaves="3" result="noise" seed="2629" />
<feColorMatrix in="noise" type="luminanceToAlpha" result="alphaNoise" />
<feComponentTransfer in="alphaNoise" result="coloredNoise1">
<feFuncA type="discrete" tableValues="0 0 0 0 0 0 0 0 0 0 0 0 1 1 1 1 1 1 1 1 1 1 1 1 1 1 1 1 1 1 1 1 1 1 1 1 1 1 0 0 0 0 0 0 0 0 0 0 0 0 0 0 0 0 0 0 0 0 0 0 0 0 0 0 0 0 0 0 0 0 0 0 0 0 0 0 0 0 0 0 0 0 0 0 0 0 0 0 0 0 0 0 0 0 0 0 0 0 0 0 "/>
</feComponentTransfer>
<feComposite operator="in" in2="shape" in="coloredNoise1" result="noise1Clipped" />
<feFlood flood-color="rgba(255, 255, 255, 0.44)" result="color1Flood" />
<feComposite operator="in" in2="noise1Clipped" in="color1Flood" result="color1" />
<feMerge result="effect1_noise_0_134">
<feMergeNode in="shape" />
<feMergeNode in="color1" />
</feMerge>
</filter>
<filter id="filter4_n_0_134" x="7.17676" y="31.3721" width="6.47668" height="7.54091" filterUnits="userSpaceOnUse" color-interpolation-filters="sRGB">
<feFlood flood-opacity="0" result="BackgroundImageFix"/>
<feBlend mode="normal" in="SourceGraphic" in2="BackgroundImageFix" result="shape"/>
<feTurbulence type="fractalNoise" baseFrequency="15.624999046325684 15.624999046325684" stitchTiles="stitch" numOctaves="3" result="noise" seed="2629" />
<feColorMatrix in="noise" type="luminanceToAlpha" result="alphaNoise" />
<feComponentTransfer in="alphaNoise" result="coloredNoise1">
<feFuncA type="discrete" tableValues="0 0 0 0 0 0 0 0 0 0 0 0 1 1 1 1 1 1 1 1 1 1 1 1 1 1 1 1 1 1 1 1 1 1 1 1 1 1 0 0 0 0 0 0 0 0 0 0 0 0 0 0 0 0 0 0 0 0 0 0 0 0 0 0 0 0 0 0 0 0 0 0 0 0 0 0 0 0 0 0 0 0 0 0 0 0 0 0 0 0 0 0 0 0 0 0 0 0 0 0 "/>
</feComponentTransfer>
<feComposite operator="in" in2="shape" in="coloredNoise1" result="noise1Clipped" />
<feFlood flood-color="rgba(255, 255, 255, 0.44)" result="color1Flood" />
<feComposite operator="in" in2="noise1Clipped" in="color1Flood" result="color1" />
<feMerge result="effect1_noise_0_134">
<feMergeNode in="shape" />
<feMergeNode in="color1" />
</feMerge>
</filter>
<filter id="filter5_n_0_134" x="60.9854" y="8.58105" width="6.47668" height="7.5409" filterUnits="userSpaceOnUse" color-interpolation-filters="sRGB">
<feFlood flood-opacity="0" result="BackgroundImageFix"/>
<feBlend mode="normal" in="SourceGraphic" in2="BackgroundImageFix" result="shape"/>
<feTurbulence type="fractalNoise" baseFrequency="15.624999046325684 15.624999046325684" stitchTiles="stitch" numOctaves="3" result="noise" seed="2629" />
<feColorMatrix in="noise" type="luminanceToAlpha" result="alphaNoise" />
<feComponentTransfer in="alphaNoise" result="coloredNoise1">
<feFuncA type="discrete" tableValues="0 0 0 0 0 0 0 0 0 0 0 0 1 1 1 1 1 1 1 1 1 1 1 1 1 1 1 1 1 1 1 1 1 1 1 1 1 1 0 0 0 0 0 0 0 0 0 0 0 0 0 0 0 0 0 0 0 0 0 0 0 0 0 0 0 0 0 0 0 0 0 0 0 0 0 0 0 0 0 0 0 0 0 0 0 0 0 0 0 0 0 0 0 0 0 0 0 0 0 0 "/>
</feComponentTransfer>
<feComposite operator="in" in2="shape" in="coloredNoise1" result="noise1Clipped" />
<feFlood flood-color="rgba(255, 255, 255, 0.44)" result="color1Flood" />
<feComposite operator="in" in2="noise1Clipped" in="color1Flood" result="color1" />
<feMerge result="effect1_noise_0_134">
<feMergeNode in="shape" />
<feMergeNode in="color1" />
</feMerge>
</filter>
<filter id="filter6_n_0_134" x="56.8428" y="19.9766" width="6.47668" height="7.5409" filterUnits="userSpaceOnUse" color-interpolation-filters="sRGB">
<feFlood flood-opacity="0" result="BackgroundImageFix"/>
<feBlend mode="normal" in="SourceGraphic" in2="BackgroundImageFix" result="shape"/>
<feTurbulence type="fractalNoise" baseFrequency="15.624999046325684 15.624999046325684" stitchTiles="stitch" numOctaves="3" result="noise" seed="2629" />
<feColorMatrix in="noise" type="luminanceToAlpha" result="alphaNoise" />
<feComponentTransfer in="alphaNoise" result="coloredNoise1">
<feFuncA type="discrete" tableValues="0 0 0 0 0 0 0 0 0 0 0 0 1 1 1 1 1 1 1 1 1 1 1 1 1 1 1 1 1 1 1 1 1 1 1 1 1 1 0 0 0 0 0 0 0 0 0 0 0 0 0 0 0 0 0 0 0 0 0 0 0 0 0 0 0 0 0 0 0 0 0 0 0 0 0 0 0 0 0 0 0 0 0 0 0 0 0 0 0 0 0 0 0 0 0 0 0 0 0 0 "/>
</feComponentTransfer>
<feComposite operator="in" in2="shape" in="coloredNoise1" result="noise1Clipped" />
<feFlood flood-color="rgba(255, 255, 255, 0.44)" result="color1Flood" />
<feComposite operator="in" in2="noise1Clipped" in="color1Flood" result="color1" />
<feMerge result="effect1_noise_0_134">
<feMergeNode in="shape" />
<feMergeNode in="color1" />
</feMerge>
</filter>
<filter id="filter7_n_0_134" x="52.6924" y="31.3721" width="6.47668" height="7.54091" filterUnits="userSpaceOnUse" color-interpolation-filters="sRGB">
<feFlood flood-opacity="0" result="BackgroundImageFix"/>
<feBlend mode="normal" in="SourceGraphic" in2="BackgroundImageFix" result="shape"/>
<feTurbulence type="fractalNoise" baseFrequency="15.624999046325684 15.624999046325684" stitchTiles="stitch" numOctaves="3" result="noise" seed="2629" />
<feColorMatrix in="noise" type="luminanceToAlpha" result="alphaNoise" />
<feComponentTransfer in="alphaNoise" result="coloredNoise1">
<feFuncA type="discrete" tableValues="0 0 0 0 0 0 0 0 0 0 0 0 1 1 1 1 1 1 1 1 1 1 1 1 1 1 1 1 1 1 1 1 1 1 1 1 1 1 0 0 0 0 0 0 0 0 0 0 0 0 0 0 0 0 0 0 0 0 0 0 0 0 0 0 0 0 0 0 0 0 0 0 0 0 0 0 0 0 0 0 0 0 0 0 0 0 0 0 0 0 0 0 0 0 0 0 0 0 0 0 "/>
</feComponentTransfer>
<feComposite operator="in" in2="shape" in="coloredNoise1" result="noise1Clipped" />
<feFlood flood-color="rgba(255, 255, 255, 0.44)" result="color1Flood" />
<feComposite operator="in" in2="noise1Clipped" in="color1Flood" result="color1" />
<feMerge result="effect1_noise_0_134">
<feMergeNode in="shape" />
<feMergeNode in="color1" />
</feMerge>
</filter>
<radialGradient id="paint0_radial_0_134" cx="0" cy="0" r="1" gradientTransform="matrix(33.9138 -48.9294 53.095 29.2739 21.3002 59.7998)" gradientUnits="userSpaceOnUse">
<stop offset="0.237244" stop-color="#605677"/>
<stop offset="1" stop-color="#32233A"/>
</radialGradient>
<radialGradient id="paint1_radial_0_134" cx="0" cy="0" r="1" gradientTransform="matrix(18.3313 -28.7603 28.6992 17.2069 28.3422 45.2059)" gradientUnits="userSpaceOnUse">
<stop stop-color="#ABB3C2"/>
<stop offset="0.762756" stop-color="#584E6D"/>
</radialGradient>
<radialGradient id="paint2_radial_0_134" cx="0" cy="0" r="1" gradientTransform="matrix(2.96815 -7.69118 4.64689 4.60153 17.3356 17.981)" gradientUnits="userSpaceOnUse">
<stop stop-color="#ABB3C2"/>
<stop offset="0.762756" stop-color="#584E6D"/>
</radialGradient>
<radialGradient id="paint3_radial_0_134" cx="0" cy="0" r="1" gradientTransform="matrix(2.96815 -7.69118 4.64689 4.60153 13.1921 29.3765)" gradientUnits="userSpaceOnUse">
<stop stop-color="#ABB3C2"/>
<stop offset="0.762756" stop-color="#584E6D"/>
</radialGradient>
<radialGradient id="paint4_radial_0_134" cx="0" cy="0" r="1" gradientTransform="matrix(2.96815 -7.69118 4.64689 4.60154 9.04072 40.772)" gradientUnits="userSpaceOnUse">
<stop stop-color="#ABB3C2"/>
<stop offset="0.762756" stop-color="#584E6D"/>
</radialGradient>
<radialGradient id="paint5_radial_0_134" cx="0" cy="0" r="1" gradientTransform="matrix(2.96815 -7.69118 4.64689 4.60153 62.8493 17.981)" gradientUnits="userSpaceOnUse">
<stop stop-color="#ABB3C2"/>
<stop offset="0.762756" stop-color="#584E6D"/>
</radialGradient>
<radialGradient id="paint6_radial_0_134" cx="0" cy="0" r="1" gradientTransform="matrix(2.96815 -7.69118 4.64689 4.60153 58.7067 29.3765)" gradientUnits="userSpaceOnUse">
<stop stop-color="#ABB3C2"/>
<stop offset="0.762756" stop-color="#584E6D"/>
</radialGradient>
<radialGradient id="paint7_radial_0_134" cx="0" cy="0" r="1" gradientTransform="matrix(2.96815 -7.69118 4.64689 4.60154 54.5563 40.772)" gradientUnits="userSpaceOnUse">
<stop stop-color="#ABB3C2"/>
<stop offset="0.762756" stop-color="#584E6D"/>
</radialGradient>
<linearGradient id="paint8_linear_0_134" x1="42.2983" y1="16.2242" x2="30.0926" y2="31.9135" gradientUnits="userSpaceOnUse">
<stop stop-color="#D8C5DF"/>
<stop offset="1" stop-color="#EDEDED"/>
</linearGradient>
<clipPath id="clip0_0_134">
<rect width="74" height="47.9693" fill="white"/>
</clipPath>
</defs>
</svg>
