<svg width="24" height="24" viewBox="0 0 24 24" fill="none" xmlns="http://www.w3.org/2000/svg">
<path d="M18.7517 8.60007H5.24775M13.9997 11.6001C12.34 11.6001 9.99971 11.6001 9.99971 11.6001M18.7997 11V9.00139C18.7997 8.73747 18.7383 8.47718 18.6202 8.24113L17.4521 5.90488C17.2361 5.47293 16.7946 5.20007 16.3117 5.20007H7.6877C7.20477 5.20007 6.76328 5.47293 6.54731 5.90488L5.37918 8.24113C5.26115 8.47718 5.19971 8.73747 5.19971 9.00139V17.1001C5.19971 18.039 5.96082 18.8001 6.89971 18.8001H17.0997C18.0386 18.8001 18.7997 18.039 18.7997 17.1001V15.5" stroke="#797979" stroke-width="2" stroke-linecap="round" stroke-linejoin="round"/>
</svg>
