<svg width="24" height="24" viewBox="0 0 24 24" fill="none" xmlns="http://www.w3.org/2000/svg">
<path d="M20 12C20 12.5523 20.4477 13 21 13C21.5523 13 22 12.5523 22 12H21H20ZM15.8891 9.52513C16.2796 9.1346 16.2796 8.50144 15.8891 8.11091C15.4986 7.72039 14.8654 7.72039 14.4749 8.11091L15.182 8.81802L15.8891 9.52513ZM8.11091 14.4749C7.72039 14.8654 7.72039 15.4986 8.11091 15.8891C8.50144 16.2796 9.1346 16.2796 9.52513 15.8891L8.81802 15.182L8.11091 14.4749ZM14.4749 15.8891C14.8654 16.2796 15.4986 16.2796 15.8891 15.8891C16.2796 15.4986 16.2796 14.8654 15.8891 14.4749L15.182 15.182L14.4749 15.8891ZM9.52513 8.11091C9.1346 7.72039 8.50144 7.72039 8.11091 8.11091C7.72039 8.50144 7.72039 9.1346 8.11091 9.52513L8.81802 8.81802L9.52513 8.11091ZM16.445 20.96C16.9396 20.7142 17.1413 20.114 16.8955 19.6194C16.6497 19.1249 16.0495 18.9232 15.555 19.169L16 20.0645L16.445 20.96ZM12 21V20C7.58172 20 4 16.4183 4 12H3H2C2 17.5228 6.47715 22 12 22V21ZM3 12H4C4 7.58172 7.58172 4 12 4V3V2C6.47715 2 2 6.47715 2 12H3ZM12 3V4C16.4183 4 20 7.58172 20 12H21H22C22 6.47715 17.5228 2 12 2V3ZM15.182 8.81802L14.4749 8.11091L11.2929 11.2929L12 12L12.7071 12.7071L15.8891 9.52513L15.182 8.81802ZM12 12L11.2929 11.2929L8.11091 14.4749L8.81802 15.182L9.52513 15.8891L12.7071 12.7071L12 12ZM15.182 15.182L15.8891 14.4749L12.7071 11.2929L12 12L11.2929 12.7071L14.4749 15.8891L15.182 15.182ZM12 12L12.7071 11.2929L9.52513 8.11091L8.81802 8.81802L8.11091 9.52513L11.2929 12.7071L12 12ZM16 20.0645L15.555 19.169C14.4852 19.7006 13.279 20 12 20V21V22C13.5947 22 15.1049 21.626 16.445 20.96L16 20.0645Z" fill="white"/>
</svg>
