<svg width="28" height="28" viewBox="0 0 28 28" fill="none" xmlns="http://www.w3.org/2000/svg">
<path d="M15.2924 17.1974C15.2611 17.1664 15.2188 17.149 15.1747 17.149C15.1306 17.149 15.0883 17.1664 15.057 17.1974L12.6362 19.6184C11.5154 20.7393 9.62384 20.858 8.38638 19.6184C7.14684 18.3787 7.26558 16.4891 8.38638 15.3682L10.8071 12.9472C10.8717 12.8826 10.8717 12.7764 10.8071 12.7118L9.978 11.8826C9.94667 11.8516 9.90437 11.8342 9.86029 11.8342C9.81621 11.8342 9.77391 11.8516 9.74259 11.8826L7.32183 14.3035C5.55939 16.0661 5.55939 18.9183 7.32183 20.6788C9.08427 22.4393 11.9363 22.4414 13.6966 20.6788L16.1174 18.2579C16.182 18.1933 16.182 18.087 16.1174 18.0225L15.2924 17.1974ZM20.6797 7.32194C18.9173 5.55935 16.0653 5.55935 14.3049 7.32194L11.8821 9.74289C11.8511 9.77422 11.8337 9.81652 11.8337 9.86061C11.8337 9.90469 11.8511 9.94699 11.8821 9.97832L12.7092 10.8054C12.7737 10.87 12.88 10.87 12.9446 10.8054L15.3653 8.38449C16.4861 7.2636 18.3777 7.14485 19.6152 8.38449C20.8547 9.62414 20.736 11.5138 19.6152 12.6347L17.1944 15.0556C17.1634 15.087 17.146 15.1293 17.146 15.1734C17.146 15.2174 17.1634 15.2598 17.1944 15.2911L18.0236 16.1203C18.0881 16.1849 18.1944 16.1849 18.259 16.1203L20.6797 13.6993C22.4401 11.9367 22.4401 9.08453 20.6797 7.32194ZM16.0445 11.0909C16.0131 11.0599 15.9708 11.0425 15.9268 11.0425C15.8827 11.0425 15.8404 11.0599 15.8091 11.0909L11.0905 15.8078C11.0594 15.8391 11.042 15.8814 11.042 15.9255C11.042 15.9696 11.0594 16.0119 11.0905 16.0432L11.9154 16.8682C11.98 16.9328 12.0863 16.9328 12.1508 16.8682L16.8674 12.1513C16.9319 12.0868 16.9319 11.9805 16.8674 11.9159L16.0445 11.0909Z" fill="#626262"/>
</svg>
