<svg width="144" height="144" viewBox="0 0 144 144" fill="none" xmlns="http://www.w3.org/2000/svg">
<path d="M31.8875 109.748C24.8804 108.813 19.958 102.374 20.8931 95.3673L28.7239 36.6875C29.659 29.6804 36.0974 24.7581 43.1046 25.6932L116.058 35.4288C123.065 36.3639 127.987 42.8023 127.052 49.8094L119.221 108.489C118.286 115.496 111.848 120.419 104.841 119.484L31.8875 109.748Z" fill="url(#paint0_linear_331_4457)"/>
<rect x="33.5986" y="43.5966" width="78.4" height="49.6" rx="6.4" fill="#D0D0D0"/>
<foreignObject x="12.4" y="49.5962" width="112.8" height="72.8"><div xmlns="http://www.w3.org/1999/xhtml" style="backdrop-filter:blur(0.8px);clip-path:url(#bgblur_0_331_4457_clip_path);height:100%;width:100%"></div></foreignObject><g filter="url(#filter0_n_331_4457)" data-figma-bg-blur-radius="1.6">
<path d="M27.1999 120.396C20.1307 120.396 14.3999 114.665 14.3999 107.596L14.3999 64.3962C14.3999 57.327 20.1307 51.5962 27.1999 51.5962L77.9683 51.5962C82.015 51.5962 85.8233 53.5098 88.2385 56.7568L90.5613 59.8794C92.9765 63.1263 96.7848 65.0399 100.832 65.0399L110.4 65.0399C117.469 65.0399 123.2 70.7707 123.2 77.8399L123.2 107.596C123.2 114.665 117.469 120.396 110.4 120.396L27.1999 120.396Z" fill="url(#paint1_linear_331_4457)"/>
<path d="M14.1997 64.3962C14.1997 57.2166 20.0201 51.3963 27.1997 51.3962L77.9683 51.3962C82.0782 51.3962 85.946 53.3398 88.3989 56.6374L90.7222 59.7605C93.0997 62.9564 96.8483 64.8396 100.832 64.8396L110.4 64.8396C117.579 64.8396 123.4 70.66 123.4 77.8396L123.4 107.596C123.4 114.776 117.58 120.596 110.4 120.596L27.1997 120.596C20.0202 120.596 14.1998 114.776 14.1997 107.596L14.1997 64.3962Z" stroke="url(#paint2_linear_331_4457)" stroke-opacity="0.4" stroke-width="0.4"/>
</g>
<defs>
<filter id="filter0_n_331_4457" x="12.4" y="49.5962" width="112.8" height="72.8" filterUnits="userSpaceOnUse" color-interpolation-filters="sRGB">
<feFlood flood-opacity="0" result="BackgroundImageFix"/>
<feBlend mode="normal" in="SourceGraphic" in2="BackgroundImageFix" result="shape"/>
<feTurbulence type="fractalNoise" baseFrequency="6.2499995231628418 6.2499995231628418" stitchTiles="stitch" numOctaves="3" result="noise" seed="7096" />
<feColorMatrix in="noise" type="luminanceToAlpha" result="alphaNoise" />
<feComponentTransfer in="alphaNoise" result="coloredNoise1">
<feFuncA type="discrete" tableValues="0 1 1 1 1 1 1 1 1 1 1 1 1 1 1 1 1 1 1 1 1 1 1 1 1 1 1 1 1 1 1 1 1 1 1 1 1 1 1 1 1 1 1 1 1 1 1 1 1 0 0 0 0 0 0 0 0 0 0 0 0 0 0 0 0 0 0 0 0 0 0 0 0 0 0 0 0 0 0 0 0 0 0 0 0 0 0 0 0 0 0 0 0 0 0 0 0 0 0 0 "/>
</feComponentTransfer>
<feComposite operator="in" in2="shape" in="coloredNoise1" result="noise1Clipped" />
<feFlood flood-color="rgba(0, 0, 0, 0.15)" result="color1Flood" />
<feComposite operator="in" in2="noise1Clipped" in="color1Flood" result="color1" />
<feMerge result="effect1_noise_331_4457">
<feMergeNode in="shape" />
<feMergeNode in="color1" />
</feMerge>
</filter>
<clipPath id="bgblur_0_331_4457_clip_path" transform="translate(-12.4 -49.5962)"><path d="M27.1999 120.396C20.1307 120.396 14.3999 114.665 14.3999 107.596L14.3999 64.3962C14.3999 57.327 20.1307 51.5962 27.1999 51.5962L77.9683 51.5962C82.015 51.5962 85.8233 53.5098 88.2385 56.7568L90.5613 59.8794C92.9765 63.1263 96.7848 65.0399 100.832 65.0399L110.4 65.0399C117.469 65.0399 123.2 70.7707 123.2 77.8399L123.2 107.596C123.2 114.665 117.469 120.396 110.4 120.396L27.1999 120.396Z"/>
</clipPath><linearGradient id="paint0_linear_331_4457" x1="79.5812" y1="30.561" x2="68.3641" y2="114.616" gradientUnits="userSpaceOnUse">
<stop stop-color="#51555C"/>
<stop offset="1" stop-color="#ABB3C2"/>
</linearGradient>
<linearGradient id="paint1_linear_331_4457" x1="68.7999" y1="43.0515" x2="88.0382" y2="115.271" gradientUnits="userSpaceOnUse">
<stop stop-color="white" stop-opacity="0.6"/>
<stop offset="1" stop-color="#8E969E"/>
</linearGradient>
<linearGradient id="paint2_linear_331_4457" x1="68.7997" y1="122.207" x2="68.7997" y2="17.0803" gradientUnits="userSpaceOnUse">
<stop stop-color="#ECEFFF"/>
<stop offset="1" stop-color="#FFFEFF"/>
</linearGradient>
</defs>
</svg>
