<svg width="38" height="38" viewBox="0 0 38 38" fill="none" xmlns="http://www.w3.org/2000/svg">
<path fill-rule="evenodd" clip-rule="evenodd" d="M28.4959 5.03005C29.9575 4.79877 31.2785 5.93215 31.2713 7.41188L31.2518 11.3689V26.0232C31.2515 27.229 30.8467 28.3986 30.1043 29.3513C29.3622 30.3037 28.3245 30.9859 27.1541 31.2947C25.9839 31.6033 24.7429 31.5233 23.6229 31.0662C22.5024 30.6088 21.5621 29.7979 20.952 28.7566C20.3418 27.7151 20.0968 26.5017 20.2566 25.3064C20.4166 24.1114 20.9721 23.0049 21.8328 22.157C22.6935 21.3093 23.8118 20.7668 25.0125 20.6111C26.1993 20.4573 27.4051 20.6893 28.448 21.2722C28.5722 21.3347 28.7041 21.417 28.8279 21.5017V12.783C28.8278 12.2924 28.3899 11.9177 27.9051 11.9929L16.7391 13.7263L15.6082 13.908C14.6994 14.1097 14.0428 14.9167 14.0428 15.8591V27.4607C14.0425 28.6665 13.6376 29.8362 12.8953 30.7888C12.1532 31.7412 11.1155 32.4234 9.94512 32.7322C8.77478 33.0409 7.53307 32.9609 6.41289 32.5037C5.29255 32.0463 4.35307 31.2353 3.74297 30.1941C3.1327 29.1525 2.88781 27.9392 3.04766 26.7439C3.20759 25.5488 3.76296 24.4415 4.62383 23.5935C5.48439 22.7461 6.60213 22.2043 7.80254 22.0486C8.98876 21.8948 10.1945 22.1266 11.2371 22.7088C11.3618 22.7713 11.4936 22.8541 11.618 22.9392V12.5457C11.618 12.4892 11.6219 12.4333 11.6258 12.3777V9.7488C11.626 8.56833 12.4852 7.56318 13.6512 7.37868L28.4959 5.03005Z" fill="white"/>
</svg>
