<svg width="28" height="28" viewBox="0 0 28 28" fill="none" xmlns="http://www.w3.org/2000/svg">
<path d="M23 14C23 18.9706 18.9706 23 14 23C13.3126 23 12.5 23 11 23C11 23 7 23 6.5 23C5.55043 23 8.35508 21.0737 7.67914 20.4068C6.02515 18.7748 5 16.5071 5 14C5 9.02944 9.02944 5 14 5C18.9706 5 23 9.02944 23 14Z" stroke="#6A53A7" stroke-width="2"/>
<path d="M14.5 10C12.0147 10 10 12.0147 10 14.5C10 15.2184 10.1684 15.8975 10.4678 16.5" stroke="#6A53A7" stroke-width="2" stroke-linecap="round"/>
</svg>
