<svg width="30" height="20" viewBox="0 0 30 20" fill="none" xmlns="http://www.w3.org/2000/svg">
<path fill-rule="evenodd" clip-rule="evenodd" d="M11.9039 5.92105C11.944 5.46185 12.6377 5.46353 12.6763 5.923C13.0116 9.89413 13.4848 15.5395 13.7222 18.5197C13.7947 20.3489 11.1034 20.5572 10.8814 18.7326C11.1382 15.0722 11.53 10.2074 11.9039 5.92105ZM6.52107 7.97672C6.58942 7.55271 7.21825 7.55279 7.2867 7.97672L8.32479 14.4093C8.44747 15.1698 7.91058 15.8841 7.12654 16.0031C6.18244 16.1626 5.32265 15.3218 5.48396 14.4093L6.52107 7.97672ZM17.5904 0.00503596C18.4526 -0.067505 19.1932 0.654183 19.1207 1.48941L19.1197 1.49039C18.8697 4.4828 18.3535 11.3676 18.0865 14.2619V14.2628C18.0445 14.7214 17.3538 14.7214 17.314 14.2628C16.947 9.99852 16.5673 5.10015 16.2799 1.48941C16.2198 0.729035 16.8065 0.0645456 17.5904 0.00503596ZM1.14021 8.48551C1.26066 8.14714 1.75332 8.14714 1.87264 8.48551L2.92635 11.4591C3.19552 12.2195 2.77854 13.0483 1.99471 13.3107C0.824327 13.713 -0.326898 12.5822 0.0855272 11.4591H0.0865038L1.14021 8.48551ZM22.8971 3.52945C23.8242 3.3886 24.6592 4.20464 24.5172 5.10172L23.481 12.258C23.4185 12.6899 22.775 12.69 22.7125 12.258L21.6763 5.10172C21.5661 4.34121 22.113 3.63636 22.8971 3.52945ZM28.0054 6.70035C29.1757 6.29809 30.3268 7.42889 29.9146 8.55191H29.9137L28.8599 11.5255C28.7395 11.8639 28.2468 11.8639 28.1275 11.5255L27.0738 8.55191C26.8049 7.79163 27.2217 6.96272 28.0054 6.70035Z" fill="white"/>
</svg>
