<svg width="33" height="26" viewBox="0 0 33 26" fill="none" xmlns="http://www.w3.org/2000/svg">
<g clip-path="url(#clip0_488_9618)">
<path d="M6.89176 20.6799C3.93252 16.3461 3.95294 8.87606 6.94076 4.55877C7.00201 4.47047 7.15174 4.516 7.15038 4.625C7.1885 5.62809 7.2375 7.63703 7.24975 8.63874C7.29875 12.6166 7.29059 16.6979 7.15038 20.6799C7.15038 20.7862 7.00201 20.8372 6.94076 20.7476L6.89176 20.6799Z" fill="white"/>
<path d="M1.73433 16.9573C-0.605568 14.6779 -0.568815 10.5372 1.79422 8.28823C1.84458 8.23856 1.93578 8.27443 1.93851 8.34618C1.96165 8.70492 1.97117 9.06366 1.98887 9.4224L2.01745 10.4986C2.05285 12.2799 2.04468 14.0984 1.98887 15.8811C1.97254 16.2398 1.96165 16.5986 1.93851 16.9573C1.93578 17.0277 1.84322 17.0649 1.79422 17.0152L1.73433 16.9573Z" fill="white"/>
<path d="M14.1372 0.160127C14.3264 6.29732 14.3414 12.7629 14.2733 18.8973C14.257 20.4496 14.1889 23.5899 14.1372 25.1435C14.1345 25.2346 14.0596 25.3063 13.9698 25.3036C13.9153 25.3022 13.8677 25.2732 13.8391 25.2305L13.7833 25.1435C9.94609 18.7028 9.88211 8.49253 12.9489 1.72064C13.198 1.17287 13.4838 0.61407 13.8377 0.073202C13.9194 -0.056496 14.1372 -0.00268511 14.1372 0.158747V0.160127Z" fill="white"/>
<path d="M24.887 20.6799C24.7141 15.3664 24.7154 9.93845 24.887 4.62497C24.887 4.51873 25.0367 4.46768 25.0966 4.55737L25.1456 4.62497C27.9197 8.76289 28.0231 15.2864 25.7581 19.6768C25.573 20.0328 25.3579 20.3984 25.0966 20.7475C25.0353 20.8345 24.887 20.7903 24.887 20.6813V20.6799Z" fill="white"/>
<path d="M30.0976 16.9573C29.9683 14.4613 29.9778 11.9212 30.0472 9.42242C30.0635 9.06368 30.0744 8.70494 30.0976 8.3462C30.1003 8.27583 30.1929 8.2372 30.2419 8.28825L30.3018 8.3462C32.6076 10.6118 32.6199 14.6973 30.3018 16.9573L30.2419 17.0153C30.1915 17.0649 30.1003 17.0291 30.0976 16.9573Z" fill="white"/>
<path d="M18.2537 0.160069C22.2965 6.86987 22.272 18.533 18.1993 25.229C18.1176 25.3587 17.8998 25.3049 17.8998 25.1435C17.8495 23.583 17.78 20.4578 17.7637 18.8973C17.7025 13.8156 17.7174 8.36829 17.8127 3.28248L17.8998 0.160069C17.9025 0.0690042 17.9774 -0.00274356 18.0673 1.59726e-05C18.1217 0.00139574 18.1693 0.0303708 18.1979 0.0731435L18.2537 0.160069Z" fill="white"/>
</g>
<defs>
<clipPath id="clip0_488_9618">
<rect width="32.0357" height="25.3035" fill="white"/>
</clipPath>
</defs>
</svg>
