<svg width="24" height="24" viewBox="0 0 24 24" fill="none" xmlns="http://www.w3.org/2000/svg">
<g clip-path="url(#clip0_488_15839)">
<path d="M15.3484 10.153H12.1877V6.56367C12.1877 6.44582 12.0913 6.34939 11.9734 6.34939H10.3663C10.2484 6.34939 10.152 6.44582 10.152 6.56367V10.153H6.99127C6.87341 10.153 6.77698 10.2494 6.77698 10.3672V11.9744C6.77698 12.0922 6.87341 12.1887 6.99127 12.1887H10.152V15.778C10.152 15.8958 10.2484 15.9922 10.3663 15.9922H11.9734C12.0913 15.9922 12.1877 15.8958 12.1877 15.778V12.1887H15.3484C15.4663 12.1887 15.5627 12.0922 15.5627 11.9744V10.3672C15.5627 10.2494 15.4663 10.153 15.3484 10.153ZM22.9556 21.5101L19.0448 17.5994C22.3154 13.611 22.0877 7.70206 18.3484 3.96546C14.3841 -0.00150675 7.94484 -0.00150675 3.96448 3.96546C-0.00248331 7.94582 -0.00248331 14.3851 3.96448 18.3494C7.70109 22.0887 13.61 22.3164 17.5984 19.0458L21.5091 22.9565C21.5948 23.0315 21.7314 23.0315 21.8038 22.9565L22.9556 21.8047C23.0306 21.7324 23.0306 21.5958 22.9556 21.5101ZM16.9288 16.9297C13.7466 20.1092 8.59305 20.1092 5.41091 16.9297C2.23145 13.7476 2.23145 8.59403 5.41091 5.41189C8.59305 2.23242 13.7466 2.23242 16.9288 5.41189C20.1082 8.59403 20.1082 13.7476 16.9288 16.9297Z" fill="black" fill-opacity="0.85"/>
</g>
<defs>
<clipPath id="clip0_488_15839">
<rect width="24" height="24" fill="white"/>
</clipPath>
</defs>
</svg>
