<svg width="23" height="12" viewBox="0 0 23 12" fill="none" xmlns="http://www.w3.org/2000/svg">
<path d="M5.95177 9.76799H10.7158V10.884H-0.000230432V9.76799H4.79977V6.85199H0.91177V5.79599H4.79977V3.40799H0.39577V2.31599H5.24377C5.00377 1.82799 4.66777 1.21599 4.23577 0.479994L5.29177 -6.4373e-06C5.53977 0.407994 5.80377 0.863994 6.08377 1.36799L6.37177 1.87199L5.39977 2.31599H10.3198V3.40799H5.95177V5.79599H9.80377V6.85199H5.95177V9.76799ZM16.2838 3.27599C16.4118 2.89199 16.5478 2.41199 16.6918 1.83599H12.2158V0.779994H22.4278V1.83599H17.9998L17.5918 3.27599H21.3238V8.32799H20.2078V4.35599H14.4358V8.37599H13.3198V3.27599H16.2838ZM21.8878 11.268C21.2718 10.916 20.4998 10.492 19.5718 9.99599C18.6438 9.49999 17.8678 9.09199 17.2438 8.77199C16.8918 9.25999 16.3438 9.70399 15.5998 10.104C14.8558 10.504 13.8198 10.904 12.4918 11.304L11.9398 10.152C13.3158 9.79199 14.3358 9.43999 14.9998 9.09599C15.6718 8.75199 16.1198 8.37199 16.3438 7.95599C16.5678 7.53999 16.6958 6.98799 16.7278 6.29999C16.7358 6.11599 16.7398 5.68799 16.7398 5.01599H17.9038C17.9038 5.71199 17.8998 6.15999 17.8918 6.35999C17.8758 6.91999 17.8158 7.39199 17.7118 7.77599C18.2078 8.00799 19.1758 8.47999 20.6158 9.19199C21.6318 9.69599 22.2478 9.99999 22.4638 10.104L21.8878 11.268Z" fill="#6A53A7"/>
</svg>
