<svg width="24" height="12" viewBox="0 0 24 12" fill="none" xmlns="http://www.w3.org/2000/svg">
<path d="M7.63215 0.095988V3.39599H10.3322V9.59999C10.3322 10.136 10.2442 10.508 10.0682 10.716C9.90015 10.924 9.60015 11.028 9.16815 11.028C8.58415 11.028 8.08015 11.008 7.65615 10.968L7.44015 9.89999C7.96015 9.95599 8.40415 9.98399 8.77215 9.98399C8.94015 9.98399 9.06015 9.92799 9.13215 9.81599C9.20415 9.70399 9.24015 9.51599 9.24015 9.25199V8.68799H4.92015V11.028H3.81615V3.39599H6.51615V0.095988H7.63215ZM1.12815 0.395988C1.63215 0.715988 2.37215 1.24799 3.34815 1.99199L2.72415 2.93999C2.42815 2.69999 2.06415 2.41999 1.63215 2.09999C1.20815 1.77199 0.840152 1.49999 0.528152 1.28399L1.12815 0.395988ZM5.13615 3.08399C4.72015 2.51599 4.14415 1.87199 3.40815 1.15199L4.17615 0.443988C4.84015 1.10799 5.42015 1.74399 5.91615 2.35199L5.13615 3.08399ZM10.7282 1.16399C10.2242 1.82799 9.64415 2.47599 8.98815 3.10799L8.20815 2.42399C8.88015 1.78399 9.45215 1.13999 9.92415 0.491988L10.7282 1.16399ZM0.636152 2.99999C0.948152 3.21599 1.33215 3.49599 1.78815 3.83999C2.25215 4.18399 2.62415 4.47999 2.90415 4.72799L2.24415 5.68799C1.94015 5.41599 1.56815 5.10799 1.12815 4.76399C0.696152 4.41999 0.320152 4.13199 0.000152349 3.89999L0.636152 2.99999ZM4.92015 5.53199H9.24015V4.42799H4.92015V5.53199ZM0.432152 10.608C1.01615 9.08799 1.47615 7.67599 1.81215 6.37199L2.89215 6.73199C2.49215 8.27599 2.04415 9.67999 1.54815 10.944L0.432152 10.608ZM4.92015 6.55199V7.69199H9.24015V6.55199H4.92015ZM21.6002 1.06799V6.99599H13.5002V1.06799H16.3202C16.4082 0.819988 16.5242 0.463988 16.6682 -1.21593e-05L17.9402 0.191988C17.9002 0.343988 17.8042 0.635988 17.6522 1.06799H21.6002ZM20.5082 2.77199V1.99199H14.5802V2.77199H20.5082ZM20.5082 4.41599V3.61199H14.5802V4.41599H20.5082ZM14.5802 5.24399V6.08399H20.5082V5.24399H14.5802ZM18.2642 9.27599C17.8562 8.81199 17.3162 8.30399 16.6442 7.75199L17.2682 7.04399C17.5082 7.22799 17.7882 7.45599 18.1082 7.72799C18.4362 7.99999 18.7042 8.23999 18.9122 8.44799L18.2642 9.27599ZM21.4082 7.35599C21.6482 7.69199 21.9322 8.11999 22.2602 8.63999C22.5962 9.15199 22.8762 9.59999 23.1002 9.98399L22.1402 10.548C21.9402 10.164 21.6842 9.71599 21.3722 9.20399C21.0602 8.69199 20.7762 8.25599 20.5202 7.89599L21.4082 7.35599ZM11.9762 10.224C12.2082 9.83999 12.4362 9.39599 12.6602 8.89199C12.8922 8.38799 13.0882 7.90799 13.2482 7.45199L14.2562 7.81199C14.1042 8.27599 13.9042 8.77599 13.6562 9.31199C13.4162 9.83999 13.1722 10.32 12.9242 10.752L11.9762 10.224ZM19.4162 8.23199L20.5082 8.51999C20.4922 8.87999 20.4522 9.27999 20.3882 9.71999C20.3562 10.032 20.2842 10.268 20.1722 10.428C20.0602 10.588 19.9002 10.7 19.6922 10.764C19.4842 10.836 19.1882 10.888 18.8042 10.92C18.4522 10.952 18.0522 10.968 17.6042 10.968C17.1162 10.968 16.6802 10.952 16.2962 10.92C15.9282 10.888 15.6442 10.828 15.4442 10.74C15.2442 10.66 15.1002 10.52 15.0122 10.32C14.9242 10.12 14.8802 9.82799 14.8802 9.44399V7.57199H15.9962V9.20399C15.9962 9.47599 16.0442 9.65999 16.1402 9.75599C16.2442 9.85199 16.4362 9.91199 16.7162 9.93599C17.1162 9.96799 17.4202 9.98399 17.6282 9.98399C17.8442 9.98399 18.1442 9.96799 18.5282 9.93599C18.8642 9.90399 19.0882 9.85199 19.2002 9.77999C19.3122 9.69999 19.3722 9.53599 19.3802 9.28799L19.4162 8.23199Z" fill="white"/>
</svg>
