<svg width="20" height="20" viewBox="0 0 20 20" fill="none" xmlns="http://www.w3.org/2000/svg">
<path opacity="0.2" d="M16.673 7.6875C16.673 10.2763 13.652 11.0834 11.9855 11.8334C11.9196 11.863 11.8482 11.8923 11.7717 11.9213C13.7899 12.5687 16.1523 13.0834 16.1523 13.0834C16.1523 13.0834 19.069 13.9167 18.2357 16.4167C17.4023 18.9167 6.98565 18.9167 6.15229 16.4167C5.08504 13.2151 9.91195 12.6274 11.7717 11.9213C10.8619 11.6295 10.022 11.3107 9.5 11C7.82006 10 7.29796 8.36449 7.29796 7.6875C7.29796 5.09867 9.39662 3 11.9855 3C14.5743 3 16.673 5.09867 16.673 7.6875Z" fill="#6A53A7"/>
<path d="M5.71391 8.25584C5.45564 7.67465 5.31212 7.03118 5.31212 6.35419C5.31212 3.76535 7.41079 1.66669 9.99962 1.66669C12.5885 1.66669 14.6871 3.76535 14.6871 6.35419C14.6871 8.94302 11.6661 9.75008 9.99962 10.5001C8.33313 11.2501 3.05531 11.7501 4.16645 15.0834C4.99981 17.5834 15.4164 17.5834 16.2498 15.0834C17.0832 12.5834 14.1665 11.7501 14.1665 11.7501" stroke="#6A53A7" stroke-width="1.66667" stroke-linecap="round" stroke-linejoin="round"/>
<circle cx="8.33333" cy="5.91677" r="0.833333" fill="#6A53A7"/>
<circle cx="11.6668" cy="5.91677" r="0.833333" fill="#6A53A7"/>
</svg>
