<svg width="12" height="12" viewBox="0 0 12 12" fill="none" xmlns="http://www.w3.org/2000/svg">
<path d="M8.60957 7.68765C8.43706 7.90328 8.47202 8.21793 8.68765 8.39043C8.90328 8.56294 9.21793 8.52798 9.39043 8.31235L9 8L8.60957 7.68765ZM11 5.5L11.3904 5.81235L11.6403 5.5L11.3904 5.18765L11 5.5ZM9 3L8.60957 3.31235L10.6096 5.81235L11 5.5L11.3904 5.18765L9.39043 2.68765L9 3ZM11 5.5L10.6096 5.18765L8.60957 7.68765L9 8L9.39043 8.31235L11.3904 5.81235L11 5.5Z" fill="#6A53A7"/>
<path d="M10.5 6C10.7761 6 11 5.77614 11 5.5C11 5.22386 10.7761 5 10.5 5V5.5V6ZM1.5 5.5V6H10.5V5.5V5H1.5V5.5Z" fill="#6A53A7"/>
</svg>
