<svg width="20" height="20" viewBox="0 0 20 20" fill="none" xmlns="http://www.w3.org/2000/svg">
<path opacity="0.2" d="M5 12C5 15.866 8.13401 19 12 19H16.375H17.6973C18.3546 19 18.8332 18.3766 18.6633 17.7415L18.4921 17.1016C18.2177 16.0762 18.4163 14.9984 18.716 13.9801C18.9008 13.3522 19 12.6877 19 12C19 8.13401 15.866 5 12 5C8.13401 5 5 8.13401 5 12Z" fill="#6A53A7"/>
<path d="M9.52941 17C5.37103 17 2 13.6421 2 9.5C2 5.35786 5.37103 2 9.52941 2C13.6878 2 17.0588 5.35786 17.0588 9.5C17.0588 10.8661 16.6922 12.1468 16.0515 13.25L17.0588 17H14.2353" stroke="#6A53A7" stroke-width="1.67" stroke-linecap="round" stroke-linejoin="round"/>
<line x1="12.2" y1="7.8" x2="6.8" y2="7.8" stroke="#6A53A7" stroke-width="1.6" stroke-linecap="round"/>
<line x1="9.2" y1="10.8" x2="6.8" y2="10.8" stroke="#6A53A7" stroke-width="1.6" stroke-linecap="round"/>
</svg>
