<svg width="24" height="24" viewBox="0 0 24 24" fill="none" xmlns="http://www.w3.org/2000/svg">
<path d="M7.888 7.8328V8.6328C8.17253 8.6328 8.43565 8.48167 8.57902 8.2359L7.888 7.8328ZM15.664 7.8328L14.973 8.2359C15.1163 8.48167 15.3795 8.6328 15.664 8.6328V7.8328ZM14.772 6.30373L14.081 6.70683L14.772 6.30373ZM4 16.84H4.8V9.4528H4H3.2V16.84H4ZM7.888 7.8328L8.57902 8.2359L9.47098 6.70683L8.77996 6.30373L8.08893 5.90063L7.19698 7.4297L7.888 7.8328ZM10.1793 5.5V6.3H13.3727V5.5V4.7H10.1793V5.5ZM14.772 6.30373L14.081 6.70683L14.973 8.2359L15.664 7.8328L16.355 7.4297L15.4631 5.90063L14.772 6.30373ZM19.552 9.4528H18.752V16.84H19.552H20.352V9.4528H19.552ZM14.692 12.871H13.892C13.892 14.0396 12.9446 14.987 11.776 14.987V15.787V16.587C13.8283 16.587 15.492 14.9233 15.492 12.871H14.692ZM11.776 15.787V14.987C10.6074 14.987 9.66 14.0396 9.66 12.871H8.86H8.06C8.06 14.9233 9.72371 16.587 11.776 16.587V15.787ZM8.86 12.871H9.66C9.66 11.7024 10.6074 10.755 11.776 10.755V9.955V9.155C9.72371 9.155 8.06 10.8187 8.06 12.871H8.86ZM11.776 9.955V10.755C12.9446 10.755 13.892 11.7024 13.892 12.871H14.692H15.492C15.492 10.8187 13.8283 9.155 11.776 9.155V9.955ZM15.664 7.8328V8.6328C15.6653 8.6328 15.6666 8.6328 15.668 8.6328C15.6693 8.6328 15.6706 8.6328 15.6719 8.6328C15.6733 8.6328 15.6746 8.6328 15.6759 8.6328C15.6772 8.6328 15.6786 8.6328 15.6799 8.6328C15.6812 8.6328 15.6826 8.6328 15.6839 8.6328C15.6852 8.6328 15.6865 8.6328 15.6879 8.6328C15.6892 8.6328 15.6905 8.6328 15.6919 8.6328C15.6932 8.6328 15.6945 8.6328 15.6959 8.6328C15.6972 8.6328 15.6985 8.6328 15.6999 8.6328C15.7012 8.6328 15.7025 8.6328 15.7039 8.6328C15.7052 8.6328 15.7066 8.6328 15.7079 8.6328C15.7092 8.6328 15.7106 8.6328 15.7119 8.6328C15.7132 8.6328 15.7146 8.6328 15.7159 8.6328C15.7173 8.6328 15.7186 8.6328 15.7199 8.6328C15.7213 8.6328 15.7226 8.6328 15.724 8.6328C15.7253 8.6328 15.7267 8.6328 15.728 8.6328C15.7293 8.6328 15.7307 8.6328 15.732 8.6328C15.7334 8.6328 15.7347 8.6328 15.7361 8.6328C15.7374 8.6328 15.7388 8.6328 15.7401 8.6328C15.7415 8.6328 15.7428 8.6328 15.7442 8.6328C15.7455 8.6328 15.7469 8.6328 15.7482 8.6328C15.7496 8.6328 15.7509 8.6328 15.7523 8.6328C15.7536 8.6328 15.755 8.6328 15.7563 8.6328C15.7577 8.6328 15.759 8.6328 15.7604 8.6328C15.7617 8.6328 15.7631 8.6328 15.7644 8.6328C15.7658 8.6328 15.7671 8.6328 15.7685 8.6328C15.7699 8.6328 15.7712 8.6328 15.7726 8.6328C15.7739 8.6328 15.7753 8.6328 15.7766 8.6328C15.778 8.6328 15.7794 8.6328 15.7807 8.6328C15.7821 8.6328 15.7834 8.6328 15.7848 8.6328C15.7862 8.6328 15.7875 8.6328 15.7889 8.6328C15.7903 8.6328 15.7916 8.6328 15.793 8.6328C15.7943 8.6328 15.7957 8.6328 15.7971 8.6328C15.7984 8.6328 15.7998 8.6328 15.8012 8.6328C15.8025 8.6328 15.8039 8.6328 15.8053 8.6328C15.8066 8.6328 15.808 8.6328 15.8094 8.6328C15.8107 8.6328 15.8121 8.6328 15.8135 8.6328C15.8149 8.6328 15.8162 8.6328 15.8176 8.6328C15.819 8.6328 15.8203 8.6328 15.8217 8.6328C15.8231 8.6328 15.8245 8.6328 15.8258 8.6328C15.8272 8.6328 15.8286 8.6328 15.83 8.6328C15.8313 8.6328 15.8327 8.6328 15.8341 8.6328C15.8355 8.6328 15.8368 8.6328 15.8382 8.6328C15.8396 8.6328 15.841 8.6328 15.8423 8.6328C15.8437 8.6328 15.8451 8.6328 15.8465 8.6328C15.8479 8.6328 15.8492 8.6328 15.8506 8.6328C15.852 8.6328 15.8534 8.6328 15.8548 8.6328C15.8561 8.6328 15.8575 8.6328 15.8589 8.6328C15.8603 8.6328 15.8617 8.6328 15.8631 8.6328C15.8644 8.6328 15.8658 8.6328 15.8672 8.6328C15.8686 8.6328 15.87 8.6328 15.8714 8.6328C15.8728 8.6328 15.8741 8.6328 15.8755 8.6328C15.8769 8.6328 15.8783 8.6328 15.8797 8.6328C15.8811 8.6328 15.8825 8.6328 15.8839 8.6328C15.8852 8.6328 15.8866 8.6328 15.888 8.6328C15.8894 8.6328 15.8908 8.6328 15.8922 8.6328C15.8936 8.6328 15.895 8.6328 15.8964 8.6328C15.8978 8.6328 15.8992 8.6328 15.9006 8.6328C15.902 8.6328 15.9033 8.6328 15.9047 8.6328C15.9061 8.6328 15.9075 8.6328 15.9089 8.6328C15.9103 8.6328 15.9117 8.6328 15.9131 8.6328C15.9145 8.6328 15.9159 8.6328 15.9173 8.6328C15.9187 8.6328 15.9201 8.6328 15.9215 8.6328C15.9229 8.6328 15.9243 8.6328 15.9257 8.6328C15.9271 8.6328 15.9285 8.6328 15.9299 8.6328C15.9313 8.6328 15.9327 8.6328 15.9341 8.6328C15.9355 8.6328 15.9369 8.6328 15.9383 8.6328C15.9397 8.6328 15.9411 8.6328 15.9425 8.6328C15.9439 8.6328 15.9454 8.6328 15.9468 8.6328C15.9482 8.6328 15.9496 8.6328 15.951 8.6328C15.9524 8.6328 15.9538 8.6328 15.9552 8.6328C15.9566 8.6328 15.958 8.6328 15.9594 8.6328C15.9608 8.6328 15.9622 8.6328 15.9637 8.6328C15.9651 8.6328 15.9665 8.6328 15.9679 8.6328C15.9693 8.6328 15.9707 8.6328 15.9721 8.6328C15.9735 8.6328 15.9749 8.6328 15.9764 8.6328C15.9778 8.6328 15.9792 8.6328 15.9806 8.6328C15.982 8.6328 15.9834 8.6328 15.9848 8.6328C15.9863 8.6328 15.9877 8.6328 15.9891 8.6328C15.9905 8.6328 15.9919 8.6328 15.9933 8.6328C15.9948 8.6328 15.9962 8.6328 15.9976 8.6328C15.999 8.6328 16.0004 8.6328 16.0018 8.6328C16.0033 8.6328 16.0047 8.6328 16.0061 8.6328C16.0075 8.6328 16.0089 8.6328 16.0104 8.6328C16.0118 8.6328 16.0132 8.6328 16.0146 8.6328C16.0161 8.6328 16.0175 8.6328 16.0189 8.6328C16.0203 8.6328 16.0217 8.6328 16.0232 8.6328C16.0246 8.6328 16.026 8.6328 16.0274 8.6328C16.0289 8.6328 16.0303 8.6328 16.0317 8.6328C16.0331 8.6328 16.0346 8.6328 16.036 8.6328C16.0374 8.6328 16.0389 8.6328 16.0403 8.6328C16.0417 8.6328 16.0431 8.6328 16.0446 8.6328C16.046 8.6328 16.0474 8.6328 16.0489 8.6328C16.0503 8.6328 16.0517 8.6328 16.0531 8.6328C16.0546 8.6328 16.056 8.6328 16.0574 8.6328C16.0589 8.6328 16.0603 8.6328 16.0617 8.6328C16.0632 8.6328 16.0646 8.6328 16.066 8.6328C16.0675 8.6328 16.0689 8.6328 16.0703 8.6328C16.0718 8.6328 16.0732 8.6328 16.0746 8.6328C16.0761 8.6328 16.0775 8.6328 16.079 8.6328C16.0804 8.6328 16.0818 8.6328 16.0833 8.6328C16.0847 8.6328 16.0861 8.6328 16.0876 8.6328C16.089 8.6328 16.0905 8.6328 16.0919 8.6328C16.0933 8.6328 16.0948 8.6328 16.0962 8.6328C16.0977 8.6328 16.0991 8.6328 16.1005 8.6328C16.102 8.6328 16.1034 8.6328 16.1049 8.6328C16.1063 8.6328 16.1077 8.6328 16.1092 8.6328C16.1106 8.6328 16.1121 8.6328 16.1135 8.6328C16.115 8.6328 16.1164 8.6328 16.1178 8.6328C16.1193 8.6328 16.1207 8.6328 16.1222 8.6328C16.1236 8.6328 16.1251 8.6328 16.1265 8.6328C16.128 8.6328 16.1294 8.6328 16.1309 8.6328C16.1323 8.6328 16.1337 8.6328 16.1352 8.6328C16.1366 8.6328 16.1381 8.6328 16.1395 8.6328C16.141 8.6328 16.1424 8.6328 16.1439 8.6328C16.1453 8.6328 16.1468 8.6328 16.1482 8.6328C16.1497 8.6328 16.1511 8.6328 16.1526 8.6328C16.154 8.6328 16.1555 8.6328 16.1569 8.6328C16.1584 8.6328 16.1599 8.6328 16.1613 8.6328C16.1628 8.6328 16.1642 8.6328 16.1657 8.6328C16.1671 8.6328 16.1686 8.6328 16.17 8.6328C16.1715 8.6328 16.1729 8.6328 16.1744 8.6328C16.1758 8.6328 16.1773 8.6328 16.1788 8.6328C16.1802 8.6328 16.1817 8.6328 16.1831 8.6328C16.1846 8.6328 16.186 8.6328 16.1875 8.6328C16.189 8.6328 16.1904 8.6328 16.1919 8.6328C16.1933 8.6328 16.1948 8.6328 16.1963 8.6328C16.1977 8.6328 16.1992 8.6328 16.2006 8.6328C16.2021 8.6328 16.2036 8.6328 16.205 8.6328C16.2065 8.6328 16.2079 8.6328 16.2094 8.6328C16.2109 8.6328 16.2123 8.6328 16.2138 8.6328C16.2153 8.6328 16.2167 8.6328 16.2182 8.6328C16.2196 8.6328 16.2211 8.6328 16.2226 8.6328C16.224 8.6328 16.2255 8.6328 16.227 8.6328C16.2284 8.6328 16.2299 8.6328 16.2314 8.6328C16.2328 8.6328 16.2343 8.6328 16.2358 8.6328C16.2372 8.6328 16.2387 8.6328 16.2402 8.6328C16.2416 8.6328 16.2431 8.6328 16.2446 8.6328C16.246 8.6328 16.2475 8.6328 16.249 8.6328C16.2504 8.6328 16.2519 8.6328 16.2534 8.6328C16.2548 8.6328 16.2563 8.6328 16.2578 8.6328C16.2593 8.6328 16.2607 8.6328 16.2622 8.6328C16.2637 8.6328 16.2651 8.6328 16.2666 8.6328C16.2681 8.6328 16.2696 8.6328 16.271 8.6328C16.2725 8.6328 16.274 8.6328 16.2754 8.6328C16.2769 8.6328 16.2784 8.6328 16.2799 8.6328C16.2813 8.6328 16.2828 8.6328 16.2843 8.6328C16.2858 8.6328 16.2872 8.6328 16.2887 8.6328C16.2902 8.6328 16.2917 8.6328 16.2931 8.6328C16.2946 8.6328 16.2961 8.6328 16.2976 8.6328C16.299 8.6328 16.3005 8.6328 16.302 8.6328C16.3035 8.6328 16.305 8.6328 16.3064 8.6328C16.3079 8.6328 16.3094 8.6328 16.3109 8.6328C16.3123 8.6328 16.3138 8.6328 16.3153 8.6328C16.3168 8.6328 16.3183 8.6328 16.3197 8.6328C16.3212 8.6328 16.3227 8.6328 16.3242 8.6328C16.3257 8.6328 16.3271 8.6328 16.3286 8.6328C16.3301 8.6328 16.3316 8.6328 16.3331 8.6328C16.3346 8.6328 16.336 8.6328 16.3375 8.6328C16.339 8.6328 16.3405 8.6328 16.342 8.6328C16.3434 8.6328 16.3449 8.6328 16.3464 8.6328C16.3479 8.6328 16.3494 8.6328 16.3509 8.6328C16.3524 8.6328 16.3538 8.6328 16.3553 8.6328C16.3568 8.6328 16.3583 8.6328 16.3598 8.6328C16.3613 8.6328 16.3628 8.6328 16.3642 8.6328C16.3657 8.6328 16.3672 8.6328 16.3687 8.6328C16.3702 8.6328 16.3717 8.6328 16.3732 8.6328C16.3747 8.6328 16.3761 8.6328 16.3776 8.6328C16.3791 8.6328 16.3806 8.6328 16.3821 8.6328C16.3836 8.6328 16.3851 8.6328 16.3866 8.6328C16.3881 8.6328 16.3895 8.6328 16.391 8.6328C16.3925 8.6328 16.394 8.6328 16.3955 8.6328C16.397 8.6328 16.3985 8.6328 16.4 8.6328C16.4015 8.6328 16.403 8.6328 16.4045 8.6328C16.4059 8.6328 16.4074 8.6328 16.4089 8.6328C16.4104 8.6328 16.4119 8.6328 16.4134 8.6328C16.4149 8.6328 16.4164 8.6328 16.4179 8.6328C16.4194 8.6328 16.4209 8.6328 16.4224 8.6328C16.4239 8.6328 16.4254 8.6328 16.4269 8.6328C16.4283 8.6328 16.4298 8.6328 16.4313 8.6328C16.4328 8.6328 16.4343 8.6328 16.4358 8.6328C16.4373 8.6328 16.4388 8.6328 16.4403 8.6328C16.4418 8.6328 16.4433 8.6328 16.4448 8.6328C16.4463 8.6328 16.4478 8.6328 16.4493 8.6328C16.4508 8.6328 16.4523 8.6328 16.4538 8.6328C16.4553 8.6328 16.4568 8.6328 16.4583 8.6328C16.4598 8.6328 16.4613 8.6328 16.4628 8.6328C16.4643 8.6328 16.4658 8.6328 16.4673 8.6328C16.4688 8.6328 16.4703 8.6328 16.4718 8.6328C16.4733 8.6328 16.4748 8.6328 16.4763 8.6328C16.4778 8.6328 16.4793 8.6328 16.4808 8.6328C16.4823 8.6328 16.4838 8.6328 16.4853 8.6328C16.4868 8.6328 16.4883 8.6328 16.4898 8.6328C16.4913 8.6328 16.4928 8.6328 16.4943 8.6328C16.4958 8.6328 16.4973 8.6328 16.4988 8.6328C16.5003 8.6328 16.5018 8.6328 16.5033 8.6328C16.5048 8.6328 16.5063 8.6328 16.5078 8.6328C16.5093 8.6328 16.5108 8.6328 16.5124 8.6328C16.5139 8.6328 16.5154 8.6328 16.5169 8.6328C16.5184 8.6328 16.5199 8.6328 16.5214 8.6328C16.5229 8.6328 16.5244 8.6328 16.5259 8.6328C16.5274 8.6328 16.5289 8.6328 16.5304 8.6328C16.5319 8.6328 16.5334 8.6328 16.5349 8.6328C16.5364 8.6328 16.538 8.6328 16.5395 8.6328C16.541 8.6328 16.5425 8.6328 16.544 8.6328C16.5455 8.6328 16.547 8.6328 16.5485 8.6328C16.55 8.6328 16.5515 8.6328 16.553 8.6328C16.5545 8.6328 16.5561 8.6328 16.5576 8.6328C16.5591 8.6328 16.5606 8.6328 16.5621 8.6328C16.5636 8.6328 16.5651 8.6328 16.5666 8.6328C16.5681 8.6328 16.5696 8.6328 16.5712 8.6328C16.5727 8.6328 16.5742 8.6328 16.5757 8.6328C16.5772 8.6328 16.5787 8.6328 16.5802 8.6328C16.5817 8.6328 16.5832 8.6328 16.5848 8.6328C16.5863 8.6328 16.5878 8.6328 16.5893 8.6328C16.5908 8.6328 16.5923 8.6328 16.5938 8.6328C16.5953 8.6328 16.5969 8.6328 16.5984 8.6328C16.5999 8.6328 16.6014 8.6328 16.6029 8.6328C16.6044 8.6328 16.6059 8.6328 16.6075 8.6328C16.609 8.6328 16.6105 8.6328 16.612 8.6328C16.6135 8.6328 16.615 8.6328 16.6165 8.6328C16.6181 8.6328 16.6196 8.6328 16.6211 8.6328C16.6226 8.6328 16.6241 8.6328 16.6256 8.6328C16.6271 8.6328 16.6287 8.6328 16.6302 8.6328C16.6317 8.6328 16.6332 8.6328 16.6347 8.6328C16.6362 8.6328 16.6378 8.6328 16.6393 8.6328C16.6408 8.6328 16.6423 8.6328 16.6438 8.6328C16.6453 8.6328 16.6469 8.6328 16.6484 8.6328C16.6499 8.6328 16.6514 8.6328 16.6529 8.6328C16.6544 8.6328 16.656 8.6328 16.6575 8.6328C16.659 8.6328 16.6605 8.6328 16.662 8.6328C16.6636 8.6328 16.6651 8.6328 16.6666 8.6328C16.6681 8.6328 16.6696 8.6328 16.6711 8.6328C16.6727 8.6328 16.6742 8.6328 16.6757 8.6328C16.6772 8.6328 16.6787 8.6328 16.6803 8.6328C16.6818 8.6328 16.6833 8.6328 16.6848 8.6328C16.6863 8.6328 16.6879 8.6328 16.6894 8.6328C16.6909 8.6328 16.6924 8.6328 16.6939 8.6328C16.6955 8.6328 16.697 8.6328 16.6985 8.6328C16.7 8.6328 16.7015 8.6328 16.7031 8.6328C16.7046 8.6328 16.7061 8.6328 16.7076 8.6328C16.7092 8.6328 16.7107 8.6328 16.7122 8.6328C16.7137 8.6328 16.7152 8.6328 16.7168 8.6328C16.7183 8.6328 16.7198 8.6328 16.7213 8.6328C16.7229 8.6328 16.7244 8.6328 16.7259 8.6328C16.7274 8.6328 16.7289 8.6328 16.7305 8.6328C16.732 8.6328 16.7335 8.6328 16.735 8.6328C16.7366 8.6328 16.7381 8.6328 16.7396 8.6328C16.7411 8.6328 16.7426 8.6328 16.7442 8.6328C16.7457 8.6328 16.7472 8.6328 16.7487 8.6328C16.7503 8.6328 16.7518 8.6328 16.7533 8.6328C16.7548 8.6328 16.7564 8.6328 16.7579 8.6328C16.7594 8.6328 16.7609 8.6328 16.7625 8.6328C16.764 8.6328 16.7655 8.6328 16.767 8.6328C16.7686 8.6328 16.7701 8.6328 16.7716 8.6328C16.7731 8.6328 16.7747 8.6328 16.7762 8.6328C16.7777 8.6328 16.7792 8.6328 16.7808 8.6328C16.7823 8.6328 16.7838 8.6328 16.7853 8.6328C16.7869 8.6328 16.7884 8.6328 16.7899 8.6328C16.7914 8.6328 16.793 8.6328 16.7945 8.6328C16.796 8.6328 16.7975 8.6328 16.7991 8.6328C16.8006 8.6328 16.8021 8.6328 16.8037 8.6328C16.8052 8.6328 16.8067 8.6328 16.8082 8.6328C16.8098 8.6328 16.8113 8.6328 16.8128 8.6328C16.8143 8.6328 16.8159 8.6328 16.8174 8.6328C16.8189 8.6328 16.8204 8.6328 16.822 8.6328C16.8235 8.6328 16.825 8.6328 16.8266 8.6328C16.8281 8.6328 16.8296 8.6328 16.8311 8.6328C16.8327 8.6328 16.8342 8.6328 16.8357 8.6328C16.8373 8.6328 16.8388 8.6328 16.8403 8.6328C16.8418 8.6328 16.8434 8.6328 16.8449 8.6328C16.8464 8.6328 16.8479 8.6328 16.8495 8.6328C16.851 8.6328 16.8525 8.6328 16.8541 8.6328C16.8556 8.6328 16.8571 8.6328 16.8586 8.6328C16.8602 8.6328 16.8617 8.6328 16.8632 8.6328C16.8648 8.6328 16.8663 8.6328 16.8678 8.6328C16.8693 8.6328 16.8709 8.6328 16.8724 8.6328C16.8739 8.6328 16.8755 8.6328 16.877 8.6328C16.8785 8.6328 16.8801 8.6328 16.8816 8.6328C16.8831 8.6328 16.8846 8.6328 16.8862 8.6328C16.8877 8.6328 16.8892 8.6328 16.8908 8.6328C16.8923 8.6328 16.8938 8.6328 16.8953 8.6328C16.8969 8.6328 16.8984 8.6328 16.8999 8.6328C16.9015 8.6328 16.903 8.6328 16.9045 8.6328C16.9061 8.6328 16.9076 8.6328 16.9091 8.6328C16.9106 8.6328 16.9122 8.6328 16.9137 8.6328C16.9152 8.6328 16.9168 8.6328 16.9183 8.6328C16.9198 8.6328 16.9214 8.6328 16.9229 8.6328C16.9244 8.6328 16.9259 8.6328 16.9275 8.6328C16.929 8.6328 16.9305 8.6328 16.9321 8.6328C16.9336 8.6328 16.9351 8.6328 16.9367 8.6328C16.9382 8.6328 16.9397 8.6328 16.9412 8.6328C16.9428 8.6328 16.9443 8.6328 16.9458 8.6328C16.9474 8.6328 16.9489 8.6328 16.9504 8.6328C16.952 8.6328 16.9535 8.6328 16.955 8.6328C16.9566 8.6328 16.9581 8.6328 16.9596 8.6328C16.9611 8.6328 16.9627 8.6328 16.9642 8.6328C16.9657 8.6328 16.9673 8.6328 16.9688 8.6328C16.9703 8.6328 16.9719 8.6328 16.9734 8.6328C16.9749 8.6328 16.9765 8.6328 16.978 8.6328C16.9795 8.6328 16.981 8.6328 16.9826 8.6328C16.9841 8.6328 16.9856 8.6328 16.9872 8.6328C16.9887 8.6328 16.9902 8.6328 16.9918 8.6328C16.9933 8.6328 16.9948 8.6328 16.9964 8.6328C16.9979 8.6328 16.9994 8.6328 17.0009 8.6328C17.0025 8.6328 17.004 8.6328 17.0055 8.6328C17.0071 8.6328 17.0086 8.6328 17.0101 8.6328C17.0117 8.6328 17.0132 8.6328 17.0147 8.6328C17.0163 8.6328 17.0178 8.6328 17.0193 8.6328C17.0209 8.6328 17.0224 8.6328 17.0239 8.6328C17.0254 8.6328 17.027 8.6328 17.0285 8.6328C17.03 8.6328 17.0316 8.6328 17.0331 8.6328C17.0346 8.6328 17.0362 8.6328 17.0377 8.6328C17.0392 8.6328 17.0408 8.6328 17.0423 8.6328C17.0438 8.6328 17.0453 8.6328 17.0469 8.6328C17.0484 8.6328 17.0499 8.6328 17.0515 8.6328C17.053 8.6328 17.0545 8.6328 17.0561 8.6328C17.0576 8.6328 17.0591 8.6328 17.0607 8.6328C17.0622 8.6328 17.0637 8.6328 17.0652 8.6328C17.0668 8.6328 17.0683 8.6328 17.0698 8.6328C17.0714 8.6328 17.0729 8.6328 17.0744 8.6328C17.076 8.6328 17.0775 8.6328 17.079 8.6328C17.0805 8.6328 17.0821 8.6328 17.0836 8.6328C17.0851 8.6328 17.0867 8.6328 17.0882 8.6328C17.0897 8.6328 17.0913 8.6328 17.0928 8.6328C17.0943 8.6328 17.0959 8.6328 17.0974 8.6328C17.0989 8.6328 17.1004 8.6328 17.102 8.6328C17.1035 8.6328 17.105 8.6328 17.1066 8.6328C17.1081 8.6328 17.1096 8.6328 17.1111 8.6328C17.1127 8.6328 17.1142 8.6328 17.1157 8.6328C17.1173 8.6328 17.1188 8.6328 17.1203 8.6328C17.1219 8.6328 17.1234 8.6328 17.1249 8.6328C17.1264 8.6328 17.128 8.6328 17.1295 8.6328C17.131 8.6328 17.1326 8.6328 17.1341 8.6328C17.1356 8.6328 17.1372 8.6328 17.1387 8.6328C17.1402 8.6328 17.1417 8.6328 17.1433 8.6328C17.1448 8.6328 17.1463 8.6328 17.1479 8.6328C17.1494 8.6328 17.1509 8.6328 17.1524 8.6328C17.154 8.6328 17.1555 8.6328 17.157 8.6328C17.1586 8.6328 17.1601 8.6328 17.1616 8.6328C17.1631 8.6328 17.1647 8.6328 17.1662 8.6328C17.1677 8.6328 17.1693 8.6328 17.1708 8.6328C17.1723 8.6328 17.1738 8.6328 17.1754 8.6328C17.1769 8.6328 17.1784 8.6328 17.18 8.6328C17.1815 8.6328 17.183 8.6328 17.1845 8.6328C17.1861 8.6328 17.1876 8.6328 17.1891 8.6328C17.1906 8.6328 17.1922 8.6328 17.1937 8.6328C17.1952 8.6328 17.1968 8.6328 17.1983 8.6328C17.1998 8.6328 17.2013 8.6328 17.2029 8.6328C17.2044 8.6328 17.2059 8.6328 17.2074 8.6328C17.209 8.6328 17.2105 8.6328 17.212 8.6328C17.2135 8.6328 17.2151 8.6328 17.2166 8.6328C17.2181 8.6328 17.2197 8.6328 17.2212 8.6328C17.2227 8.6328 17.2242 8.6328 17.2258 8.6328C17.2273 8.6328 17.2288 8.6328 17.2303 8.6328C17.2319 8.6328 17.2334 8.6328 17.2349 8.6328C17.2364 8.6328 17.238 8.6328 17.2395 8.6328C17.241 8.6328 17.2425 8.6328 17.2441 8.6328C17.2456 8.6328 17.2471 8.6328 17.2486 8.6328C17.2502 8.6328 17.2517 8.6328 17.2532 8.6328C17.2547 8.6328 17.2563 8.6328 17.2578 8.6328C17.2593 8.6328 17.2608 8.6328 17.2624 8.6328C17.2639 8.6328 17.2654 8.6328 17.2669 8.6328C17.2685 8.6328 17.27 8.6328 17.2715 8.6328C17.273 8.6328 17.2745 8.6328 17.2761 8.6328C17.2776 8.6328 17.2791 8.6328 17.2806 8.6328C17.2822 8.6328 17.2837 8.6328 17.2852 8.6328C17.2867 8.6328 17.2883 8.6328 17.2898 8.6328C17.2913 8.6328 17.2928 8.6328 17.2943 8.6328C17.2959 8.6328 17.2974 8.6328 17.2989 8.6328C17.3004 8.6328 17.302 8.6328 17.3035 8.6328C17.305 8.6328 17.3065 8.6328 17.308 8.6328C17.3096 8.6328 17.3111 8.6328 17.3126 8.6328C17.3141 8.6328 17.3156 8.6328 17.3172 8.6328C17.3187 8.6328 17.3202 8.6328 17.3217 8.6328C17.3233 8.6328 17.3248 8.6328 17.3263 8.6328C17.3278 8.6328 17.3293 8.6328 17.3309 8.6328C17.3324 8.6328 17.3339 8.6328 17.3354 8.6328C17.3369 8.6328 17.3385 8.6328 17.34 8.6328C17.3415 8.6328 17.343 8.6328 17.3445 8.6328C17.346 8.6328 17.3476 8.6328 17.3491 8.6328C17.3506 8.6328 17.3521 8.6328 17.3536 8.6328C17.3552 8.6328 17.3567 8.6328 17.3582 8.6328C17.3597 8.6328 17.3612 8.6328 17.3627 8.6328C17.3643 8.6328 17.3658 8.6328 17.3673 8.6328C17.3688 8.6328 17.3703 8.6328 17.3719 8.6328C17.3734 8.6328 17.3749 8.6328 17.3764 8.6328C17.3779 8.6328 17.3794 8.6328 17.381 8.6328C17.3825 8.6328 17.384 8.6328 17.3855 8.6328C17.387 8.6328 17.3885 8.6328 17.39 8.6328C17.3916 8.6328 17.3931 8.6328 17.3946 8.6328C17.3961 8.6328 17.3976 8.6328 17.3991 8.6328C17.4007 8.6328 17.4022 8.6328 17.4037 8.6328C17.4052 8.6328 17.4067 8.6328 17.4082 8.6328C17.4097 8.6328 17.4113 8.6328 17.4128 8.6328C17.4143 8.6328 17.4158 8.6328 17.4173 8.6328C17.4188 8.6328 17.4203 8.6328 17.4218 8.6328C17.4234 8.6328 17.4249 8.6328 17.4264 8.6328C17.4279 8.6328 17.4294 8.6328 17.4309 8.6328C17.4324 8.6328 17.4339 8.6328 17.4355 8.6328C17.437 8.6328 17.4385 8.6328 17.44 8.6328C17.4415 8.6328 17.443 8.6328 17.4445 8.6328C17.446 8.6328 17.4475 8.6328 17.4491 8.6328C17.4506 8.6328 17.4521 8.6328 17.4536 8.6328C17.4551 8.6328 17.4566 8.6328 17.4581 8.6328C17.4596 8.6328 17.4611 8.6328 17.4626 8.6328C17.4641 8.6328 17.4657 8.6328 17.4672 8.6328C17.4687 8.6328 17.4702 8.6328 17.4717 8.6328C17.4732 8.6328 17.4747 8.6328 17.4762 8.6328C17.4777 8.6328 17.4792 8.6328 17.4807 8.6328C17.4822 8.6328 17.4837 8.6328 17.4853 8.6328C17.4868 8.6328 17.4883 8.6328 17.4898 8.6328C17.4913 8.6328 17.4928 8.6328 17.4943 8.6328C17.4958 8.6328 17.4973 8.6328 17.4988 8.6328C17.5003 8.6328 17.5018 8.6328 17.5033 8.6328C17.5048 8.6328 17.5063 8.6328 17.5078 8.6328C17.5093 8.6328 17.5108 8.6328 17.5124 8.6328C17.5139 8.6328 17.5154 8.6328 17.5169 8.6328C17.5184 8.6328 17.5199 8.6328 17.5214 8.6328C17.5229 8.6328 17.5244 8.6328 17.5259 8.6328C17.5274 8.6328 17.5289 8.6328 17.5304 8.6328C17.5319 8.6328 17.5334 8.6328 17.5349 8.6328C17.5364 8.6328 17.5379 8.6328 17.5394 8.6328C17.5409 8.6328 17.5424 8.6328 17.5439 8.6328C17.5454 8.6328 17.5469 8.6328 17.5484 8.6328C17.5499 8.6328 17.5514 8.6328 17.5529 8.6328C17.5544 8.6328 17.5559 8.6328 17.5574 8.6328C17.5589 8.6328 17.5604 8.6328 17.5619 8.6328C17.5634 8.6328 17.5649 8.6328 17.5664 8.6328C17.5679 8.6328 17.5694 8.6328 17.5709 8.6328C17.5724 8.6328 17.5739 8.6328 17.5754 8.6328C17.5769 8.6328 17.5784 8.6328 17.5799 8.6328C17.5813 8.6328 17.5828 8.6328 17.5843 8.6328C17.5858 8.6328 17.5873 8.6328 17.5888 8.6328C17.5903 8.6328 17.5918 8.6328 17.5933 8.6328C17.5948 8.6328 17.5963 8.6328 17.5978 8.6328C17.5993 8.6328 17.6008 8.6328 17.6023 8.6328C17.6038 8.6328 17.6053 8.6328 17.6068 8.6328C17.6082 8.6328 17.6097 8.6328 17.6112 8.6328C17.6127 8.6328 17.6142 8.6328 17.6157 8.6328C17.6172 8.6328 17.6187 8.6328 17.6202 8.6328C17.6217 8.6328 17.6232 8.6328 17.6246 8.6328C17.6261 8.6328 17.6276 8.6328 17.6291 8.6328C17.6306 8.6328 17.6321 8.6328 17.6336 8.6328C17.6351 8.6328 17.6366 8.6328 17.6381 8.6328C17.6395 8.6328 17.641 8.6328 17.6425 8.6328C17.644 8.6328 17.6455 8.6328 17.647 8.6328C17.6485 8.6328 17.65 8.6328 17.6514 8.6328C17.6529 8.6328 17.6544 8.6328 17.6559 8.6328C17.6574 8.6328 17.6589 8.6328 17.6604 8.6328C17.6618 8.6328 17.6633 8.6328 17.6648 8.6328C17.6663 8.6328 17.6678 8.6328 17.6693 8.6328C17.6707 8.6328 17.6722 8.6328 17.6737 8.6328C17.6752 8.6328 17.6767 8.6328 17.6782 8.6328C17.6796 8.6328 17.6811 8.6328 17.6826 8.6328C17.6841 8.6328 17.6856 8.6328 17.6871 8.6328C17.6885 8.6328 17.69 8.6328 17.6915 8.6328C17.693 8.6328 17.6945 8.6328 17.6959 8.6328C17.6974 8.6328 17.6989 8.6328 17.7004 8.6328C17.7019 8.6328 17.7033 8.6328 17.7048 8.6328C17.7063 8.6328 17.7078 8.6328 17.7092 8.6328C17.7107 8.6328 17.7122 8.6328 17.7137 8.6328C17.7152 8.6328 17.7166 8.6328 17.7181 8.6328C17.7196 8.6328 17.7211 8.6328 17.7225 8.6328C17.724 8.6328 17.7255 8.6328 17.727 8.6328C17.7284 8.6328 17.7299 8.6328 17.7314 8.6328C17.7329 8.6328 17.7343 8.6328 17.7358 8.6328C17.7373 8.6328 17.7388 8.6328 17.7402 8.6328C17.7417 8.6328 17.7432 8.6328 17.7447 8.6328C17.7461 8.6328 17.7476 8.6328 17.7491 8.6328C17.7505 8.6328 17.752 8.6328 17.7535 8.6328C17.755 8.6328 17.7564 8.6328 17.7579 8.6328C17.7594 8.6328 17.7608 8.6328 17.7623 8.6328C17.7638 8.6328 17.7652 8.6328 17.7667 8.6328C17.7682 8.6328 17.7697 8.6328 17.7711 8.6328C17.7726 8.6328 17.7741 8.6328 17.7755 8.6328C17.777 8.6328 17.7785 8.6328 17.7799 8.6328C17.7814 8.6328 17.7829 8.6328 17.7843 8.6328C17.7858 8.6328 17.7873 8.6328 17.7887 8.6328C17.7902 8.6328 17.7916 8.6328 17.7931 8.6328C17.7946 8.6328 17.796 8.6328 17.7975 8.6328C17.799 8.6328 17.8004 8.6328 17.8019 8.6328C17.8034 8.6328 17.8048 8.6328 17.8063 8.6328C17.8077 8.6328 17.8092 8.6328 17.8107 8.6328C17.8121 8.6328 17.8136 8.6328 17.815 8.6328C17.8165 8.6328 17.818 8.6328 17.8194 8.6328C17.8209 8.6328 17.8223 8.6328 17.8238 8.6328C17.8253 8.6328 17.8267 8.6328 17.8282 8.6328C17.8296 8.6328 17.8311 8.6328 17.8325 8.6328C17.834 8.6328 17.8355 8.6328 17.8369 8.6328C17.8384 8.6328 17.8398 8.6328 17.8413 8.6328C17.8427 8.6328 17.8442 8.6328 17.8457 8.6328C17.8471 8.6328 17.8486 8.6328 17.85 8.6328C17.8515 8.6328 17.8529 8.6328 17.8544 8.6328C17.8558 8.6328 17.8573 8.6328 17.8587 8.6328C17.8602 8.6328 17.8616 8.6328 17.8631 8.6328C17.8645 8.6328 17.866 8.6328 17.8674 8.6328C17.8689 8.6328 17.8703 8.6328 17.8718 8.6328C17.8732 8.6328 17.8747 8.6328 17.8761 8.6328C17.8776 8.6328 17.879 8.6328 17.8805 8.6328C17.8819 8.6328 17.8834 8.6328 17.8848 8.6328C17.8863 8.6328 17.8877 8.6328 17.8892 8.6328C17.8906 8.6328 17.8921 8.6328 17.8935 8.6328C17.8949 8.6328 17.8964 8.6328 17.8978 8.6328C17.8993 8.6328 17.9007 8.6328 17.9022 8.6328C17.9036 8.6328 17.9051 8.6328 17.9065 8.6328C17.9079 8.6328 17.9094 8.6328 17.9108 8.6328C17.9123 8.6328 17.9137 8.6328 17.9151 8.6328C17.9166 8.6328 17.918 8.6328 17.9195 8.6328C17.9209 8.6328 17.9223 8.6328 17.9238 8.6328C17.9252 8.6328 17.9267 8.6328 17.9281 8.6328C17.9295 8.6328 17.931 8.6328 17.9324 8.6328V7.8328V7.0328C17.931 7.0328 17.9295 7.0328 17.9281 7.0328C17.9267 7.0328 17.9252 7.0328 17.9238 7.0328C17.9223 7.0328 17.9209 7.0328 17.9195 7.0328C17.918 7.0328 17.9166 7.0328 17.9151 7.0328C17.9137 7.0328 17.9123 7.0328 17.9108 7.0328C17.9094 7.0328 17.9079 7.0328 17.9065 7.0328C17.9051 7.0328 17.9036 7.0328 17.9022 7.0328C17.9007 7.0328 17.8993 7.0328 17.8978 7.0328C17.8964 7.0328 17.8949 7.0328 17.8935 7.0328C17.8921 7.0328 17.8906 7.0328 17.8892 7.0328C17.8877 7.0328 17.8863 7.0328 17.8848 7.0328C17.8834 7.0328 17.8819 7.0328 17.8805 7.0328C17.879 7.0328 17.8776 7.0328 17.8761 7.0328C17.8747 7.0328 17.8732 7.0328 17.8718 7.0328C17.8703 7.0328 17.8689 7.0328 17.8674 7.0328C17.866 7.0328 17.8645 7.0328 17.8631 7.0328C17.8616 7.0328 17.8602 7.0328 17.8587 7.0328C17.8573 7.0328 17.8558 7.0328 17.8544 7.0328C17.8529 7.0328 17.8515 7.0328 17.85 7.0328C17.8486 7.0328 17.8471 7.0328 17.8457 7.0328C17.8442 7.0328 17.8427 7.0328 17.8413 7.0328C17.8398 7.0328 17.8384 7.0328 17.8369 7.0328C17.8355 7.0328 17.834 7.0328 17.8325 7.0328C17.8311 7.0328 17.8296 7.0328 17.8282 7.0328C17.8267 7.0328 17.8253 7.0328 17.8238 7.0328C17.8223 7.0328 17.8209 7.0328 17.8194 7.0328C17.818 7.0328 17.8165 7.0328 17.815 7.0328C17.8136 7.0328 17.8121 7.0328 17.8107 7.0328C17.8092 7.0328 17.8077 7.0328 17.8063 7.0328C17.8048 7.0328 17.8034 7.0328 17.8019 7.0328C17.8004 7.0328 17.799 7.0328 17.7975 7.0328C17.796 7.0328 17.7946 7.0328 17.7931 7.0328C17.7916 7.0328 17.7902 7.0328 17.7887 7.0328C17.7873 7.0328 17.7858 7.0328 17.7843 7.0328C17.7829 7.0328 17.7814 7.0328 17.7799 7.0328C17.7785 7.0328 17.777 7.0328 17.7755 7.0328C17.7741 7.0328 17.7726 7.0328 17.7711 7.0328C17.7697 7.0328 17.7682 7.0328 17.7667 7.0328C17.7652 7.0328 17.7638 7.0328 17.7623 7.0328C17.7608 7.0328 17.7594 7.0328 17.7579 7.0328C17.7564 7.0328 17.755 7.0328 17.7535 7.0328C17.752 7.0328 17.7505 7.0328 17.7491 7.0328C17.7476 7.0328 17.7461 7.0328 17.7447 7.0328C17.7432 7.0328 17.7417 7.0328 17.7402 7.0328C17.7388 7.0328 17.7373 7.0328 17.7358 7.0328C17.7343 7.0328 17.7329 7.0328 17.7314 7.0328C17.7299 7.0328 17.7284 7.0328 17.727 7.0328C17.7255 7.0328 17.724 7.0328 17.7225 7.0328C17.7211 7.0328 17.7196 7.0328 17.7181 7.0328C17.7166 7.0328 17.7152 7.0328 17.7137 7.0328C17.7122 7.0328 17.7107 7.0328 17.7092 7.0328C17.7078 7.0328 17.7063 7.0328 17.7048 7.0328C17.7033 7.0328 17.7019 7.0328 17.7004 7.0328C17.6989 7.0328 17.6974 7.0328 17.6959 7.0328C17.6945 7.0328 17.693 7.0328 17.6915 7.0328C17.69 7.0328 17.6885 7.0328 17.6871 7.0328C17.6856 7.0328 17.6841 7.0328 17.6826 7.0328C17.6811 7.0328 17.6796 7.0328 17.6782 7.0328C17.6767 7.0328 17.6752 7.0328 17.6737 7.0328C17.6722 7.0328 17.6707 7.0328 17.6693 7.0328C17.6678 7.0328 17.6663 7.0328 17.6648 7.0328C17.6633 7.0328 17.6618 7.0328 17.6604 7.0328C17.6589 7.0328 17.6574 7.0328 17.6559 7.0328C17.6544 7.0328 17.6529 7.0328 17.6514 7.0328C17.65 7.0328 17.6485 7.0328 17.647 7.0328C17.6455 7.0328 17.644 7.0328 17.6425 7.0328C17.641 7.0328 17.6395 7.0328 17.6381 7.0328C17.6366 7.0328 17.6351 7.0328 17.6336 7.0328C17.6321 7.0328 17.6306 7.0328 17.6291 7.0328C17.6276 7.0328 17.6261 7.0328 17.6246 7.0328C17.6232 7.0328 17.6217 7.0328 17.6202 7.0328C17.6187 7.0328 17.6172 7.0328 17.6157 7.0328C17.6142 7.0328 17.6127 7.0328 17.6112 7.0328C17.6097 7.0328 17.6082 7.0328 17.6068 7.0328C17.6053 7.0328 17.6038 7.0328 17.6023 7.0328C17.6008 7.0328 17.5993 7.0328 17.5978 7.0328C17.5963 7.0328 17.5948 7.0328 17.5933 7.0328C17.5918 7.0328 17.5903 7.0328 17.5888 7.0328C17.5873 7.0328 17.5858 7.0328 17.5843 7.0328C17.5828 7.0328 17.5813 7.0328 17.5799 7.0328C17.5784 7.0328 17.5769 7.0328 17.5754 7.0328C17.5739 7.0328 17.5724 7.0328 17.5709 7.0328C17.5694 7.0328 17.5679 7.0328 17.5664 7.0328C17.5649 7.0328 17.5634 7.0328 17.5619 7.0328C17.5604 7.0328 17.5589 7.0328 17.5574 7.0328C17.5559 7.0328 17.5544 7.0328 17.5529 7.0328C17.5514 7.0328 17.5499 7.0328 17.5484 7.0328C17.5469 7.0328 17.5454 7.0328 17.5439 7.0328C17.5424 7.0328 17.5409 7.0328 17.5394 7.0328C17.5379 7.0328 17.5364 7.0328 17.5349 7.0328C17.5334 7.0328 17.5319 7.0328 17.5304 7.0328C17.5289 7.0328 17.5274 7.0328 17.5259 7.0328C17.5244 7.0328 17.5229 7.0328 17.5214 7.0328C17.5199 7.0328 17.5184 7.0328 17.5169 7.0328C17.5154 7.0328 17.5139 7.0328 17.5124 7.0328C17.5108 7.0328 17.5093 7.0328 17.5078 7.0328C17.5063 7.0328 17.5048 7.0328 17.5033 7.0328C17.5018 7.0328 17.5003 7.0328 17.4988 7.0328C17.4973 7.0328 17.4958 7.0328 17.4943 7.0328C17.4928 7.0328 17.4913 7.0328 17.4898 7.0328C17.4883 7.0328 17.4868 7.0328 17.4853 7.0328C17.4837 7.0328 17.4822 7.0328 17.4807 7.0328C17.4792 7.0328 17.4777 7.0328 17.4762 7.0328C17.4747 7.0328 17.4732 7.0328 17.4717 7.0328C17.4702 7.0328 17.4687 7.0328 17.4672 7.0328C17.4657 7.0328 17.4641 7.0328 17.4626 7.0328C17.4611 7.0328 17.4596 7.0328 17.4581 7.0328C17.4566 7.0328 17.4551 7.0328 17.4536 7.0328C17.4521 7.0328 17.4506 7.0328 17.4491 7.0328C17.4475 7.0328 17.446 7.0328 17.4445 7.0328C17.443 7.0328 17.4415 7.0328 17.44 7.0328C17.4385 7.0328 17.437 7.0328 17.4355 7.0328C17.4339 7.0328 17.4324 7.0328 17.4309 7.0328C17.4294 7.0328 17.4279 7.0328 17.4264 7.0328C17.4249 7.0328 17.4234 7.0328 17.4218 7.0328C17.4203 7.0328 17.4188 7.0328 17.4173 7.0328C17.4158 7.0328 17.4143 7.0328 17.4128 7.0328C17.4113 7.0328 17.4097 7.0328 17.4082 7.0328C17.4067 7.0328 17.4052 7.0328 17.4037 7.0328C17.4022 7.0328 17.4007 7.0328 17.3991 7.0328C17.3976 7.0328 17.3961 7.0328 17.3946 7.0328C17.3931 7.0328 17.3916 7.0328 17.39 7.0328C17.3885 7.0328 17.387 7.0328 17.3855 7.0328C17.384 7.0328 17.3825 7.0328 17.381 7.0328C17.3794 7.0328 17.3779 7.0328 17.3764 7.0328C17.3749 7.0328 17.3734 7.0328 17.3719 7.0328C17.3703 7.0328 17.3688 7.0328 17.3673 7.0328C17.3658 7.0328 17.3643 7.0328 17.3627 7.0328C17.3612 7.0328 17.3597 7.0328 17.3582 7.0328C17.3567 7.0328 17.3552 7.0328 17.3536 7.0328C17.3521 7.0328 17.3506 7.0328 17.3491 7.0328C17.3476 7.0328 17.346 7.0328 17.3445 7.0328C17.343 7.0328 17.3415 7.0328 17.34 7.0328C17.3385 7.0328 17.3369 7.0328 17.3354 7.0328C17.3339 7.0328 17.3324 7.0328 17.3309 7.0328C17.3293 7.0328 17.3278 7.0328 17.3263 7.0328C17.3248 7.0328 17.3233 7.0328 17.3217 7.0328C17.3202 7.0328 17.3187 7.0328 17.3172 7.0328C17.3156 7.0328 17.3141 7.0328 17.3126 7.0328C17.3111 7.0328 17.3096 7.0328 17.308 7.0328C17.3065 7.0328 17.305 7.0328 17.3035 7.0328C17.302 7.0328 17.3004 7.0328 17.2989 7.0328C17.2974 7.0328 17.2959 7.0328 17.2943 7.0328C17.2928 7.0328 17.2913 7.0328 17.2898 7.0328C17.2883 7.0328 17.2867 7.0328 17.2852 7.0328C17.2837 7.0328 17.2822 7.0328 17.2806 7.0328C17.2791 7.0328 17.2776 7.0328 17.2761 7.0328C17.2745 7.0328 17.273 7.0328 17.2715 7.0328C17.27 7.0328 17.2685 7.0328 17.2669 7.0328C17.2654 7.0328 17.2639 7.0328 17.2624 7.0328C17.2608 7.0328 17.2593 7.0328 17.2578 7.0328C17.2563 7.0328 17.2547 7.0328 17.2532 7.0328C17.2517 7.0328 17.2502 7.0328 17.2486 7.0328C17.2471 7.0328 17.2456 7.0328 17.2441 7.0328C17.2425 7.0328 17.241 7.0328 17.2395 7.0328C17.238 7.0328 17.2364 7.0328 17.2349 7.0328C17.2334 7.0328 17.2319 7.0328 17.2303 7.0328C17.2288 7.0328 17.2273 7.0328 17.2258 7.0328C17.2242 7.0328 17.2227 7.0328 17.2212 7.0328C17.2197 7.0328 17.2181 7.0328 17.2166 7.0328C17.2151 7.0328 17.2135 7.0328 17.212 7.0328C17.2105 7.0328 17.209 7.0328 17.2074 7.0328C17.2059 7.0328 17.2044 7.0328 17.2029 7.0328C17.2013 7.0328 17.1998 7.0328 17.1983 7.0328C17.1968 7.0328 17.1952 7.0328 17.1937 7.0328C17.1922 7.0328 17.1906 7.0328 17.1891 7.0328C17.1876 7.0328 17.1861 7.0328 17.1845 7.0328C17.183 7.0328 17.1815 7.0328 17.18 7.0328C17.1784 7.0328 17.1769 7.0328 17.1754 7.0328C17.1738 7.0328 17.1723 7.0328 17.1708 7.0328C17.1693 7.0328 17.1677 7.0328 17.1662 7.0328C17.1647 7.0328 17.1631 7.0328 17.1616 7.0328C17.1601 7.0328 17.1586 7.0328 17.157 7.0328C17.1555 7.0328 17.154 7.0328 17.1524 7.0328C17.1509 7.0328 17.1494 7.0328 17.1479 7.0328C17.1463 7.0328 17.1448 7.0328 17.1433 7.0328C17.1417 7.0328 17.1402 7.0328 17.1387 7.0328C17.1372 7.0328 17.1356 7.0328 17.1341 7.0328C17.1326 7.0328 17.131 7.0328 17.1295 7.0328C17.128 7.0328 17.1264 7.0328 17.1249 7.0328C17.1234 7.0328 17.1219 7.0328 17.1203 7.0328C17.1188 7.0328 17.1173 7.0328 17.1157 7.0328C17.1142 7.0328 17.1127 7.0328 17.1111 7.0328C17.1096 7.0328 17.1081 7.0328 17.1066 7.0328C17.105 7.0328 17.1035 7.0328 17.102 7.0328C17.1004 7.0328 17.0989 7.0328 17.0974 7.0328C17.0959 7.0328 17.0943 7.0328 17.0928 7.0328C17.0913 7.0328 17.0897 7.0328 17.0882 7.0328C17.0867 7.0328 17.0851 7.0328 17.0836 7.0328C17.0821 7.0328 17.0805 7.0328 17.079 7.0328C17.0775 7.0328 17.076 7.0328 17.0744 7.0328C17.0729 7.0328 17.0714 7.0328 17.0698 7.0328C17.0683 7.0328 17.0668 7.0328 17.0652 7.0328C17.0637 7.0328 17.0622 7.0328 17.0607 7.0328C17.0591 7.0328 17.0576 7.0328 17.0561 7.0328C17.0545 7.0328 17.053 7.0328 17.0515 7.0328C17.0499 7.0328 17.0484 7.0328 17.0469 7.0328C17.0453 7.0328 17.0438 7.0328 17.0423 7.0328C17.0408 7.0328 17.0392 7.0328 17.0377 7.0328C17.0362 7.0328 17.0346 7.0328 17.0331 7.0328C17.0316 7.0328 17.03 7.0328 17.0285 7.0328C17.027 7.0328 17.0254 7.0328 17.0239 7.0328C17.0224 7.0328 17.0209 7.0328 17.0193 7.0328C17.0178 7.0328 17.0163 7.0328 17.0147 7.0328C17.0132 7.0328 17.0117 7.0328 17.0101 7.0328C17.0086 7.0328 17.0071 7.0328 17.0055 7.0328C17.004 7.0328 17.0025 7.0328 17.0009 7.0328C16.9994 7.0328 16.9979 7.0328 16.9964 7.0328C16.9948 7.0328 16.9933 7.0328 16.9918 7.0328C16.9902 7.0328 16.9887 7.0328 16.9872 7.0328C16.9856 7.0328 16.9841 7.0328 16.9826 7.0328C16.981 7.0328 16.9795 7.0328 16.978 7.0328C16.9765 7.0328 16.9749 7.0328 16.9734 7.0328C16.9719 7.0328 16.9703 7.0328 16.9688 7.0328C16.9673 7.0328 16.9657 7.0328 16.9642 7.0328C16.9627 7.0328 16.9611 7.0328 16.9596 7.0328C16.9581 7.0328 16.9566 7.0328 16.955 7.0328C16.9535 7.0328 16.952 7.0328 16.9504 7.0328C16.9489 7.0328 16.9474 7.0328 16.9458 7.0328C16.9443 7.0328 16.9428 7.0328 16.9412 7.0328C16.9397 7.0328 16.9382 7.0328 16.9367 7.0328C16.9351 7.0328 16.9336 7.0328 16.9321 7.0328C16.9305 7.0328 16.929 7.0328 16.9275 7.0328C16.9259 7.0328 16.9244 7.0328 16.9229 7.0328C16.9214 7.0328 16.9198 7.0328 16.9183 7.0328C16.9168 7.0328 16.9152 7.0328 16.9137 7.0328C16.9122 7.0328 16.9106 7.0328 16.9091 7.0328C16.9076 7.0328 16.9061 7.0328 16.9045 7.0328C16.903 7.0328 16.9015 7.0328 16.8999 7.0328C16.8984 7.0328 16.8969 7.0328 16.8953 7.0328C16.8938 7.0328 16.8923 7.0328 16.8908 7.0328C16.8892 7.0328 16.8877 7.0328 16.8862 7.0328C16.8846 7.0328 16.8831 7.0328 16.8816 7.0328C16.8801 7.0328 16.8785 7.0328 16.877 7.0328C16.8755 7.0328 16.8739 7.0328 16.8724 7.0328C16.8709 7.0328 16.8693 7.0328 16.8678 7.0328C16.8663 7.0328 16.8648 7.0328 16.8632 7.0328C16.8617 7.0328 16.8602 7.0328 16.8586 7.0328C16.8571 7.0328 16.8556 7.0328 16.8541 7.0328C16.8525 7.0328 16.851 7.0328 16.8495 7.0328C16.8479 7.0328 16.8464 7.0328 16.8449 7.0328C16.8434 7.0328 16.8418 7.0328 16.8403 7.0328C16.8388 7.0328 16.8373 7.0328 16.8357 7.0328C16.8342 7.0328 16.8327 7.0328 16.8311 7.0328C16.8296 7.0328 16.8281 7.0328 16.8266 7.0328C16.825 7.0328 16.8235 7.0328 16.822 7.0328C16.8204 7.0328 16.8189 7.0328 16.8174 7.0328C16.8159 7.0328 16.8143 7.0328 16.8128 7.0328C16.8113 7.0328 16.8098 7.0328 16.8082 7.0328C16.8067 7.0328 16.8052 7.0328 16.8037 7.0328C16.8021 7.0328 16.8006 7.0328 16.7991 7.0328C16.7975 7.0328 16.796 7.0328 16.7945 7.0328C16.793 7.0328 16.7914 7.0328 16.7899 7.0328C16.7884 7.0328 16.7869 7.0328 16.7853 7.0328C16.7838 7.0328 16.7823 7.0328 16.7808 7.0328C16.7792 7.0328 16.7777 7.0328 16.7762 7.0328C16.7747 7.0328 16.7731 7.0328 16.7716 7.0328C16.7701 7.0328 16.7686 7.0328 16.767 7.0328C16.7655 7.0328 16.764 7.0328 16.7625 7.0328C16.7609 7.0328 16.7594 7.0328 16.7579 7.0328C16.7564 7.0328 16.7548 7.0328 16.7533 7.0328C16.7518 7.0328 16.7503 7.0328 16.7487 7.0328C16.7472 7.0328 16.7457 7.0328 16.7442 7.0328C16.7426 7.0328 16.7411 7.0328 16.7396 7.0328C16.7381 7.0328 16.7366 7.0328 16.735 7.0328C16.7335 7.0328 16.732 7.0328 16.7305 7.0328C16.7289 7.0328 16.7274 7.0328 16.7259 7.0328C16.7244 7.0328 16.7229 7.0328 16.7213 7.0328C16.7198 7.0328 16.7183 7.0328 16.7168 7.0328C16.7152 7.0328 16.7137 7.0328 16.7122 7.0328C16.7107 7.0328 16.7092 7.0328 16.7076 7.0328C16.7061 7.0328 16.7046 7.0328 16.7031 7.0328C16.7015 7.0328 16.7 7.0328 16.6985 7.0328C16.697 7.0328 16.6955 7.0328 16.6939 7.0328C16.6924 7.0328 16.6909 7.0328 16.6894 7.0328C16.6879 7.0328 16.6863 7.0328 16.6848 7.0328C16.6833 7.0328 16.6818 7.0328 16.6803 7.0328C16.6787 7.0328 16.6772 7.0328 16.6757 7.0328C16.6742 7.0328 16.6727 7.0328 16.6711 7.0328C16.6696 7.0328 16.6681 7.0328 16.6666 7.0328C16.6651 7.0328 16.6636 7.0328 16.662 7.0328C16.6605 7.0328 16.659 7.0328 16.6575 7.0328C16.656 7.0328 16.6544 7.0328 16.6529 7.0328C16.6514 7.0328 16.6499 7.0328 16.6484 7.0328C16.6469 7.0328 16.6453 7.0328 16.6438 7.0328C16.6423 7.0328 16.6408 7.0328 16.6393 7.0328C16.6378 7.0328 16.6362 7.0328 16.6347 7.0328C16.6332 7.0328 16.6317 7.0328 16.6302 7.0328C16.6287 7.0328 16.6271 7.0328 16.6256 7.0328C16.6241 7.0328 16.6226 7.0328 16.6211 7.0328C16.6196 7.0328 16.6181 7.0328 16.6165 7.0328C16.615 7.0328 16.6135 7.0328 16.612 7.0328C16.6105 7.0328 16.609 7.0328 16.6075 7.0328C16.6059 7.0328 16.6044 7.0328 16.6029 7.0328C16.6014 7.0328 16.5999 7.0328 16.5984 7.0328C16.5969 7.0328 16.5953 7.0328 16.5938 7.0328C16.5923 7.0328 16.5908 7.0328 16.5893 7.0328C16.5878 7.0328 16.5863 7.0328 16.5848 7.0328C16.5832 7.0328 16.5817 7.0328 16.5802 7.0328C16.5787 7.0328 16.5772 7.0328 16.5757 7.0328C16.5742 7.0328 16.5727 7.0328 16.5712 7.0328C16.5696 7.0328 16.5681 7.0328 16.5666 7.0328C16.5651 7.0328 16.5636 7.0328 16.5621 7.0328C16.5606 7.0328 16.5591 7.0328 16.5576 7.0328C16.5561 7.0328 16.5545 7.0328 16.553 7.0328C16.5515 7.0328 16.55 7.0328 16.5485 7.0328C16.547 7.0328 16.5455 7.0328 16.544 7.0328C16.5425 7.0328 16.541 7.0328 16.5395 7.0328C16.538 7.0328 16.5364 7.0328 16.5349 7.0328C16.5334 7.0328 16.5319 7.0328 16.5304 7.0328C16.5289 7.0328 16.5274 7.0328 16.5259 7.0328C16.5244 7.0328 16.5229 7.0328 16.5214 7.0328C16.5199 7.0328 16.5184 7.0328 16.5169 7.0328C16.5154 7.0328 16.5139 7.0328 16.5124 7.0328C16.5108 7.0328 16.5093 7.0328 16.5078 7.0328C16.5063 7.0328 16.5048 7.0328 16.5033 7.0328C16.5018 7.0328 16.5003 7.0328 16.4988 7.0328C16.4973 7.0328 16.4958 7.0328 16.4943 7.0328C16.4928 7.0328 16.4913 7.0328 16.4898 7.0328C16.4883 7.0328 16.4868 7.0328 16.4853 7.0328C16.4838 7.0328 16.4823 7.0328 16.4808 7.0328C16.4793 7.0328 16.4778 7.0328 16.4763 7.0328C16.4748 7.0328 16.4733 7.0328 16.4718 7.0328C16.4703 7.0328 16.4688 7.0328 16.4673 7.0328C16.4658 7.0328 16.4643 7.0328 16.4628 7.0328C16.4613 7.0328 16.4598 7.0328 16.4583 7.0328C16.4568 7.0328 16.4553 7.0328 16.4538 7.0328C16.4523 7.0328 16.4508 7.0328 16.4493 7.0328C16.4478 7.0328 16.4463 7.0328 16.4448 7.0328C16.4433 7.0328 16.4418 7.0328 16.4403 7.0328C16.4388 7.0328 16.4373 7.0328 16.4358 7.0328C16.4343 7.0328 16.4328 7.0328 16.4313 7.0328C16.4298 7.0328 16.4283 7.0328 16.4269 7.0328C16.4254 7.0328 16.4239 7.0328 16.4224 7.0328C16.4209 7.0328 16.4194 7.0328 16.4179 7.0328C16.4164 7.0328 16.4149 7.0328 16.4134 7.0328C16.4119 7.0328 16.4104 7.0328 16.4089 7.0328C16.4074 7.0328 16.4059 7.0328 16.4045 7.0328C16.403 7.0328 16.4015 7.0328 16.4 7.0328C16.3985 7.0328 16.397 7.0328 16.3955 7.0328C16.394 7.0328 16.3925 7.0328 16.391 7.0328C16.3895 7.0328 16.3881 7.0328 16.3866 7.0328C16.3851 7.0328 16.3836 7.0328 16.3821 7.0328C16.3806 7.0328 16.3791 7.0328 16.3776 7.0328C16.3761 7.0328 16.3747 7.0328 16.3732 7.0328C16.3717 7.0328 16.3702 7.0328 16.3687 7.0328C16.3672 7.0328 16.3657 7.0328 16.3642 7.0328C16.3628 7.0328 16.3613 7.0328 16.3598 7.0328C16.3583 7.0328 16.3568 7.0328 16.3553 7.0328C16.3538 7.0328 16.3524 7.0328 16.3509 7.0328C16.3494 7.0328 16.3479 7.0328 16.3464 7.0328C16.3449 7.0328 16.3434 7.0328 16.342 7.0328C16.3405 7.0328 16.339 7.0328 16.3375 7.0328C16.336 7.0328 16.3346 7.0328 16.3331 7.0328C16.3316 7.0328 16.3301 7.0328 16.3286 7.0328C16.3271 7.0328 16.3257 7.0328 16.3242 7.0328C16.3227 7.0328 16.3212 7.0328 16.3197 7.0328C16.3183 7.0328 16.3168 7.0328 16.3153 7.0328C16.3138 7.0328 16.3123 7.0328 16.3109 7.0328C16.3094 7.0328 16.3079 7.0328 16.3064 7.0328C16.305 7.0328 16.3035 7.0328 16.302 7.0328C16.3005 7.0328 16.299 7.0328 16.2976 7.0328C16.2961 7.0328 16.2946 7.0328 16.2931 7.0328C16.2917 7.0328 16.2902 7.0328 16.2887 7.0328C16.2872 7.0328 16.2858 7.0328 16.2843 7.0328C16.2828 7.0328 16.2813 7.0328 16.2799 7.0328C16.2784 7.0328 16.2769 7.0328 16.2754 7.0328C16.274 7.0328 16.2725 7.0328 16.271 7.0328C16.2696 7.0328 16.2681 7.0328 16.2666 7.0328C16.2651 7.0328 16.2637 7.0328 16.2622 7.0328C16.2607 7.0328 16.2593 7.0328 16.2578 7.0328C16.2563 7.0328 16.2548 7.0328 16.2534 7.0328C16.2519 7.0328 16.2504 7.0328 16.249 7.0328C16.2475 7.0328 16.246 7.0328 16.2446 7.0328C16.2431 7.0328 16.2416 7.0328 16.2402 7.0328C16.2387 7.0328 16.2372 7.0328 16.2358 7.0328C16.2343 7.0328 16.2328 7.0328 16.2314 7.0328C16.2299 7.0328 16.2284 7.0328 16.227 7.0328C16.2255 7.0328 16.224 7.0328 16.2226 7.0328C16.2211 7.0328 16.2196 7.0328 16.2182 7.0328C16.2167 7.0328 16.2153 7.0328 16.2138 7.0328C16.2123 7.0328 16.2109 7.0328 16.2094 7.0328C16.2079 7.0328 16.2065 7.0328 16.205 7.0328C16.2036 7.0328 16.2021 7.0328 16.2006 7.0328C16.1992 7.0328 16.1977 7.0328 16.1963 7.0328C16.1948 7.0328 16.1933 7.0328 16.1919 7.0328C16.1904 7.0328 16.189 7.0328 16.1875 7.0328C16.186 7.0328 16.1846 7.0328 16.1831 7.0328C16.1817 7.0328 16.1802 7.0328 16.1788 7.0328C16.1773 7.0328 16.1758 7.0328 16.1744 7.0328C16.1729 7.0328 16.1715 7.0328 16.17 7.0328C16.1686 7.0328 16.1671 7.0328 16.1657 7.0328C16.1642 7.0328 16.1628 7.0328 16.1613 7.0328C16.1599 7.0328 16.1584 7.0328 16.1569 7.0328C16.1555 7.0328 16.154 7.0328 16.1526 7.0328C16.1511 7.0328 16.1497 7.0328 16.1482 7.0328C16.1468 7.0328 16.1453 7.0328 16.1439 7.0328C16.1424 7.0328 16.141 7.0328 16.1395 7.0328C16.1381 7.0328 16.1366 7.0328 16.1352 7.0328C16.1337 7.0328 16.1323 7.0328 16.1309 7.0328C16.1294 7.0328 16.128 7.0328 16.1265 7.0328C16.1251 7.0328 16.1236 7.0328 16.1222 7.0328C16.1207 7.0328 16.1193 7.0328 16.1178 7.0328C16.1164 7.0328 16.115 7.0328 16.1135 7.0328C16.1121 7.0328 16.1106 7.0328 16.1092 7.0328C16.1077 7.0328 16.1063 7.0328 16.1049 7.0328C16.1034 7.0328 16.102 7.0328 16.1005 7.0328C16.0991 7.0328 16.0977 7.0328 16.0962 7.0328C16.0948 7.0328 16.0933 7.0328 16.0919 7.0328C16.0905 7.0328 16.089 7.0328 16.0876 7.0328C16.0861 7.0328 16.0847 7.0328 16.0833 7.0328C16.0818 7.0328 16.0804 7.0328 16.079 7.0328C16.0775 7.0328 16.0761 7.0328 16.0746 7.0328C16.0732 7.0328 16.0718 7.0328 16.0703 7.0328C16.0689 7.0328 16.0675 7.0328 16.066 7.0328C16.0646 7.0328 16.0632 7.0328 16.0617 7.0328C16.0603 7.0328 16.0589 7.0328 16.0574 7.0328C16.056 7.0328 16.0546 7.0328 16.0531 7.0328C16.0517 7.0328 16.0503 7.0328 16.0489 7.0328C16.0474 7.0328 16.046 7.0328 16.0446 7.0328C16.0431 7.0328 16.0417 7.0328 16.0403 7.0328C16.0389 7.0328 16.0374 7.0328 16.036 7.0328C16.0346 7.0328 16.0331 7.0328 16.0317 7.0328C16.0303 7.0328 16.0289 7.0328 16.0274 7.0328C16.026 7.0328 16.0246 7.0328 16.0232 7.0328C16.0217 7.0328 16.0203 7.0328 16.0189 7.0328C16.0175 7.0328 16.0161 7.0328 16.0146 7.0328C16.0132 7.0328 16.0118 7.0328 16.0104 7.0328C16.0089 7.0328 16.0075 7.0328 16.0061 7.0328C16.0047 7.0328 16.0033 7.0328 16.0018 7.0328C16.0004 7.0328 15.999 7.0328 15.9976 7.0328C15.9962 7.0328 15.9948 7.0328 15.9933 7.0328C15.9919 7.0328 15.9905 7.0328 15.9891 7.0328C15.9877 7.0328 15.9863 7.0328 15.9848 7.0328C15.9834 7.0328 15.982 7.0328 15.9806 7.0328C15.9792 7.0328 15.9778 7.0328 15.9764 7.0328C15.9749 7.0328 15.9735 7.0328 15.9721 7.0328C15.9707 7.0328 15.9693 7.0328 15.9679 7.0328C15.9665 7.0328 15.9651 7.0328 15.9637 7.0328C15.9622 7.0328 15.9608 7.0328 15.9594 7.0328C15.958 7.0328 15.9566 7.0328 15.9552 7.0328C15.9538 7.0328 15.9524 7.0328 15.951 7.0328C15.9496 7.0328 15.9482 7.0328 15.9468 7.0328C15.9454 7.0328 15.9439 7.0328 15.9425 7.0328C15.9411 7.0328 15.9397 7.0328 15.9383 7.0328C15.9369 7.0328 15.9355 7.0328 15.9341 7.0328C15.9327 7.0328 15.9313 7.0328 15.9299 7.0328C15.9285 7.0328 15.9271 7.0328 15.9257 7.0328C15.9243 7.0328 15.9229 7.0328 15.9215 7.0328C15.9201 7.0328 15.9187 7.0328 15.9173 7.0328C15.9159 7.0328 15.9145 7.0328 15.9131 7.0328C15.9117 7.0328 15.9103 7.0328 15.9089 7.0328C15.9075 7.0328 15.9061 7.0328 15.9047 7.0328C15.9033 7.0328 15.902 7.0328 15.9006 7.0328C15.8992 7.0328 15.8978 7.0328 15.8964 7.0328C15.895 7.0328 15.8936 7.0328 15.8922 7.0328C15.8908 7.0328 15.8894 7.0328 15.888 7.0328C15.8866 7.0328 15.8852 7.0328 15.8839 7.0328C15.8825 7.0328 15.8811 7.0328 15.8797 7.0328C15.8783 7.0328 15.8769 7.0328 15.8755 7.0328C15.8741 7.0328 15.8728 7.0328 15.8714 7.0328C15.87 7.0328 15.8686 7.0328 15.8672 7.0328C15.8658 7.0328 15.8644 7.0328 15.8631 7.0328C15.8617 7.0328 15.8603 7.0328 15.8589 7.0328C15.8575 7.0328 15.8561 7.0328 15.8548 7.0328C15.8534 7.0328 15.852 7.0328 15.8506 7.0328C15.8492 7.0328 15.8479 7.0328 15.8465 7.0328C15.8451 7.0328 15.8437 7.0328 15.8423 7.0328C15.841 7.0328 15.8396 7.0328 15.8382 7.0328C15.8368 7.0328 15.8355 7.0328 15.8341 7.0328C15.8327 7.0328 15.8313 7.0328 15.83 7.0328C15.8286 7.0328 15.8272 7.0328 15.8258 7.0328C15.8245 7.0328 15.8231 7.0328 15.8217 7.0328C15.8203 7.0328 15.819 7.0328 15.8176 7.0328C15.8162 7.0328 15.8149 7.0328 15.8135 7.0328C15.8121 7.0328 15.8107 7.0328 15.8094 7.0328C15.808 7.0328 15.8066 7.0328 15.8053 7.0328C15.8039 7.0328 15.8025 7.0328 15.8012 7.0328C15.7998 7.0328 15.7984 7.0328 15.7971 7.0328C15.7957 7.0328 15.7943 7.0328 15.793 7.0328C15.7916 7.0328 15.7903 7.0328 15.7889 7.0328C15.7875 7.0328 15.7862 7.0328 15.7848 7.0328C15.7834 7.0328 15.7821 7.0328 15.7807 7.0328C15.7794 7.0328 15.778 7.0328 15.7766 7.0328C15.7753 7.0328 15.7739 7.0328 15.7726 7.0328C15.7712 7.0328 15.7699 7.0328 15.7685 7.0328C15.7671 7.0328 15.7658 7.0328 15.7644 7.0328C15.7631 7.0328 15.7617 7.0328 15.7604 7.0328C15.759 7.0328 15.7577 7.0328 15.7563 7.0328C15.755 7.0328 15.7536 7.0328 15.7523 7.0328C15.7509 7.0328 15.7496 7.0328 15.7482 7.0328C15.7469 7.0328 15.7455 7.0328 15.7442 7.0328C15.7428 7.0328 15.7415 7.0328 15.7401 7.0328C15.7388 7.0328 15.7374 7.0328 15.7361 7.0328C15.7347 7.0328 15.7334 7.0328 15.732 7.0328C15.7307 7.0328 15.7293 7.0328 15.728 7.0328C15.7267 7.0328 15.7253 7.0328 15.724 7.0328C15.7226 7.0328 15.7213 7.0328 15.7199 7.0328C15.7186 7.0328 15.7173 7.0328 15.7159 7.0328C15.7146 7.0328 15.7132 7.0328 15.7119 7.0328C15.7106 7.0328 15.7092 7.0328 15.7079 7.0328C15.7066 7.0328 15.7052 7.0328 15.7039 7.0328C15.7025 7.0328 15.7012 7.0328 15.6999 7.0328C15.6985 7.0328 15.6972 7.0328 15.6959 7.0328C15.6945 7.0328 15.6932 7.0328 15.6919 7.0328C15.6905 7.0328 15.6892 7.0328 15.6879 7.0328C15.6865 7.0328 15.6852 7.0328 15.6839 7.0328C15.6826 7.0328 15.6812 7.0328 15.6799 7.0328C15.6786 7.0328 15.6772 7.0328 15.6759 7.0328C15.6746 7.0328 15.6733 7.0328 15.6719 7.0328C15.6706 7.0328 15.6693 7.0328 15.668 7.0328C15.6666 7.0328 15.6653 7.0328 15.664 7.0328V7.8328ZM5.61958 7.8328V8.6328C5.62102 8.6328 5.62245 8.6328 5.62389 8.6328C5.62533 8.6328 5.62677 8.6328 5.62821 8.6328C5.62965 8.6328 5.63109 8.6328 5.63253 8.6328C5.63397 8.6328 5.63541 8.6328 5.63685 8.6328C5.63829 8.6328 5.63973 8.6328 5.64117 8.6328C5.64261 8.6328 5.64406 8.6328 5.6455 8.6328C5.64694 8.6328 5.64839 8.6328 5.64983 8.6328C5.65127 8.6328 5.65272 8.6328 5.65416 8.6328C5.65561 8.6328 5.65705 8.6328 5.6585 8.6328C5.65994 8.6328 5.66139 8.6328 5.66283 8.6328C5.66428 8.6328 5.66573 8.6328 5.66717 8.6328C5.66862 8.6328 5.67007 8.6328 5.67152 8.6328C5.67296 8.6328 5.67441 8.6328 5.67586 8.6328C5.67731 8.6328 5.67876 8.6328 5.68021 8.6328C5.68166 8.6328 5.68311 8.6328 5.68456 8.6328C5.68601 8.6328 5.68746 8.6328 5.68891 8.6328C5.69036 8.6328 5.69181 8.6328 5.69327 8.6328C5.69472 8.6328 5.69617 8.6328 5.69762 8.6328C5.69908 8.6328 5.70053 8.6328 5.70198 8.6328C5.70344 8.6328 5.70489 8.6328 5.70635 8.6328C5.7078 8.6328 5.70926 8.6328 5.71071 8.6328C5.71217 8.6328 5.71362 8.6328 5.71508 8.6328C5.71654 8.6328 5.71799 8.6328 5.71945 8.6328C5.72091 8.6328 5.72236 8.6328 5.72382 8.6328C5.72528 8.6328 5.72674 8.6328 5.7282 8.6328C5.72966 8.6328 5.73111 8.6328 5.73257 8.6328C5.73403 8.6328 5.73549 8.6328 5.73695 8.6328C5.73841 8.6328 5.73987 8.6328 5.74134 8.6328C5.7428 8.6328 5.74426 8.6328 5.74572 8.6328C5.74718 8.6328 5.74864 8.6328 5.75011 8.6328C5.75157 8.6328 5.75303 8.6328 5.7545 8.6328C5.75596 8.6328 5.75742 8.6328 5.75889 8.6328C5.76035 8.6328 5.76182 8.6328 5.76328 8.6328C5.76475 8.6328 5.76621 8.6328 5.76768 8.6328C5.76914 8.6328 5.77061 8.6328 5.77208 8.6328C5.77354 8.6328 5.77501 8.6328 5.77648 8.6328C5.77794 8.6328 5.77941 8.6328 5.78088 8.6328C5.78235 8.6328 5.78382 8.6328 5.78528 8.6328C5.78675 8.6328 5.78822 8.6328 5.78969 8.6328C5.79116 8.6328 5.79263 8.6328 5.7941 8.6328C5.79557 8.6328 5.79704 8.6328 5.79851 8.6328C5.79998 8.6328 5.80145 8.6328 5.80293 8.6328C5.8044 8.6328 5.80587 8.6328 5.80734 8.6328C5.80881 8.6328 5.81029 8.6328 5.81176 8.6328C5.81323 8.6328 5.81471 8.6328 5.81618 8.6328C5.81765 8.6328 5.81913 8.6328 5.8206 8.6328C5.82208 8.6328 5.82355 8.6328 5.82503 8.6328C5.8265 8.6328 5.82798 8.6328 5.82946 8.6328C5.83093 8.6328 5.83241 8.6328 5.83388 8.6328C5.83536 8.6328 5.83684 8.6328 5.83831 8.6328C5.83979 8.6328 5.84127 8.6328 5.84275 8.6328C5.84423 8.6328 5.8457 8.6328 5.84718 8.6328C5.84866 8.6328 5.85014 8.6328 5.85162 8.6328C5.8531 8.6328 5.85458 8.6328 5.85606 8.6328C5.85754 8.6328 5.85902 8.6328 5.8605 8.6328C5.86198 8.6328 5.86346 8.6328 5.86494 8.6328C5.86642 8.6328 5.86791 8.6328 5.86939 8.6328C5.87087 8.6328 5.87235 8.6328 5.87384 8.6328C5.87532 8.6328 5.8768 8.6328 5.87828 8.6328C5.87977 8.6328 5.88125 8.6328 5.88274 8.6328C5.88422 8.6328 5.8857 8.6328 5.88719 8.6328C5.88867 8.6328 5.89016 8.6328 5.89164 8.6328C5.89313 8.6328 5.89461 8.6328 5.8961 8.6328C5.89759 8.6328 5.89907 8.6328 5.90056 8.6328C5.90205 8.6328 5.90353 8.6328 5.90502 8.6328C5.90651 8.6328 5.90799 8.6328 5.90948 8.6328C5.91097 8.6328 5.91246 8.6328 5.91395 8.6328C5.91543 8.6328 5.91692 8.6328 5.91841 8.6328C5.9199 8.6328 5.92139 8.6328 5.92288 8.6328C5.92437 8.6328 5.92586 8.6328 5.92735 8.6328C5.92884 8.6328 5.93033 8.6328 5.93182 8.6328C5.93331 8.6328 5.9348 8.6328 5.9363 8.6328C5.93779 8.6328 5.93928 8.6328 5.94077 8.6328C5.94226 8.6328 5.94375 8.6328 5.94525 8.6328C5.94674 8.6328 5.94823 8.6328 5.94973 8.6328C5.95122 8.6328 5.95271 8.6328 5.95421 8.6328C5.9557 8.6328 5.95719 8.6328 5.95869 8.6328C5.96018 8.6328 5.96168 8.6328 5.96317 8.6328C5.96467 8.6328 5.96616 8.6328 5.96766 8.6328C5.96915 8.6328 5.97065 8.6328 5.97215 8.6328C5.97364 8.6328 5.97514 8.6328 5.97663 8.6328C5.97813 8.6328 5.97963 8.6328 5.98112 8.6328C5.98262 8.6328 5.98412 8.6328 5.98562 8.6328C5.98711 8.6328 5.98861 8.6328 5.99011 8.6328C5.99161 8.6328 5.99311 8.6328 5.99461 8.6328C5.9961 8.6328 5.9976 8.6328 5.9991 8.6328C6.0006 8.6328 6.0021 8.6328 6.0036 8.6328C6.0051 8.6328 6.0066 8.6328 6.0081 8.6328C6.0096 8.6328 6.0111 8.6328 6.0126 8.6328C6.0141 8.6328 6.01561 8.6328 6.01711 8.6328C6.01861 8.6328 6.02011 8.6328 6.02161 8.6328C6.02311 8.6328 6.02462 8.6328 6.02612 8.6328C6.02762 8.6328 6.02912 8.6328 6.03063 8.6328C6.03213 8.6328 6.03363 8.6328 6.03514 8.6328C6.03664 8.6328 6.03814 8.6328 6.03965 8.6328C6.04115 8.6328 6.04265 8.6328 6.04416 8.6328C6.04566 8.6328 6.04717 8.6328 6.04867 8.6328C6.05018 8.6328 6.05168 8.6328 6.05319 8.6328C6.05469 8.6328 6.0562 8.6328 6.0577 8.6328C6.05921 8.6328 6.06072 8.6328 6.06222 8.6328C6.06373 8.6328 6.06524 8.6328 6.06674 8.6328C6.06825 8.6328 6.06976 8.6328 6.07126 8.6328C6.07277 8.6328 6.07428 8.6328 6.07578 8.6328C6.07729 8.6328 6.0788 8.6328 6.08031 8.6328C6.08182 8.6328 6.08332 8.6328 6.08483 8.6328C6.08634 8.6328 6.08785 8.6328 6.08936 8.6328C6.09087 8.6328 6.09238 8.6328 6.09389 8.6328C6.0954 8.6328 6.09691 8.6328 6.09842 8.6328C6.09993 8.6328 6.10144 8.6328 6.10295 8.6328C6.10446 8.6328 6.10597 8.6328 6.10748 8.6328C6.10899 8.6328 6.1105 8.6328 6.11201 8.6328C6.11352 8.6328 6.11503 8.6328 6.11654 8.6328C6.11806 8.6328 6.11957 8.6328 6.12108 8.6328C6.12259 8.6328 6.1241 8.6328 6.12562 8.6328C6.12713 8.6328 6.12864 8.6328 6.13015 8.6328C6.13167 8.6328 6.13318 8.6328 6.13469 8.6328C6.13621 8.6328 6.13772 8.6328 6.13923 8.6328C6.14075 8.6328 6.14226 8.6328 6.14377 8.6328C6.14529 8.6328 6.1468 8.6328 6.14832 8.6328C6.14983 8.6328 6.15135 8.6328 6.15286 8.6328C6.15438 8.6328 6.15589 8.6328 6.15741 8.6328C6.15892 8.6328 6.16044 8.6328 6.16195 8.6328C6.16347 8.6328 6.16498 8.6328 6.1665 8.6328C6.16801 8.6328 6.16953 8.6328 6.17105 8.6328C6.17256 8.6328 6.17408 8.6328 6.1756 8.6328C6.17711 8.6328 6.17863 8.6328 6.18015 8.6328C6.18166 8.6328 6.18318 8.6328 6.1847 8.6328C6.18621 8.6328 6.18773 8.6328 6.18925 8.6328C6.19077 8.6328 6.19229 8.6328 6.1938 8.6328C6.19532 8.6328 6.19684 8.6328 6.19836 8.6328C6.19988 8.6328 6.20139 8.6328 6.20291 8.6328C6.20443 8.6328 6.20595 8.6328 6.20747 8.6328C6.20899 8.6328 6.21051 8.6328 6.21203 8.6328C6.21355 8.6328 6.21507 8.6328 6.21658 8.6328C6.2181 8.6328 6.21962 8.6328 6.22114 8.6328C6.22266 8.6328 6.22418 8.6328 6.2257 8.6328C6.22722 8.6328 6.22874 8.6328 6.23027 8.6328C6.23179 8.6328 6.23331 8.6328 6.23483 8.6328C6.23635 8.6328 6.23787 8.6328 6.23939 8.6328C6.24091 8.6328 6.24243 8.6328 6.24395 8.6328C6.24548 8.6328 6.247 8.6328 6.24852 8.6328C6.25004 8.6328 6.25156 8.6328 6.25308 8.6328C6.25461 8.6328 6.25613 8.6328 6.25765 8.6328C6.25917 8.6328 6.2607 8.6328 6.26222 8.6328C6.26374 8.6328 6.26526 8.6328 6.26679 8.6328C6.26831 8.6328 6.26983 8.6328 6.27136 8.6328C6.27288 8.6328 6.2744 8.6328 6.27592 8.6328C6.27745 8.6328 6.27897 8.6328 6.2805 8.6328C6.28202 8.6328 6.28354 8.6328 6.28507 8.6328C6.28659 8.6328 6.28811 8.6328 6.28964 8.6328C6.29116 8.6328 6.29269 8.6328 6.29421 8.6328C6.29574 8.6328 6.29726 8.6328 6.29878 8.6328C6.30031 8.6328 6.30183 8.6328 6.30336 8.6328C6.30488 8.6328 6.30641 8.6328 6.30793 8.6328C6.30946 8.6328 6.31098 8.6328 6.31251 8.6328C6.31403 8.6328 6.31556 8.6328 6.31709 8.6328C6.31861 8.6328 6.32014 8.6328 6.32166 8.6328C6.32319 8.6328 6.32471 8.6328 6.32624 8.6328C6.32777 8.6328 6.32929 8.6328 6.33082 8.6328C6.33234 8.6328 6.33387 8.6328 6.3354 8.6328C6.33692 8.6328 6.33845 8.6328 6.33998 8.6328C6.3415 8.6328 6.34303 8.6328 6.34456 8.6328C6.34608 8.6328 6.34761 8.6328 6.34914 8.6328C6.35066 8.6328 6.35219 8.6328 6.35372 8.6328C6.35524 8.6328 6.35677 8.6328 6.3583 8.6328C6.35983 8.6328 6.36135 8.6328 6.36288 8.6328C6.36441 8.6328 6.36594 8.6328 6.36746 8.6328C6.36899 8.6328 6.37052 8.6328 6.37205 8.6328C6.37357 8.6328 6.3751 8.6328 6.37663 8.6328C6.37816 8.6328 6.37969 8.6328 6.38121 8.6328C6.38274 8.6328 6.38427 8.6328 6.3858 8.6328C6.38733 8.6328 6.38886 8.6328 6.39038 8.6328C6.39191 8.6328 6.39344 8.6328 6.39497 8.6328C6.3965 8.6328 6.39803 8.6328 6.39956 8.6328C6.40109 8.6328 6.40261 8.6328 6.40414 8.6328C6.40567 8.6328 6.4072 8.6328 6.40873 8.6328C6.41026 8.6328 6.41179 8.6328 6.41332 8.6328C6.41485 8.6328 6.41638 8.6328 6.4179 8.6328C6.41943 8.6328 6.42096 8.6328 6.42249 8.6328C6.42402 8.6328 6.42555 8.6328 6.42708 8.6328C6.42861 8.6328 6.43014 8.6328 6.43167 8.6328C6.4332 8.6328 6.43473 8.6328 6.43626 8.6328C6.43779 8.6328 6.43932 8.6328 6.44085 8.6328C6.44238 8.6328 6.44391 8.6328 6.44544 8.6328C6.44697 8.6328 6.4485 8.6328 6.45003 8.6328C6.45156 8.6328 6.45309 8.6328 6.45462 8.6328C6.45615 8.6328 6.45768 8.6328 6.45921 8.6328C6.46074 8.6328 6.46227 8.6328 6.4638 8.6328C6.46533 8.6328 6.46686 8.6328 6.46839 8.6328C6.46992 8.6328 6.47145 8.6328 6.47298 8.6328C6.47451 8.6328 6.47604 8.6328 6.47757 8.6328C6.4791 8.6328 6.48063 8.6328 6.48216 8.6328C6.48369 8.6328 6.48522 8.6328 6.48675 8.6328C6.48829 8.6328 6.48982 8.6328 6.49135 8.6328C6.49288 8.6328 6.49441 8.6328 6.49594 8.6328C6.49747 8.6328 6.499 8.6328 6.50053 8.6328C6.50206 8.6328 6.50359 8.6328 6.50512 8.6328C6.50665 8.6328 6.50818 8.6328 6.50972 8.6328C6.51125 8.6328 6.51278 8.6328 6.51431 8.6328C6.51584 8.6328 6.51737 8.6328 6.5189 8.6328C6.52043 8.6328 6.52196 8.6328 6.52349 8.6328C6.52502 8.6328 6.52655 8.6328 6.52809 8.6328C6.52962 8.6328 6.53115 8.6328 6.53268 8.6328C6.53421 8.6328 6.53574 8.6328 6.53727 8.6328C6.5388 8.6328 6.54033 8.6328 6.54186 8.6328C6.5434 8.6328 6.54493 8.6328 6.54646 8.6328C6.54799 8.6328 6.54952 8.6328 6.55105 8.6328C6.55258 8.6328 6.55411 8.6328 6.55564 8.6328C6.55717 8.6328 6.5587 8.6328 6.56024 8.6328C6.56177 8.6328 6.5633 8.6328 6.56483 8.6328C6.56636 8.6328 6.56789 8.6328 6.56942 8.6328C6.57095 8.6328 6.57248 8.6328 6.57401 8.6328C6.57554 8.6328 6.57707 8.6328 6.57861 8.6328C6.58014 8.6328 6.58167 8.6328 6.5832 8.6328C6.58473 8.6328 6.58626 8.6328 6.58779 8.6328C6.58932 8.6328 6.59085 8.6328 6.59238 8.6328C6.59391 8.6328 6.59544 8.6328 6.59697 8.6328C6.59851 8.6328 6.60004 8.6328 6.60157 8.6328C6.6031 8.6328 6.60463 8.6328 6.60616 8.6328C6.60769 8.6328 6.60922 8.6328 6.61075 8.6328C6.61228 8.6328 6.61381 8.6328 6.61534 8.6328C6.61687 8.6328 6.6184 8.6328 6.61993 8.6328C6.62146 8.6328 6.62299 8.6328 6.62452 8.6328C6.62605 8.6328 6.62758 8.6328 6.62911 8.6328C6.63064 8.6328 6.63217 8.6328 6.6337 8.6328C6.63523 8.6328 6.63676 8.6328 6.63829 8.6328C6.63982 8.6328 6.64135 8.6328 6.64288 8.6328C6.64441 8.6328 6.64594 8.6328 6.64747 8.6328C6.649 8.6328 6.65053 8.6328 6.65206 8.6328C6.65359 8.6328 6.65512 8.6328 6.65665 8.6328C6.65818 8.6328 6.65971 8.6328 6.66124 8.6328C6.66277 8.6328 6.6643 8.6328 6.66583 8.6328C6.66736 8.6328 6.66889 8.6328 6.67042 8.6328C6.67195 8.6328 6.67348 8.6328 6.675 8.6328C6.67653 8.6328 6.67806 8.6328 6.67959 8.6328C6.68112 8.6328 6.68265 8.6328 6.68418 8.6328C6.68571 8.6328 6.68724 8.6328 6.68876 8.6328C6.69029 8.6328 6.69182 8.6328 6.69335 8.6328C6.69488 8.6328 6.69641 8.6328 6.69794 8.6328C6.69946 8.6328 6.70099 8.6328 6.70252 8.6328C6.70405 8.6328 6.70558 8.6328 6.70711 8.6328C6.70863 8.6328 6.71016 8.6328 6.71169 8.6328C6.71322 8.6328 6.71475 8.6328 6.71627 8.6328C6.7178 8.6328 6.71933 8.6328 6.72086 8.6328C6.72238 8.6328 6.72391 8.6328 6.72544 8.6328C6.72697 8.6328 6.72849 8.6328 6.73002 8.6328C6.73155 8.6328 6.73308 8.6328 6.7346 8.6328C6.73613 8.6328 6.73766 8.6328 6.73918 8.6328C6.74071 8.6328 6.74224 8.6328 6.74376 8.6328C6.74529 8.6328 6.74682 8.6328 6.74834 8.6328C6.74987 8.6328 6.7514 8.6328 6.75292 8.6328C6.75445 8.6328 6.75598 8.6328 6.7575 8.6328C6.75903 8.6328 6.76056 8.6328 6.76208 8.6328C6.76361 8.6328 6.76513 8.6328 6.76666 8.6328C6.76818 8.6328 6.76971 8.6328 6.77124 8.6328C6.77276 8.6328 6.77429 8.6328 6.77581 8.6328C6.77734 8.6328 6.77886 8.6328 6.78039 8.6328C6.78191 8.6328 6.78344 8.6328 6.78496 8.6328C6.78649 8.6328 6.78801 8.6328 6.78954 8.6328C6.79106 8.6328 6.79258 8.6328 6.79411 8.6328C6.79563 8.6328 6.79716 8.6328 6.79868 8.6328C6.80021 8.6328 6.80173 8.6328 6.80325 8.6328C6.80478 8.6328 6.8063 8.6328 6.80783 8.6328C6.80935 8.6328 6.81087 8.6328 6.8124 8.6328C6.81392 8.6328 6.81544 8.6328 6.81697 8.6328C6.81849 8.6328 6.82001 8.6328 6.82153 8.6328C6.82306 8.6328 6.82458 8.6328 6.8261 8.6328C6.82762 8.6328 6.82915 8.6328 6.83067 8.6328C6.83219 8.6328 6.83371 8.6328 6.83524 8.6328C6.83676 8.6328 6.83828 8.6328 6.8398 8.6328C6.84132 8.6328 6.84284 8.6328 6.84437 8.6328C6.84589 8.6328 6.84741 8.6328 6.84893 8.6328C6.85045 8.6328 6.85197 8.6328 6.85349 8.6328C6.85501 8.6328 6.85653 8.6328 6.85805 8.6328C6.85958 8.6328 6.8611 8.6328 6.86262 8.6328C6.86414 8.6328 6.86566 8.6328 6.86718 8.6328C6.8687 8.6328 6.87022 8.6328 6.87174 8.6328C6.87325 8.6328 6.87477 8.6328 6.87629 8.6328C6.87781 8.6328 6.87933 8.6328 6.88085 8.6328C6.88237 8.6328 6.88389 8.6328 6.88541 8.6328C6.88693 8.6328 6.88844 8.6328 6.88996 8.6328C6.89148 8.6328 6.893 8.6328 6.89452 8.6328C6.89603 8.6328 6.89755 8.6328 6.89907 8.6328C6.90059 8.6328 6.90211 8.6328 6.90362 8.6328C6.90514 8.6328 6.90666 8.6328 6.90817 8.6328C6.90969 8.6328 6.91121 8.6328 6.91272 8.6328C6.91424 8.6328 6.91576 8.6328 6.91727 8.6328C6.91879 8.6328 6.92031 8.6328 6.92182 8.6328C6.92334 8.6328 6.92485 8.6328 6.92637 8.6328C6.92788 8.6328 6.9294 8.6328 6.93091 8.6328C6.93243 8.6328 6.93394 8.6328 6.93546 8.6328C6.93697 8.6328 6.93849 8.6328 6.94 8.6328C6.94152 8.6328 6.94303 8.6328 6.94454 8.6328C6.94606 8.6328 6.94757 8.6328 6.94909 8.6328C6.9506 8.6328 6.95211 8.6328 6.95363 8.6328C6.95514 8.6328 6.95665 8.6328 6.95817 8.6328C6.95968 8.6328 6.96119 8.6328 6.9627 8.6328C6.96422 8.6328 6.96573 8.6328 6.96724 8.6328C6.96875 8.6328 6.97026 8.6328 6.97177 8.6328C6.97329 8.6328 6.9748 8.6328 6.97631 8.6328C6.97782 8.6328 6.97933 8.6328 6.98084 8.6328C6.98235 8.6328 6.98386 8.6328 6.98537 8.6328C6.98688 8.6328 6.98839 8.6328 6.9899 8.6328C6.99141 8.6328 6.99292 8.6328 6.99443 8.6328C6.99594 8.6328 6.99745 8.6328 6.99896 8.6328C7.00047 8.6328 7.00198 8.6328 7.00349 8.6328C7.00499 8.6328 7.0065 8.6328 7.00801 8.6328C7.00952 8.6328 7.01103 8.6328 7.01253 8.6328C7.01404 8.6328 7.01555 8.6328 7.01706 8.6328C7.01856 8.6328 7.02007 8.6328 7.02158 8.6328C7.02308 8.6328 7.02459 8.6328 7.0261 8.6328C7.0276 8.6328 7.02911 8.6328 7.03061 8.6328C7.03212 8.6328 7.03363 8.6328 7.03513 8.6328C7.03664 8.6328 7.03814 8.6328 7.03965 8.6328C7.04115 8.6328 7.04266 8.6328 7.04416 8.6328C7.04566 8.6328 7.04717 8.6328 7.04867 8.6328C7.05018 8.6328 7.05168 8.6328 7.05318 8.6328C7.05469 8.6328 7.05619 8.6328 7.05769 8.6328C7.0592 8.6328 7.0607 8.6328 7.0622 8.6328C7.0637 8.6328 7.06521 8.6328 7.06671 8.6328C7.06821 8.6328 7.06971 8.6328 7.07121 8.6328C7.07271 8.6328 7.07421 8.6328 7.07572 8.6328C7.07722 8.6328 7.07872 8.6328 7.08022 8.6328C7.08172 8.6328 7.08322 8.6328 7.08472 8.6328C7.08622 8.6328 7.08772 8.6328 7.08922 8.6328C7.09071 8.6328 7.09221 8.6328 7.09371 8.6328C7.09521 8.6328 7.09671 8.6328 7.09821 8.6328C7.09971 8.6328 7.1012 8.6328 7.1027 8.6328C7.1042 8.6328 7.1057 8.6328 7.10719 8.6328C7.10869 8.6328 7.11019 8.6328 7.11168 8.6328C7.11318 8.6328 7.11468 8.6328 7.11617 8.6328C7.11767 8.6328 7.11916 8.6328 7.12066 8.6328C7.12216 8.6328 7.12365 8.6328 7.12515 8.6328C7.12664 8.6328 7.12814 8.6328 7.12963 8.6328C7.13112 8.6328 7.13262 8.6328 7.13411 8.6328C7.13561 8.6328 7.1371 8.6328 7.13859 8.6328C7.14009 8.6328 7.14158 8.6328 7.14307 8.6328C7.14456 8.6328 7.14606 8.6328 7.14755 8.6328C7.14904 8.6328 7.15053 8.6328 7.15202 8.6328C7.15351 8.6328 7.15501 8.6328 7.1565 8.6328C7.15799 8.6328 7.15948 8.6328 7.16097 8.6328C7.16246 8.6328 7.16395 8.6328 7.16544 8.6328C7.16693 8.6328 7.16842 8.6328 7.16991 8.6328C7.17139 8.6328 7.17288 8.6328 7.17437 8.6328C7.17586 8.6328 7.17735 8.6328 7.17884 8.6328C7.18032 8.6328 7.18181 8.6328 7.1833 8.6328C7.18479 8.6328 7.18627 8.6328 7.18776 8.6328C7.18924 8.6328 7.19073 8.6328 7.19222 8.6328C7.1937 8.6328 7.19519 8.6328 7.19667 8.6328C7.19816 8.6328 7.19964 8.6328 7.20113 8.6328C7.20261 8.6328 7.2041 8.6328 7.20558 8.6328C7.20707 8.6328 7.20855 8.6328 7.21003 8.6328C7.21152 8.6328 7.213 8.6328 7.21448 8.6328C7.21596 8.6328 7.21745 8.6328 7.21893 8.6328C7.22041 8.6328 7.22189 8.6328 7.22337 8.6328C7.22486 8.6328 7.22634 8.6328 7.22782 8.6328C7.2293 8.6328 7.23078 8.6328 7.23226 8.6328C7.23374 8.6328 7.23522 8.6328 7.2367 8.6328C7.23818 8.6328 7.23966 8.6328 7.24113 8.6328C7.24261 8.6328 7.24409 8.6328 7.24557 8.6328C7.24705 8.6328 7.24852 8.6328 7.25 8.6328C7.25148 8.6328 7.25296 8.6328 7.25443 8.6328C7.25591 8.6328 7.25739 8.6328 7.25886 8.6328C7.26034 8.6328 7.26181 8.6328 7.26329 8.6328C7.26476 8.6328 7.26624 8.6328 7.26771 8.6328C7.26919 8.6328 7.27066 8.6328 7.27214 8.6328C7.27361 8.6328 7.27508 8.6328 7.27656 8.6328C7.27803 8.6328 7.2795 8.6328 7.28097 8.6328C7.28245 8.6328 7.28392 8.6328 7.28539 8.6328C7.28686 8.6328 7.28833 8.6328 7.2898 8.6328C7.29128 8.6328 7.29275 8.6328 7.29422 8.6328C7.29569 8.6328 7.29716 8.6328 7.29863 8.6328C7.30009 8.6328 7.30156 8.6328 7.30303 8.6328C7.3045 8.6328 7.30597 8.6328 7.30744 8.6328C7.30891 8.6328 7.31037 8.6328 7.31184 8.6328C7.31331 8.6328 7.31477 8.6328 7.31624 8.6328C7.31771 8.6328 7.31917 8.6328 7.32064 8.6328C7.3221 8.6328 7.32357 8.6328 7.32503 8.6328C7.3265 8.6328 7.32796 8.6328 7.32943 8.6328C7.33089 8.6328 7.33236 8.6328 7.33382 8.6328C7.33528 8.6328 7.33675 8.6328 7.33821 8.6328C7.33967 8.6328 7.34113 8.6328 7.3426 8.6328C7.34406 8.6328 7.34552 8.6328 7.34698 8.6328C7.34844 8.6328 7.3499 8.6328 7.35136 8.6328C7.35282 8.6328 7.35428 8.6328 7.35574 8.6328C7.3572 8.6328 7.35866 8.6328 7.36012 8.6328C7.36158 8.6328 7.36304 8.6328 7.36449 8.6328C7.36595 8.6328 7.36741 8.6328 7.36887 8.6328C7.37032 8.6328 7.37178 8.6328 7.37324 8.6328C7.37469 8.6328 7.37615 8.6328 7.3776 8.6328C7.37906 8.6328 7.38051 8.6328 7.38197 8.6328C7.38342 8.6328 7.38488 8.6328 7.38633 8.6328C7.38779 8.6328 7.38924 8.6328 7.39069 8.6328C7.39214 8.6328 7.3936 8.6328 7.39505 8.6328C7.3965 8.6328 7.39795 8.6328 7.3994 8.6328C7.40086 8.6328 7.40231 8.6328 7.40376 8.6328C7.40521 8.6328 7.40666 8.6328 7.40811 8.6328C7.40956 8.6328 7.41101 8.6328 7.41245 8.6328C7.4139 8.6328 7.41535 8.6328 7.4168 8.6328C7.41825 8.6328 7.41969 8.6328 7.42114 8.6328C7.42259 8.6328 7.42404 8.6328 7.42548 8.6328C7.42693 8.6328 7.42837 8.6328 7.42982 8.6328C7.43126 8.6328 7.43271 8.6328 7.43415 8.6328C7.4356 8.6328 7.43704 8.6328 7.43849 8.6328C7.43993 8.6328 7.44137 8.6328 7.44282 8.6328C7.44426 8.6328 7.4457 8.6328 7.44714 8.6328C7.44858 8.6328 7.45002 8.6328 7.45147 8.6328C7.45291 8.6328 7.45435 8.6328 7.45579 8.6328C7.45723 8.6328 7.45867 8.6328 7.46011 8.6328C7.46154 8.6328 7.46298 8.6328 7.46442 8.6328C7.46586 8.6328 7.4673 8.6328 7.46873 8.6328C7.47017 8.6328 7.47161 8.6328 7.47305 8.6328C7.47448 8.6328 7.47592 8.6328 7.47735 8.6328C7.47879 8.6328 7.48022 8.6328 7.48166 8.6328C7.48309 8.6328 7.48453 8.6328 7.48596 8.6328C7.48739 8.6328 7.48883 8.6328 7.49026 8.6328C7.49169 8.6328 7.49312 8.6328 7.49456 8.6328C7.49599 8.6328 7.49742 8.6328 7.49885 8.6328C7.50028 8.6328 7.50171 8.6328 7.50314 8.6328C7.50457 8.6328 7.506 8.6328 7.50743 8.6328C7.50886 8.6328 7.51029 8.6328 7.51171 8.6328C7.51314 8.6328 7.51457 8.6328 7.516 8.6328C7.51742 8.6328 7.51885 8.6328 7.52028 8.6328C7.5217 8.6328 7.52313 8.6328 7.52455 8.6328C7.52598 8.6328 7.5274 8.6328 7.52883 8.6328C7.53025 8.6328 7.53167 8.6328 7.5331 8.6328C7.53452 8.6328 7.53594 8.6328 7.53736 8.6328C7.53879 8.6328 7.54021 8.6328 7.54163 8.6328C7.54305 8.6328 7.54447 8.6328 7.54589 8.6328C7.54731 8.6328 7.54873 8.6328 7.55015 8.6328C7.55157 8.6328 7.55299 8.6328 7.55441 8.6328C7.55582 8.6328 7.55724 8.6328 7.55866 8.6328C7.56008 8.6328 7.56149 8.6328 7.56291 8.6328C7.56433 8.6328 7.56574 8.6328 7.56716 8.6328C7.56857 8.6328 7.56999 8.6328 7.5714 8.6328C7.57281 8.6328 7.57423 8.6328 7.57564 8.6328C7.57705 8.6328 7.57847 8.6328 7.57988 8.6328C7.58129 8.6328 7.5827 8.6328 7.58411 8.6328C7.58553 8.6328 7.58694 8.6328 7.58835 8.6328C7.58976 8.6328 7.59117 8.6328 7.59257 8.6328C7.59398 8.6328 7.59539 8.6328 7.5968 8.6328C7.59821 8.6328 7.59961 8.6328 7.60102 8.6328C7.60243 8.6328 7.60384 8.6328 7.60524 8.6328C7.60665 8.6328 7.60805 8.6328 7.60946 8.6328C7.61086 8.6328 7.61227 8.6328 7.61367 8.6328C7.61507 8.6328 7.61648 8.6328 7.61788 8.6328C7.61928 8.6328 7.62068 8.6328 7.62209 8.6328C7.62349 8.6328 7.62489 8.6328 7.62629 8.6328C7.62769 8.6328 7.62909 8.6328 7.63049 8.6328C7.63189 8.6328 7.63329 8.6328 7.63469 8.6328C7.63608 8.6328 7.63748 8.6328 7.63888 8.6328C7.64028 8.6328 7.64167 8.6328 7.64307 8.6328C7.64447 8.6328 7.64586 8.6328 7.64726 8.6328C7.64865 8.6328 7.65005 8.6328 7.65144 8.6328C7.65283 8.6328 7.65423 8.6328 7.65562 8.6328C7.65701 8.6328 7.65841 8.6328 7.6598 8.6328C7.66119 8.6328 7.66258 8.6328 7.66397 8.6328C7.66536 8.6328 7.66675 8.6328 7.66814 8.6328C7.66953 8.6328 7.67092 8.6328 7.67231 8.6328C7.6737 8.6328 7.67508 8.6328 7.67647 8.6328C7.67786 8.6328 7.67925 8.6328 7.68063 8.6328C7.68202 8.6328 7.6834 8.6328 7.68479 8.6328C7.68617 8.6328 7.68756 8.6328 7.68894 8.6328C7.69033 8.6328 7.69171 8.6328 7.69309 8.6328C7.69447 8.6328 7.69586 8.6328 7.69724 8.6328C7.69862 8.6328 7.7 8.6328 7.70138 8.6328C7.70276 8.6328 7.70414 8.6328 7.70552 8.6328C7.7069 8.6328 7.70828 8.6328 7.70966 8.6328C7.71104 8.6328 7.71241 8.6328 7.71379 8.6328C7.71517 8.6328 7.71654 8.6328 7.71792 8.6328C7.71929 8.6328 7.72067 8.6328 7.72204 8.6328C7.72342 8.6328 7.72479 8.6328 7.72617 8.6328C7.72754 8.6328 7.72891 8.6328 7.73028 8.6328C7.73166 8.6328 7.73303 8.6328 7.7344 8.6328C7.73577 8.6328 7.73714 8.6328 7.73851 8.6328C7.73988 8.6328 7.74125 8.6328 7.74262 8.6328C7.74399 8.6328 7.74536 8.6328 7.74672 8.6328C7.74809 8.6328 7.74946 8.6328 7.75082 8.6328C7.75219 8.6328 7.75356 8.6328 7.75492 8.6328C7.75629 8.6328 7.75765 8.6328 7.75901 8.6328C7.76038 8.6328 7.76174 8.6328 7.7631 8.6328C7.76447 8.6328 7.76583 8.6328 7.76719 8.6328C7.76855 8.6328 7.76991 8.6328 7.77127 8.6328C7.77263 8.6328 7.77399 8.6328 7.77535 8.6328C7.77671 8.6328 7.77807 8.6328 7.77943 8.6328C7.78078 8.6328 7.78214 8.6328 7.7835 8.6328C7.78485 8.6328 7.78621 8.6328 7.78756 8.6328C7.78892 8.6328 7.79027 8.6328 7.79163 8.6328C7.79298 8.6328 7.79434 8.6328 7.79569 8.6328C7.79704 8.6328 7.79839 8.6328 7.79974 8.6328C7.8011 8.6328 7.80245 8.6328 7.8038 8.6328C7.80515 8.6328 7.8065 8.6328 7.80785 8.6328C7.80919 8.6328 7.81054 8.6328 7.81189 8.6328C7.81324 8.6328 7.81458 8.6328 7.81593 8.6328C7.81728 8.6328 7.81862 8.6328 7.81997 8.6328C7.82131 8.6328 7.82266 8.6328 7.824 8.6328C7.82535 8.6328 7.82669 8.6328 7.82803 8.6328C7.82937 8.6328 7.83072 8.6328 7.83206 8.6328C7.8334 8.6328 7.83474 8.6328 7.83608 8.6328C7.83742 8.6328 7.83876 8.6328 7.8401 8.6328C7.84143 8.6328 7.84277 8.6328 7.84411 8.6328C7.84545 8.6328 7.84678 8.6328 7.84812 8.6328C7.84946 8.6328 7.85079 8.6328 7.85213 8.6328C7.85346 8.6328 7.85479 8.6328 7.85613 8.6328C7.85746 8.6328 7.85879 8.6328 7.86013 8.6328C7.86146 8.6328 7.86279 8.6328 7.86412 8.6328C7.86545 8.6328 7.86678 8.6328 7.86811 8.6328C7.86944 8.6328 7.87077 8.6328 7.8721 8.6328C7.87342 8.6328 7.87475 8.6328 7.87608 8.6328C7.8774 8.6328 7.87873 8.6328 7.88006 8.6328C7.88138 8.6328 7.88271 8.6328 7.88403 8.6328C7.88535 8.6328 7.88668 8.6328 7.888 8.6328V7.8328V7.0328C7.88668 7.0328 7.88535 7.0328 7.88403 7.0328C7.88271 7.0328 7.88138 7.0328 7.88006 7.0328C7.87873 7.0328 7.8774 7.0328 7.87608 7.0328C7.87475 7.0328 7.87342 7.0328 7.8721 7.0328C7.87077 7.0328 7.86944 7.0328 7.86811 7.0328C7.86678 7.0328 7.86545 7.0328 7.86412 7.0328C7.86279 7.0328 7.86146 7.0328 7.86013 7.0328C7.85879 7.0328 7.85746 7.0328 7.85613 7.0328C7.85479 7.0328 7.85346 7.0328 7.85213 7.0328C7.85079 7.0328 7.84946 7.0328 7.84812 7.0328C7.84678 7.0328 7.84545 7.0328 7.84411 7.0328C7.84277 7.0328 7.84143 7.0328 7.8401 7.0328C7.83876 7.0328 7.83742 7.0328 7.83608 7.0328C7.83474 7.0328 7.8334 7.0328 7.83206 7.0328C7.83072 7.0328 7.82937 7.0328 7.82803 7.0328C7.82669 7.0328 7.82535 7.0328 7.824 7.0328C7.82266 7.0328 7.82131 7.0328 7.81997 7.0328C7.81862 7.0328 7.81728 7.0328 7.81593 7.0328C7.81458 7.0328 7.81324 7.0328 7.81189 7.0328C7.81054 7.0328 7.80919 7.0328 7.80785 7.0328C7.8065 7.0328 7.80515 7.0328 7.8038 7.0328C7.80245 7.0328 7.8011 7.0328 7.79974 7.0328C7.79839 7.0328 7.79704 7.0328 7.79569 7.0328C7.79434 7.0328 7.79298 7.0328 7.79163 7.0328C7.79027 7.0328 7.78892 7.0328 7.78756 7.0328C7.78621 7.0328 7.78485 7.0328 7.7835 7.0328C7.78214 7.0328 7.78078 7.0328 7.77943 7.0328C7.77807 7.0328 7.77671 7.0328 7.77535 7.0328C7.77399 7.0328 7.77263 7.0328 7.77127 7.0328C7.76991 7.0328 7.76855 7.0328 7.76719 7.0328C7.76583 7.0328 7.76447 7.0328 7.7631 7.0328C7.76174 7.0328 7.76038 7.0328 7.75901 7.0328C7.75765 7.0328 7.75629 7.0328 7.75492 7.0328C7.75356 7.0328 7.75219 7.0328 7.75082 7.0328C7.74946 7.0328 7.74809 7.0328 7.74672 7.0328C7.74536 7.0328 7.74399 7.0328 7.74262 7.0328C7.74125 7.0328 7.73988 7.0328 7.73851 7.0328C7.73714 7.0328 7.73577 7.0328 7.7344 7.0328C7.73303 7.0328 7.73166 7.0328 7.73028 7.0328C7.72891 7.0328 7.72754 7.0328 7.72617 7.0328C7.72479 7.0328 7.72342 7.0328 7.72204 7.0328C7.72067 7.0328 7.71929 7.0328 7.71792 7.0328C7.71654 7.0328 7.71517 7.0328 7.71379 7.0328C7.71241 7.0328 7.71104 7.0328 7.70966 7.0328C7.70828 7.0328 7.7069 7.0328 7.70552 7.0328C7.70414 7.0328 7.70276 7.0328 7.70138 7.0328C7.7 7.0328 7.69862 7.0328 7.69724 7.0328C7.69586 7.0328 7.69447 7.0328 7.69309 7.0328C7.69171 7.0328 7.69033 7.0328 7.68894 7.0328C7.68756 7.0328 7.68617 7.0328 7.68479 7.0328C7.6834 7.0328 7.68202 7.0328 7.68063 7.0328C7.67925 7.0328 7.67786 7.0328 7.67647 7.0328C7.67508 7.0328 7.6737 7.0328 7.67231 7.0328C7.67092 7.0328 7.66953 7.0328 7.66814 7.0328C7.66675 7.0328 7.66536 7.0328 7.66397 7.0328C7.66258 7.0328 7.66119 7.0328 7.6598 7.0328C7.65841 7.0328 7.65701 7.0328 7.65562 7.0328C7.65423 7.0328 7.65283 7.0328 7.65144 7.0328C7.65005 7.0328 7.64865 7.0328 7.64726 7.0328C7.64586 7.0328 7.64447 7.0328 7.64307 7.0328C7.64167 7.0328 7.64028 7.0328 7.63888 7.0328C7.63748 7.0328 7.63608 7.0328 7.63469 7.0328C7.63329 7.0328 7.63189 7.0328 7.63049 7.0328C7.62909 7.0328 7.62769 7.0328 7.62629 7.0328C7.62489 7.0328 7.62349 7.0328 7.62209 7.0328C7.62068 7.0328 7.61928 7.0328 7.61788 7.0328C7.61648 7.0328 7.61507 7.0328 7.61367 7.0328C7.61227 7.0328 7.61086 7.0328 7.60946 7.0328C7.60805 7.0328 7.60665 7.0328 7.60524 7.0328C7.60384 7.0328 7.60243 7.0328 7.60102 7.0328C7.59961 7.0328 7.59821 7.0328 7.5968 7.0328C7.59539 7.0328 7.59398 7.0328 7.59257 7.0328C7.59117 7.0328 7.58976 7.0328 7.58835 7.0328C7.58694 7.0328 7.58553 7.0328 7.58411 7.0328C7.5827 7.0328 7.58129 7.0328 7.57988 7.0328C7.57847 7.0328 7.57705 7.0328 7.57564 7.0328C7.57423 7.0328 7.57281 7.0328 7.5714 7.0328C7.56999 7.0328 7.56857 7.0328 7.56716 7.0328C7.56574 7.0328 7.56433 7.0328 7.56291 7.0328C7.56149 7.0328 7.56008 7.0328 7.55866 7.0328C7.55724 7.0328 7.55582 7.0328 7.55441 7.0328C7.55299 7.0328 7.55157 7.0328 7.55015 7.0328C7.54873 7.0328 7.54731 7.0328 7.54589 7.0328C7.54447 7.0328 7.54305 7.0328 7.54163 7.0328C7.54021 7.0328 7.53879 7.0328 7.53736 7.0328C7.53594 7.0328 7.53452 7.0328 7.5331 7.0328C7.53167 7.0328 7.53025 7.0328 7.52883 7.0328C7.5274 7.0328 7.52598 7.0328 7.52455 7.0328C7.52313 7.0328 7.5217 7.0328 7.52028 7.0328C7.51885 7.0328 7.51742 7.0328 7.516 7.0328C7.51457 7.0328 7.51314 7.0328 7.51171 7.0328C7.51029 7.0328 7.50886 7.0328 7.50743 7.0328C7.506 7.0328 7.50457 7.0328 7.50314 7.0328C7.50171 7.0328 7.50028 7.0328 7.49885 7.0328C7.49742 7.0328 7.49599 7.0328 7.49456 7.0328C7.49312 7.0328 7.49169 7.0328 7.49026 7.0328C7.48883 7.0328 7.48739 7.0328 7.48596 7.0328C7.48453 7.0328 7.48309 7.0328 7.48166 7.0328C7.48022 7.0328 7.47879 7.0328 7.47735 7.0328C7.47592 7.0328 7.47448 7.0328 7.47305 7.0328C7.47161 7.0328 7.47017 7.0328 7.46873 7.0328C7.4673 7.0328 7.46586 7.0328 7.46442 7.0328C7.46298 7.0328 7.46154 7.0328 7.46011 7.0328C7.45867 7.0328 7.45723 7.0328 7.45579 7.0328C7.45435 7.0328 7.45291 7.0328 7.45147 7.0328C7.45002 7.0328 7.44858 7.0328 7.44714 7.0328C7.4457 7.0328 7.44426 7.0328 7.44282 7.0328C7.44137 7.0328 7.43993 7.0328 7.43849 7.0328C7.43704 7.0328 7.4356 7.0328 7.43415 7.0328C7.43271 7.0328 7.43126 7.0328 7.42982 7.0328C7.42837 7.0328 7.42693 7.0328 7.42548 7.0328C7.42404 7.0328 7.42259 7.0328 7.42114 7.0328C7.41969 7.0328 7.41825 7.0328 7.4168 7.0328C7.41535 7.0328 7.4139 7.0328 7.41245 7.0328C7.41101 7.0328 7.40956 7.0328 7.40811 7.0328C7.40666 7.0328 7.40521 7.0328 7.40376 7.0328C7.40231 7.0328 7.40086 7.0328 7.3994 7.0328C7.39795 7.0328 7.3965 7.0328 7.39505 7.0328C7.3936 7.0328 7.39214 7.0328 7.39069 7.0328C7.38924 7.0328 7.38779 7.0328 7.38633 7.0328C7.38488 7.0328 7.38342 7.0328 7.38197 7.0328C7.38051 7.0328 7.37906 7.0328 7.3776 7.0328C7.37615 7.0328 7.37469 7.0328 7.37324 7.0328C7.37178 7.0328 7.37032 7.0328 7.36887 7.0328C7.36741 7.0328 7.36595 7.0328 7.36449 7.0328C7.36304 7.0328 7.36158 7.0328 7.36012 7.0328C7.35866 7.0328 7.3572 7.0328 7.35574 7.0328C7.35428 7.0328 7.35282 7.0328 7.35136 7.0328C7.3499 7.0328 7.34844 7.0328 7.34698 7.0328C7.34552 7.0328 7.34406 7.0328 7.3426 7.0328C7.34113 7.0328 7.33967 7.0328 7.33821 7.0328C7.33675 7.0328 7.33528 7.0328 7.33382 7.0328C7.33236 7.0328 7.33089 7.0328 7.32943 7.0328C7.32796 7.0328 7.3265 7.0328 7.32503 7.0328C7.32357 7.0328 7.3221 7.0328 7.32064 7.0328C7.31917 7.0328 7.31771 7.0328 7.31624 7.0328C7.31477 7.0328 7.31331 7.0328 7.31184 7.0328C7.31037 7.0328 7.30891 7.0328 7.30744 7.0328C7.30597 7.0328 7.3045 7.0328 7.30303 7.0328C7.30156 7.0328 7.30009 7.0328 7.29863 7.0328C7.29716 7.0328 7.29569 7.0328 7.29422 7.0328C7.29275 7.0328 7.29128 7.0328 7.2898 7.0328C7.28833 7.0328 7.28686 7.0328 7.28539 7.0328C7.28392 7.0328 7.28245 7.0328 7.28097 7.0328C7.2795 7.0328 7.27803 7.0328 7.27656 7.0328C7.27508 7.0328 7.27361 7.0328 7.27214 7.0328C7.27066 7.0328 7.26919 7.0328 7.26771 7.0328C7.26624 7.0328 7.26476 7.0328 7.26329 7.0328C7.26181 7.0328 7.26034 7.0328 7.25886 7.0328C7.25739 7.0328 7.25591 7.0328 7.25443 7.0328C7.25296 7.0328 7.25148 7.0328 7.25 7.0328C7.24852 7.0328 7.24705 7.0328 7.24557 7.0328C7.24409 7.0328 7.24261 7.0328 7.24113 7.0328C7.23966 7.0328 7.23818 7.0328 7.2367 7.0328C7.23522 7.0328 7.23374 7.0328 7.23226 7.0328C7.23078 7.0328 7.2293 7.0328 7.22782 7.0328C7.22634 7.0328 7.22486 7.0328 7.22337 7.0328C7.22189 7.0328 7.22041 7.0328 7.21893 7.0328C7.21745 7.0328 7.21596 7.0328 7.21448 7.0328C7.213 7.0328 7.21152 7.0328 7.21003 7.0328C7.20855 7.0328 7.20707 7.0328 7.20558 7.0328C7.2041 7.0328 7.20261 7.0328 7.20113 7.0328C7.19964 7.0328 7.19816 7.0328 7.19667 7.0328C7.19519 7.0328 7.1937 7.0328 7.19222 7.0328C7.19073 7.0328 7.18924 7.0328 7.18776 7.0328C7.18627 7.0328 7.18479 7.0328 7.1833 7.0328C7.18181 7.0328 7.18032 7.0328 7.17884 7.0328C7.17735 7.0328 7.17586 7.0328 7.17437 7.0328C7.17288 7.0328 7.17139 7.0328 7.16991 7.0328C7.16842 7.0328 7.16693 7.0328 7.16544 7.0328C7.16395 7.0328 7.16246 7.0328 7.16097 7.0328C7.15948 7.0328 7.15799 7.0328 7.1565 7.0328C7.15501 7.0328 7.15351 7.0328 7.15202 7.0328C7.15053 7.0328 7.14904 7.0328 7.14755 7.0328C7.14606 7.0328 7.14456 7.0328 7.14307 7.0328C7.14158 7.0328 7.14009 7.0328 7.13859 7.0328C7.1371 7.0328 7.13561 7.0328 7.13411 7.0328C7.13262 7.0328 7.13112 7.0328 7.12963 7.0328C7.12814 7.0328 7.12664 7.0328 7.12515 7.0328C7.12365 7.0328 7.12216 7.0328 7.12066 7.0328C7.11916 7.0328 7.11767 7.0328 7.11617 7.0328C7.11468 7.0328 7.11318 7.0328 7.11168 7.0328C7.11019 7.0328 7.10869 7.0328 7.10719 7.0328C7.1057 7.0328 7.1042 7.0328 7.1027 7.0328C7.1012 7.0328 7.09971 7.0328 7.09821 7.0328C7.09671 7.0328 7.09521 7.0328 7.09371 7.0328C7.09221 7.0328 7.09071 7.0328 7.08922 7.0328C7.08772 7.0328 7.08622 7.0328 7.08472 7.0328C7.08322 7.0328 7.08172 7.0328 7.08022 7.0328C7.07872 7.0328 7.07722 7.0328 7.07572 7.0328C7.07421 7.0328 7.07271 7.0328 7.07121 7.0328C7.06971 7.0328 7.06821 7.0328 7.06671 7.0328C7.06521 7.0328 7.0637 7.0328 7.0622 7.0328C7.0607 7.0328 7.0592 7.0328 7.05769 7.0328C7.05619 7.0328 7.05469 7.0328 7.05318 7.0328C7.05168 7.0328 7.05018 7.0328 7.04867 7.0328C7.04717 7.0328 7.04566 7.0328 7.04416 7.0328C7.04266 7.0328 7.04115 7.0328 7.03965 7.0328C7.03814 7.0328 7.03664 7.0328 7.03513 7.0328C7.03363 7.0328 7.03212 7.0328 7.03061 7.0328C7.02911 7.0328 7.0276 7.0328 7.0261 7.0328C7.02459 7.0328 7.02308 7.0328 7.02158 7.0328C7.02007 7.0328 7.01856 7.0328 7.01706 7.0328C7.01555 7.0328 7.01404 7.0328 7.01253 7.0328C7.01103 7.0328 7.00952 7.0328 7.00801 7.0328C7.0065 7.0328 7.00499 7.0328 7.00349 7.0328C7.00198 7.0328 7.00047 7.0328 6.99896 7.0328C6.99745 7.0328 6.99594 7.0328 6.99443 7.0328C6.99292 7.0328 6.99141 7.0328 6.9899 7.0328C6.98839 7.0328 6.98688 7.0328 6.98537 7.0328C6.98386 7.0328 6.98235 7.0328 6.98084 7.0328C6.97933 7.0328 6.97782 7.0328 6.97631 7.0328C6.9748 7.0328 6.97329 7.0328 6.97177 7.0328C6.97026 7.0328 6.96875 7.0328 6.96724 7.0328C6.96573 7.0328 6.96422 7.0328 6.9627 7.0328C6.96119 7.0328 6.95968 7.0328 6.95817 7.0328C6.95665 7.0328 6.95514 7.0328 6.95363 7.0328C6.95211 7.0328 6.9506 7.0328 6.94909 7.0328C6.94757 7.0328 6.94606 7.0328 6.94454 7.0328C6.94303 7.0328 6.94152 7.0328 6.94 7.0328C6.93849 7.0328 6.93697 7.0328 6.93546 7.0328C6.93394 7.0328 6.93243 7.0328 6.93091 7.0328C6.9294 7.0328 6.92788 7.0328 6.92637 7.0328C6.92485 7.0328 6.92334 7.0328 6.92182 7.0328C6.92031 7.0328 6.91879 7.0328 6.91727 7.0328C6.91576 7.0328 6.91424 7.0328 6.91272 7.0328C6.91121 7.0328 6.90969 7.0328 6.90817 7.0328C6.90666 7.0328 6.90514 7.0328 6.90362 7.0328C6.90211 7.0328 6.90059 7.0328 6.89907 7.0328C6.89755 7.0328 6.89603 7.0328 6.89452 7.0328C6.893 7.0328 6.89148 7.0328 6.88996 7.0328C6.88844 7.0328 6.88693 7.0328 6.88541 7.0328C6.88389 7.0328 6.88237 7.0328 6.88085 7.0328C6.87933 7.0328 6.87781 7.0328 6.87629 7.0328C6.87477 7.0328 6.87325 7.0328 6.87174 7.0328C6.87022 7.0328 6.8687 7.0328 6.86718 7.0328C6.86566 7.0328 6.86414 7.0328 6.86262 7.0328C6.8611 7.0328 6.85958 7.0328 6.85805 7.0328C6.85653 7.0328 6.85501 7.0328 6.85349 7.0328C6.85197 7.0328 6.85045 7.0328 6.84893 7.0328C6.84741 7.0328 6.84589 7.0328 6.84437 7.0328C6.84284 7.0328 6.84132 7.0328 6.8398 7.0328C6.83828 7.0328 6.83676 7.0328 6.83524 7.0328C6.83371 7.0328 6.83219 7.0328 6.83067 7.0328C6.82915 7.0328 6.82762 7.0328 6.8261 7.0328C6.82458 7.0328 6.82306 7.0328 6.82153 7.0328C6.82001 7.0328 6.81849 7.0328 6.81697 7.0328C6.81544 7.0328 6.81392 7.0328 6.8124 7.0328C6.81087 7.0328 6.80935 7.0328 6.80783 7.0328C6.8063 7.0328 6.80478 7.0328 6.80325 7.0328C6.80173 7.0328 6.80021 7.0328 6.79868 7.0328C6.79716 7.0328 6.79563 7.0328 6.79411 7.0328C6.79258 7.0328 6.79106 7.0328 6.78954 7.0328C6.78801 7.0328 6.78649 7.0328 6.78496 7.0328C6.78344 7.0328 6.78191 7.0328 6.78039 7.0328C6.77886 7.0328 6.77734 7.0328 6.77581 7.0328C6.77429 7.0328 6.77276 7.0328 6.77124 7.0328C6.76971 7.0328 6.76818 7.0328 6.76666 7.0328C6.76513 7.0328 6.76361 7.0328 6.76208 7.0328C6.76056 7.0328 6.75903 7.0328 6.7575 7.0328C6.75598 7.0328 6.75445 7.0328 6.75292 7.0328C6.7514 7.0328 6.74987 7.0328 6.74834 7.0328C6.74682 7.0328 6.74529 7.0328 6.74376 7.0328C6.74224 7.0328 6.74071 7.0328 6.73918 7.0328C6.73766 7.0328 6.73613 7.0328 6.7346 7.0328C6.73308 7.0328 6.73155 7.0328 6.73002 7.0328C6.72849 7.0328 6.72697 7.0328 6.72544 7.0328C6.72391 7.0328 6.72238 7.0328 6.72086 7.0328C6.71933 7.0328 6.7178 7.0328 6.71627 7.0328C6.71475 7.0328 6.71322 7.0328 6.71169 7.0328C6.71016 7.0328 6.70863 7.0328 6.70711 7.0328C6.70558 7.0328 6.70405 7.0328 6.70252 7.0328C6.70099 7.0328 6.69946 7.0328 6.69794 7.0328C6.69641 7.0328 6.69488 7.0328 6.69335 7.0328C6.69182 7.0328 6.69029 7.0328 6.68876 7.0328C6.68724 7.0328 6.68571 7.0328 6.68418 7.0328C6.68265 7.0328 6.68112 7.0328 6.67959 7.0328C6.67806 7.0328 6.67653 7.0328 6.675 7.0328C6.67348 7.0328 6.67195 7.0328 6.67042 7.0328C6.66889 7.0328 6.66736 7.0328 6.66583 7.0328C6.6643 7.0328 6.66277 7.0328 6.66124 7.0328C6.65971 7.0328 6.65818 7.0328 6.65665 7.0328C6.65512 7.0328 6.65359 7.0328 6.65206 7.0328C6.65053 7.0328 6.649 7.0328 6.64747 7.0328C6.64594 7.0328 6.64441 7.0328 6.64288 7.0328C6.64135 7.0328 6.63982 7.0328 6.63829 7.0328C6.63676 7.0328 6.63523 7.0328 6.6337 7.0328C6.63217 7.0328 6.63064 7.0328 6.62911 7.0328C6.62758 7.0328 6.62605 7.0328 6.62452 7.0328C6.62299 7.0328 6.62146 7.0328 6.61993 7.0328C6.6184 7.0328 6.61687 7.0328 6.61534 7.0328C6.61381 7.0328 6.61228 7.0328 6.61075 7.0328C6.60922 7.0328 6.60769 7.0328 6.60616 7.0328C6.60463 7.0328 6.6031 7.0328 6.60157 7.0328C6.60004 7.0328 6.59851 7.0328 6.59697 7.0328C6.59544 7.0328 6.59391 7.0328 6.59238 7.0328C6.59085 7.0328 6.58932 7.0328 6.58779 7.0328C6.58626 7.0328 6.58473 7.0328 6.5832 7.0328C6.58167 7.0328 6.58014 7.0328 6.57861 7.0328C6.57707 7.0328 6.57554 7.0328 6.57401 7.0328C6.57248 7.0328 6.57095 7.0328 6.56942 7.0328C6.56789 7.0328 6.56636 7.0328 6.56483 7.0328C6.5633 7.0328 6.56177 7.0328 6.56024 7.0328C6.5587 7.0328 6.55717 7.0328 6.55564 7.0328C6.55411 7.0328 6.55258 7.0328 6.55105 7.0328C6.54952 7.0328 6.54799 7.0328 6.54646 7.0328C6.54493 7.0328 6.5434 7.0328 6.54186 7.0328C6.54033 7.0328 6.5388 7.0328 6.53727 7.0328C6.53574 7.0328 6.53421 7.0328 6.53268 7.0328C6.53115 7.0328 6.52962 7.0328 6.52809 7.0328C6.52655 7.0328 6.52502 7.0328 6.52349 7.0328C6.52196 7.0328 6.52043 7.0328 6.5189 7.0328C6.51737 7.0328 6.51584 7.0328 6.51431 7.0328C6.51278 7.0328 6.51125 7.0328 6.50972 7.0328C6.50818 7.0328 6.50665 7.0328 6.50512 7.0328C6.50359 7.0328 6.50206 7.0328 6.50053 7.0328C6.499 7.0328 6.49747 7.0328 6.49594 7.0328C6.49441 7.0328 6.49288 7.0328 6.49135 7.0328C6.48982 7.0328 6.48829 7.0328 6.48675 7.0328C6.48522 7.0328 6.48369 7.0328 6.48216 7.0328C6.48063 7.0328 6.4791 7.0328 6.47757 7.0328C6.47604 7.0328 6.47451 7.0328 6.47298 7.0328C6.47145 7.0328 6.46992 7.0328 6.46839 7.0328C6.46686 7.0328 6.46533 7.0328 6.4638 7.0328C6.46227 7.0328 6.46074 7.0328 6.45921 7.0328C6.45768 7.0328 6.45615 7.0328 6.45462 7.0328C6.45309 7.0328 6.45156 7.0328 6.45003 7.0328C6.4485 7.0328 6.44697 7.0328 6.44544 7.0328C6.44391 7.0328 6.44238 7.0328 6.44085 7.0328C6.43932 7.0328 6.43779 7.0328 6.43626 7.0328C6.43473 7.0328 6.4332 7.0328 6.43167 7.0328C6.43014 7.0328 6.42861 7.0328 6.42708 7.0328C6.42555 7.0328 6.42402 7.0328 6.42249 7.0328C6.42096 7.0328 6.41943 7.0328 6.4179 7.0328C6.41638 7.0328 6.41485 7.0328 6.41332 7.0328C6.41179 7.0328 6.41026 7.0328 6.40873 7.0328C6.4072 7.0328 6.40567 7.0328 6.40414 7.0328C6.40261 7.0328 6.40109 7.0328 6.39956 7.0328C6.39803 7.0328 6.3965 7.0328 6.39497 7.0328C6.39344 7.0328 6.39191 7.0328 6.39038 7.0328C6.38886 7.0328 6.38733 7.0328 6.3858 7.0328C6.38427 7.0328 6.38274 7.0328 6.38121 7.0328C6.37969 7.0328 6.37816 7.0328 6.37663 7.0328C6.3751 7.0328 6.37357 7.0328 6.37205 7.0328C6.37052 7.0328 6.36899 7.0328 6.36746 7.0328C6.36594 7.0328 6.36441 7.0328 6.36288 7.0328C6.36135 7.0328 6.35983 7.0328 6.3583 7.0328C6.35677 7.0328 6.35524 7.0328 6.35372 7.0328C6.35219 7.0328 6.35066 7.0328 6.34914 7.0328C6.34761 7.0328 6.34608 7.0328 6.34456 7.0328C6.34303 7.0328 6.3415 7.0328 6.33998 7.0328C6.33845 7.0328 6.33692 7.0328 6.3354 7.0328C6.33387 7.0328 6.33234 7.0328 6.33082 7.0328C6.32929 7.0328 6.32777 7.0328 6.32624 7.0328C6.32471 7.0328 6.32319 7.0328 6.32166 7.0328C6.32014 7.0328 6.31861 7.0328 6.31709 7.0328C6.31556 7.0328 6.31403 7.0328 6.31251 7.0328C6.31098 7.0328 6.30946 7.0328 6.30793 7.0328C6.30641 7.0328 6.30488 7.0328 6.30336 7.0328C6.30183 7.0328 6.30031 7.0328 6.29878 7.0328C6.29726 7.0328 6.29574 7.0328 6.29421 7.0328C6.29269 7.0328 6.29116 7.0328 6.28964 7.0328C6.28811 7.0328 6.28659 7.0328 6.28507 7.0328C6.28354 7.0328 6.28202 7.0328 6.2805 7.0328C6.27897 7.0328 6.27745 7.0328 6.27592 7.0328C6.2744 7.0328 6.27288 7.0328 6.27136 7.0328C6.26983 7.0328 6.26831 7.0328 6.26679 7.0328C6.26526 7.0328 6.26374 7.0328 6.26222 7.0328C6.2607 7.0328 6.25917 7.0328 6.25765 7.0328C6.25613 7.0328 6.25461 7.0328 6.25308 7.0328C6.25156 7.0328 6.25004 7.0328 6.24852 7.0328C6.247 7.0328 6.24548 7.0328 6.24395 7.0328C6.24243 7.0328 6.24091 7.0328 6.23939 7.0328C6.23787 7.0328 6.23635 7.0328 6.23483 7.0328C6.23331 7.0328 6.23179 7.0328 6.23027 7.0328C6.22874 7.0328 6.22722 7.0328 6.2257 7.0328C6.22418 7.0328 6.22266 7.0328 6.22114 7.0328C6.21962 7.0328 6.2181 7.0328 6.21658 7.0328C6.21507 7.0328 6.21355 7.0328 6.21203 7.0328C6.21051 7.0328 6.20899 7.0328 6.20747 7.0328C6.20595 7.0328 6.20443 7.0328 6.20291 7.0328C6.20139 7.0328 6.19988 7.0328 6.19836 7.0328C6.19684 7.0328 6.19532 7.0328 6.1938 7.0328C6.19229 7.0328 6.19077 7.0328 6.18925 7.0328C6.18773 7.0328 6.18621 7.0328 6.1847 7.0328C6.18318 7.0328 6.18166 7.0328 6.18015 7.0328C6.17863 7.0328 6.17711 7.0328 6.1756 7.0328C6.17408 7.0328 6.17256 7.0328 6.17105 7.0328C6.16953 7.0328 6.16801 7.0328 6.1665 7.0328C6.16498 7.0328 6.16347 7.0328 6.16195 7.0328C6.16044 7.0328 6.15892 7.0328 6.15741 7.0328C6.15589 7.0328 6.15438 7.0328 6.15286 7.0328C6.15135 7.0328 6.14983 7.0328 6.14832 7.0328C6.1468 7.0328 6.14529 7.0328 6.14377 7.0328C6.14226 7.0328 6.14075 7.0328 6.13923 7.0328C6.13772 7.0328 6.13621 7.0328 6.13469 7.0328C6.13318 7.0328 6.13167 7.0328 6.13015 7.0328C6.12864 7.0328 6.12713 7.0328 6.12562 7.0328C6.1241 7.0328 6.12259 7.0328 6.12108 7.0328C6.11957 7.0328 6.11806 7.0328 6.11654 7.0328C6.11503 7.0328 6.11352 7.0328 6.11201 7.0328C6.1105 7.0328 6.10899 7.0328 6.10748 7.0328C6.10597 7.0328 6.10446 7.0328 6.10295 7.0328C6.10144 7.0328 6.09993 7.0328 6.09842 7.0328C6.09691 7.0328 6.0954 7.0328 6.09389 7.0328C6.09238 7.0328 6.09087 7.0328 6.08936 7.0328C6.08785 7.0328 6.08634 7.0328 6.08483 7.0328C6.08332 7.0328 6.08182 7.0328 6.08031 7.0328C6.0788 7.0328 6.07729 7.0328 6.07578 7.0328C6.07428 7.0328 6.07277 7.0328 6.07126 7.0328C6.06976 7.0328 6.06825 7.0328 6.06674 7.0328C6.06524 7.0328 6.06373 7.0328 6.06222 7.0328C6.06072 7.0328 6.05921 7.0328 6.0577 7.0328C6.0562 7.0328 6.05469 7.0328 6.05319 7.0328C6.05168 7.0328 6.05018 7.0328 6.04867 7.0328C6.04717 7.0328 6.04566 7.0328 6.04416 7.0328C6.04265 7.0328 6.04115 7.0328 6.03965 7.0328C6.03814 7.0328 6.03664 7.0328 6.03514 7.0328C6.03363 7.0328 6.03213 7.0328 6.03063 7.0328C6.02912 7.0328 6.02762 7.0328 6.02612 7.0328C6.02462 7.0328 6.02311 7.0328 6.02161 7.0328C6.02011 7.0328 6.01861 7.0328 6.01711 7.0328C6.01561 7.0328 6.0141 7.0328 6.0126 7.0328C6.0111 7.0328 6.0096 7.0328 6.0081 7.0328C6.0066 7.0328 6.0051 7.0328 6.0036 7.0328C6.0021 7.0328 6.0006 7.0328 5.9991 7.0328C5.9976 7.0328 5.9961 7.0328 5.99461 7.0328C5.99311 7.0328 5.99161 7.0328 5.99011 7.0328C5.98861 7.0328 5.98711 7.0328 5.98562 7.0328C5.98412 7.0328 5.98262 7.0328 5.98112 7.0328C5.97963 7.0328 5.97813 7.0328 5.97663 7.0328C5.97514 7.0328 5.97364 7.0328 5.97215 7.0328C5.97065 7.0328 5.96915 7.0328 5.96766 7.0328C5.96616 7.0328 5.96467 7.0328 5.96317 7.0328C5.96168 7.0328 5.96018 7.0328 5.95869 7.0328C5.95719 7.0328 5.9557 7.0328 5.95421 7.0328C5.95271 7.0328 5.95122 7.0328 5.94973 7.0328C5.94823 7.0328 5.94674 7.0328 5.94525 7.0328C5.94375 7.0328 5.94226 7.0328 5.94077 7.0328C5.93928 7.0328 5.93779 7.0328 5.9363 7.0328C5.9348 7.0328 5.93331 7.0328 5.93182 7.0328C5.93033 7.0328 5.92884 7.0328 5.92735 7.0328C5.92586 7.0328 5.92437 7.0328 5.92288 7.0328C5.92139 7.0328 5.9199 7.0328 5.91841 7.0328C5.91692 7.0328 5.91543 7.0328 5.91395 7.0328C5.91246 7.0328 5.91097 7.0328 5.90948 7.0328C5.90799 7.0328 5.90651 7.0328 5.90502 7.0328C5.90353 7.0328 5.90205 7.0328 5.90056 7.0328C5.89907 7.0328 5.89759 7.0328 5.8961 7.0328C5.89461 7.0328 5.89313 7.0328 5.89164 7.0328C5.89016 7.0328 5.88867 7.0328 5.88719 7.0328C5.8857 7.0328 5.88422 7.0328 5.88274 7.0328C5.88125 7.0328 5.87977 7.0328 5.87828 7.0328C5.8768 7.0328 5.87532 7.0328 5.87384 7.0328C5.87235 7.0328 5.87087 7.0328 5.86939 7.0328C5.86791 7.0328 5.86642 7.0328 5.86494 7.0328C5.86346 7.0328 5.86198 7.0328 5.8605 7.0328C5.85902 7.0328 5.85754 7.0328 5.85606 7.0328C5.85458 7.0328 5.8531 7.0328 5.85162 7.0328C5.85014 7.0328 5.84866 7.0328 5.84718 7.0328C5.8457 7.0328 5.84423 7.0328 5.84275 7.0328C5.84127 7.0328 5.83979 7.0328 5.83831 7.0328C5.83684 7.0328 5.83536 7.0328 5.83388 7.0328C5.83241 7.0328 5.83093 7.0328 5.82946 7.0328C5.82798 7.0328 5.8265 7.0328 5.82503 7.0328C5.82355 7.0328 5.82208 7.0328 5.8206 7.0328C5.81913 7.0328 5.81765 7.0328 5.81618 7.0328C5.81471 7.0328 5.81323 7.0328 5.81176 7.0328C5.81029 7.0328 5.80881 7.0328 5.80734 7.0328C5.80587 7.0328 5.8044 7.0328 5.80293 7.0328C5.80145 7.0328 5.79998 7.0328 5.79851 7.0328C5.79704 7.0328 5.79557 7.0328 5.7941 7.0328C5.79263 7.0328 5.79116 7.0328 5.78969 7.0328C5.78822 7.0328 5.78675 7.0328 5.78528 7.0328C5.78382 7.0328 5.78235 7.0328 5.78088 7.0328C5.77941 7.0328 5.77794 7.0328 5.77648 7.0328C5.77501 7.0328 5.77354 7.0328 5.77208 7.0328C5.77061 7.0328 5.76914 7.0328 5.76768 7.0328C5.76621 7.0328 5.76475 7.0328 5.76328 7.0328C5.76182 7.0328 5.76035 7.0328 5.75889 7.0328C5.75742 7.0328 5.75596 7.0328 5.7545 7.0328C5.75303 7.0328 5.75157 7.0328 5.75011 7.0328C5.74864 7.0328 5.74718 7.0328 5.74572 7.0328C5.74426 7.0328 5.7428 7.0328 5.74134 7.0328C5.73987 7.0328 5.73841 7.0328 5.73695 7.0328C5.73549 7.0328 5.73403 7.0328 5.73257 7.0328C5.73111 7.0328 5.72966 7.0328 5.7282 7.0328C5.72674 7.0328 5.72528 7.0328 5.72382 7.0328C5.72236 7.0328 5.72091 7.0328 5.71945 7.0328C5.71799 7.0328 5.71654 7.0328 5.71508 7.0328C5.71362 7.0328 5.71217 7.0328 5.71071 7.0328C5.70926 7.0328 5.7078 7.0328 5.70635 7.0328C5.70489 7.0328 5.70344 7.0328 5.70198 7.0328C5.70053 7.0328 5.69908 7.0328 5.69762 7.0328C5.69617 7.0328 5.69472 7.0328 5.69327 7.0328C5.69181 7.0328 5.69036 7.0328 5.68891 7.0328C5.68746 7.0328 5.68601 7.0328 5.68456 7.0328C5.68311 7.0328 5.68166 7.0328 5.68021 7.0328C5.67876 7.0328 5.67731 7.0328 5.67586 7.0328C5.67441 7.0328 5.67296 7.0328 5.67152 7.0328C5.67007 7.0328 5.66862 7.0328 5.66717 7.0328C5.66573 7.0328 5.66428 7.0328 5.66283 7.0328C5.66139 7.0328 5.65994 7.0328 5.6585 7.0328C5.65705 7.0328 5.65561 7.0328 5.65416 7.0328C5.65272 7.0328 5.65127 7.0328 5.64983 7.0328C5.64839 7.0328 5.64694 7.0328 5.6455 7.0328C5.64406 7.0328 5.64261 7.0328 5.64117 7.0328C5.63973 7.0328 5.63829 7.0328 5.63685 7.0328C5.63541 7.0328 5.63397 7.0328 5.63253 7.0328C5.63109 7.0328 5.62965 7.0328 5.62821 7.0328C5.62677 7.0328 5.62533 7.0328 5.62389 7.0328C5.62245 7.0328 5.62102 7.0328 5.61958 7.0328V7.8328ZM17.932 18.46V17.66H5.62V18.46V19.26H17.932V18.46ZM19.552 16.84H18.752C18.752 17.2929 18.3849 17.66 17.932 17.66V18.46V19.26C19.2685 19.26 20.352 18.1765 20.352 16.84H19.552ZM13.3727 5.5V6.3C13.6644 6.3 13.9341 6.45491 14.081 6.70683L14.772 6.30373L15.4631 5.90063C15.0294 5.15716 14.2334 4.7 13.3727 4.7V5.5ZM8.77996 6.30373L9.47098 6.70683C9.61793 6.45491 9.88763 6.3 10.1793 6.3V5.5V4.7C9.31856 4.7 8.52262 5.15717 8.08893 5.90063L8.77996 6.30373ZM19.552 9.4528H20.352C20.352 8.11654 19.2692 7.0328 17.9324 7.0328V7.8328V8.6328C18.385 8.6328 18.752 8.99966 18.752 9.4528H19.552ZM4 9.4528H4.8C4.8 8.99966 5.16698 8.6328 5.61958 8.6328V7.8328V7.0328C4.28278 7.0328 3.2 8.11654 3.2 9.4528H4ZM4 16.84H3.2C3.2 18.1765 4.28347 19.26 5.62 19.26V18.46V17.66C5.16713 17.66 4.8 17.2929 4.8 16.84H4Z" fill="#797979"/>
</svg>
