<svg width="24" height="24" viewBox="0 0 24 24" fill="none" xmlns="http://www.w3.org/2000/svg">
<rect x="1" y="3" width="22" height="18" rx="6" stroke="#797979" stroke-width="1.5"/>
<path d="M10.3505 6.58H16.2185V7.528C15.9065 8.344 15.3425 9.052 14.5265 9.652C15.2465 9.952 16.1225 10.156 17.1545 10.264L16.7585 11.26C15.4265 11.104 14.3225 10.78 13.4585 10.288C12.5345 10.744 11.4185 11.104 10.0985 11.392L9.55846 10.444C10.6865 10.216 11.6465 9.928 12.4505 9.592C11.8265 9.04 11.3705 8.38 11.0705 7.588H10.3505V6.58ZM12.1865 7.588C12.4745 8.176 12.8945 8.668 13.4585 9.076C14.1665 8.644 14.6825 8.152 15.0185 7.588H12.1865ZM10.6985 12.04H12.8705V11.056H13.9985V12.04H16.3265V13.072H13.9985V14.2H16.9145V15.28H13.9985V17.272H12.8705V15.28H10.1825V14.2H12.8705V13.072H10.6985V12.04ZM7.61446 6.256C8.39446 6.844 9.05446 7.432 9.59446 8.032L8.81446 8.824C8.33446 8.26 7.67446 7.66 6.82246 7.036L7.61446 6.256ZM6.01846 9.736H8.74246V14.656C9.05446 14.344 9.37846 13.996 9.71446 13.612L10.0145 14.812C9.30646 15.58 8.55046 16.276 7.75846 16.876L7.33846 15.856C7.54246 15.676 7.65046 15.46 7.65046 15.196V10.828H6.01846V9.736Z" fill="#797979"/>
</svg>
