<svg width="44" height="28" viewBox="0 0 44 28" fill="none" xmlns="http://www.w3.org/2000/svg">
<rect width="44" height="28" rx="14" fill="#797979" fill-opacity="0.3"/>
<path d="M20 8H16.6667C16.2985 8 16 8.29848 16 8.66667V12C16 12.3682 16.2985 12.6667 16.6667 12.6667H20C20.3682 12.6667 20.6667 12.3682 20.6667 12V8.66667C20.6667 8.29848 20.3682 8 20 8Z" stroke="white" stroke-width="1.5" stroke-linejoin="round"/>
<path d="M20 15.3334H16.6667C16.2985 15.3334 16 15.6318 16 16V19.3334C16 19.7016 16.2985 20 16.6667 20H20C20.3682 20 20.6667 19.7016 20.6667 19.3334V16C20.6667 15.6318 20.3682 15.3334 20 15.3334Z" stroke="white" stroke-width="1.5" stroke-linejoin="round"/>
<path d="M27.3335 8H24.0002C23.632 8 23.3335 8.29848 23.3335 8.66667V12C23.3335 12.3682 23.632 12.6667 24.0002 12.6667H27.3335C27.7017 12.6667 28.0002 12.3682 28.0002 12V8.66667C28.0002 8.29848 27.7017 8 27.3335 8Z" stroke="white" stroke-width="1.5" stroke-linejoin="round"/>
<path d="M27.3335 15.3334H24.0002C23.632 15.3334 23.3335 15.6318 23.3335 16V19.3334C23.3335 19.7016 23.632 20 24.0002 20H27.3335C27.7017 20 28.0002 19.7016 28.0002 19.3334V16C28.0002 15.6318 27.7017 15.3334 27.3335 15.3334Z" stroke="white" stroke-width="1.5" stroke-linejoin="round"/>
</svg>
