<svg width="24" height="24" viewBox="0 0 24 24" fill="none" xmlns="http://www.w3.org/2000/svg">
<path d="M11.2677 4.29544C11.6117 4.10175 11.9998 4 12.3945 4C12.7893 4 13.1774 4.10175 13.5213 4.29544L18.6194 7.16599C18.9743 7.36583 19.2697 7.65647 19.4752 8.00809C19.6807 8.35971 19.7891 8.75967 19.7891 9.16695V14.8407C19.7891 15.248 19.6807 15.6479 19.4752 15.9996C19.2697 16.3512 18.9743 16.6418 18.6194 16.8417L13.5213 19.7122C13.1774 19.9059 12.7893 20.0076 12.3945 20.0076C11.9998 20.0076 11.6117 19.9059 11.2677 19.7122L6.16965 16.8417C5.81476 16.6418 5.51941 16.3512 5.31387 15.9996C5.10833 15.6479 5.00001 15.248 5 14.8407V9.16695C5.00001 8.75967 5.10833 8.35971 5.31387 8.00809C5.51941 7.65647 5.81476 7.36583 6.16965 7.16599L11.2677 4.29544ZM12.7704 5.63044C12.6557 5.56578 12.5262 5.53181 12.3945 5.53181C12.2629 5.53181 12.1334 5.56578 12.0187 5.63044L6.92135 8.50022C6.803 8.56675 6.70447 8.66356 6.63587 8.78072C6.56726 8.89788 6.53106 9.03118 6.53096 9.16695V14.8407C6.53106 14.9765 6.56726 15.1098 6.63587 15.2269C6.70447 15.3441 6.803 15.4409 6.92135 15.5074L12.0194 18.378C12.1342 18.4426 12.2636 18.4766 12.3953 18.4766C12.527 18.4766 12.6564 18.4426 12.7711 18.378L17.8692 15.5074C17.9876 15.4409 18.0861 15.3441 18.1547 15.2269C18.2233 15.1098 18.2595 14.9765 18.2596 14.8407V9.16695C18.2595 9.03118 18.2233 8.89788 18.1547 8.78072C18.0861 8.66356 17.9876 8.56675 17.8692 8.50022L12.7704 5.63044ZM12.3945 8.9419C13.2066 8.9419 13.9854 9.2645 14.5596 9.83872C15.1339 10.4129 15.4564 11.1918 15.4564 12.0038C15.4564 12.8159 15.1339 13.5947 14.5596 14.1689C13.9854 14.7431 13.2066 15.0657 12.3945 15.0657C11.5825 15.0657 10.8036 14.7431 10.2294 14.1689C9.65521 13.5947 9.33261 12.8159 9.33261 12.0038C9.33261 11.1918 9.65521 10.4129 10.2294 9.83872C10.8036 9.2645 11.5825 8.9419 12.3945 8.9419ZM12.3945 10.4729C12.1935 10.4729 11.9944 10.5125 11.8087 10.5894C11.6229 10.6663 11.4541 10.7791 11.312 10.9213C11.1698 11.0634 11.057 11.2322 10.9801 11.4179C10.9032 11.6037 10.8636 11.8028 10.8636 12.0038C10.8636 12.2049 10.9032 12.4039 10.9801 12.5897C11.057 12.7754 11.1698 12.9442 11.312 13.0864C11.4541 13.2285 11.6229 13.3413 11.8087 13.4182C11.9944 13.4952 12.1935 13.5348 12.3945 13.5348C12.8006 13.5348 13.19 13.3735 13.4771 13.0864C13.7642 12.7993 13.9255 12.4099 13.9255 12.0038C13.9255 11.5978 13.7642 11.2084 13.4771 10.9213C13.19 10.6342 12.8006 10.4729 12.3945 10.4729Z" fill="white"/>
</svg>
