<svg width="28" height="28" viewBox="0 0 28 28" fill="none" xmlns="http://www.w3.org/2000/svg">
<path d="M14.8904 6H13.1097C12.6444 6 12.2671 6.37284 12.2671 6.83276V21.1672C12.2671 21.6272 12.6444 22 13.1097 22H14.8904C15.3558 22 15.733 21.6272 15.733 21.1672V6.83276C15.733 6.37284 15.3558 6 14.8904 6Z" fill="white"/>
<path d="M9.95002 9.33545H7.78352C7.42468 9.33545 7.13379 9.62293 7.13379 9.97755V18.0225C7.13379 18.3771 7.42468 18.6646 7.78352 18.6646H9.95002C10.3089 18.6646 10.5997 18.3771 10.5997 18.0225V9.97755C10.5997 9.62293 10.3089 9.33545 9.95002 9.33545Z" fill="white"/>
<path d="M4.81623 11.6227H2.64973C2.29089 11.6227 2 11.9102 2 12.2648V15.7339C2 16.0885 2.29089 16.376 2.64973 16.376H4.81623C5.17506 16.376 5.46595 16.0885 5.46595 15.7339V12.2648C5.46595 11.9102 5.17506 11.6227 4.81623 11.6227Z" fill="white" fill-opacity="0.4"/>
<path d="M25.3504 11.6227H23.1839C22.8251 11.6227 22.5342 11.9102 22.5342 12.2648V15.7339C22.5342 16.0885 22.8251 16.376 23.1839 16.376H25.3504C25.7092 16.376 26.0001 16.0885 26.0001 15.7339V12.2648C26.0001 11.9102 25.7092 11.6227 25.3504 11.6227Z" fill="white" fill-opacity="0.4"/>
<path d="M20.2166 9.33545H18.0501C17.6913 9.33545 17.4004 9.62293 17.4004 9.97755V18.0225C17.4004 18.3771 17.6913 18.6646 18.0501 18.6646H20.2166C20.5755 18.6646 20.8663 18.3771 20.8663 18.0225V9.97755C20.8663 9.62293 20.5755 9.33545 20.2166 9.33545Z" fill="white"/>
</svg>
