<svg width="28" height="28" viewBox="0 0 28 28" fill="none" xmlns="http://www.w3.org/2000/svg">
<path d="M13.9141 17.75L10.7832 21.0606C10.294 21.5778 9.49113 21.5822 8.99671 21.0703L2.57264 14.4199C2.0819 13.9118 2.0819 13.0882 2.57264 12.5801L9.00616 5.91987C9.4969 5.41184 10.2925 5.41184 10.7833 5.91987L17.2021 12.5649C17.6985 13.0788 17.6919 13.9142 17.1873 14.4196L17.0403 14.5669L16.5078 15.1004" stroke="#6A53A7" stroke-width="2" stroke-linecap="round"/>
<path d="M13.9999 9.25L17.2166 5.91987C17.7073 5.41184 18.503 5.41184 18.9937 5.91987L25.4273 12.5801C25.918 13.0882 25.918 13.9118 25.4272 14.4199L18.9937 21.0801C18.503 21.5882 17.7073 21.5882 17.2166 21.0801L10.7831 14.4199C10.2924 13.9118 10.2924 13.0882 10.7831 12.5801L10.9209 12.4375L11.434 11.9063" stroke="#6A53A7" stroke-width="2" stroke-linecap="round"/>
</svg>
