<svg width="28" height="28" viewBox="0 0 28 28" fill="none" xmlns="http://www.w3.org/2000/svg">
<path d="M10.6238 6.17645H7.97676C6.98265 6.17645 6.17676 6.98234 6.17676 7.97645V10.6235M16.9768 6.17645H19.6238C20.6179 6.17645 21.4238 6.98234 21.4238 7.97645V10.6235M21.4238 16.9765V19.6235C21.4238 20.6176 20.6179 21.4235 19.6238 21.4235H16.9768M10.6238 21.4235H7.97676C6.98265 21.4235 6.17676 20.6176 6.17676 19.6235V16.9765" stroke="#6A53A7" stroke-width="2" stroke-linecap="round" stroke-linejoin="round"/>
<path d="M16.9763 6.17647L15.0689 4.28026C14.3668 3.58231 13.2329 3.58231 12.5308 4.28025L10.6233 6.17647M21.4233 10.6235L23.3196 12.531C24.0175 13.233 24.0175 14.367 23.3196 15.069L21.4233 16.9765M16.9763 21.4235L15.0689 23.3197C14.3668 24.0177 13.2329 24.0177 12.5308 23.3197L10.6233 21.4235M6.17627 16.9765L4.28008 15.069C3.58215 14.3669 3.58215 13.233 4.28008 12.531L6.17627 10.6235" stroke="#6A53A7" stroke-width="2" stroke-linecap="round" stroke-linejoin="round"/>
<path d="M11.7998 14.3L13.7998 15.8L16.7998 11.8" stroke="#6A53A7" stroke-width="2" stroke-linecap="round"/>
</svg>
